<svg xmlns="http://www.w3.org/2000/svg" xmlns:xlink="http://www.w3.org/1999/xlink" width="500" zoomAndPan="magnify" viewBox="0 0 375 374.999991" height="500" preserveAspectRatio="xMidYMid meet" version="1.0"><defs><g/><clipPath id="89a1eaa5c1"><path d="M 189.253906 131.777344 L 307.003906 131.777344 L 307.003906 227 L 189.253906 227 Z M 189.253906 131.777344 " clip-rule="nonzero"/></clipPath><clipPath id="6794416e02"><path d="M 67.984375 148 L 185.734375 148 L 185.734375 243.214844 L 67.984375 243.214844 Z M 67.984375 148 " clip-rule="nonzero"/></clipPath><clipPath id="f3e5d1a9d7"><path d="M 112.53125 112.5 L 262.53125 112.5 L 262.53125 262.5 L 112.53125 262.5 Z M 112.53125 112.5 " clip-rule="nonzero"/></clipPath><clipPath id="108b87b970"><path d="M 255.179688 131.777344 L 282.179688 131.777344 L 282.179688 146 L 255.179688 146 Z M 255.179688 131.777344 " clip-rule="nonzero"/></clipPath><clipPath id="9e224be049"><path d="M 90.644531 227.375 L 121.394531 227.375 L 121.394531 243.125 L 90.644531 243.125 Z M 90.644531 227.375 " clip-rule="nonzero"/></clipPath><clipPath id="04d51c39b5"><path d="M 265 238 L 297 238 L 297 270 L 265 270 Z M 265 238 " clip-rule="nonzero"/></clipPath><clipPath id="c3152153d6"><path d="M 268.261719 235.300781 L 299.980469 241.125 L 294.15625 272.84375 L 262.4375 267.019531 Z M 268.261719 235.300781 " clip-rule="nonzero"/></clipPath><clipPath id="ca91b37625"><path d="M 268.261719 235.300781 L 299.980469 241.125 L 294.15625 272.84375 L 262.4375 267.019531 Z M 268.261719 235.300781 " clip-rule="nonzero"/></clipPath><clipPath id="0242a99c9d"><path d="M 282 249 L 286 249 L 286 255 L 282 255 Z M 282 249 " clip-rule="nonzero"/></clipPath><clipPath id="87dd7ae48c"><path d="M 268.261719 235.300781 L 299.980469 241.125 L 294.15625 272.84375 L 262.4375 267.019531 Z M 268.261719 235.300781 " clip-rule="nonzero"/></clipPath><clipPath id="f307f487ec"><path d="M 268.261719 235.300781 L 299.980469 241.125 L 294.15625 272.84375 L 262.4375 267.019531 Z M 268.261719 235.300781 " clip-rule="nonzero"/></clipPath><clipPath id="7f8e607ebb"><path d="M 277 248 L 281 248 L 281 254 L 277 254 Z M 277 248 " clip-rule="nonzero"/></clipPath><clipPath id="e2b93f204b"><path d="M 268.261719 235.300781 L 299.980469 241.125 L 294.15625 272.84375 L 262.4375 267.019531 Z M 268.261719 235.300781 " clip-rule="nonzero"/></clipPath><clipPath id="bfce9ef30b"><path d="M 268.261719 235.300781 L 299.980469 241.125 L 294.15625 272.84375 L 262.4375 267.019531 Z M 268.261719 235.300781 " clip-rule="nonzero"/></clipPath><clipPath id="e82b09b7a2"><path d="M 274 253 L 288 253 L 288 261 L 274 261 Z M 274 253 " clip-rule="nonzero"/></clipPath><clipPath id="3db72b5e75"><path d="M 268.261719 235.300781 L 299.980469 241.125 L 294.15625 272.84375 L 262.4375 267.019531 Z M 268.261719 235.300781 " clip-rule="nonzero"/></clipPath><clipPath id="3d8df902d7"><path d="M 268.261719 235.300781 L 299.980469 241.125 L 294.15625 272.84375 L 262.4375 267.019531 Z M 268.261719 235.300781 " clip-rule="nonzero"/></clipPath><clipPath id="7a59463459"><path d="M 283 250 L 285 250 L 285 252 L 283 252 Z M 283 250 " clip-rule="nonzero"/></clipPath><clipPath id="e868fdd556"><path d="M 268.261719 235.300781 L 299.980469 241.125 L 294.15625 272.84375 L 262.4375 267.019531 Z M 268.261719 235.300781 " clip-rule="nonzero"/></clipPath><clipPath id="9197c997b5"><path d="M 268.261719 235.300781 L 299.980469 241.125 L 294.15625 272.84375 L 262.4375 267.019531 Z M 268.261719 235.300781 " clip-rule="nonzero"/></clipPath><clipPath id="ec876eeeb8"><path d="M 278 249 L 280 249 L 280 251 L 278 251 Z M 278 249 " clip-rule="nonzero"/></clipPath><clipPath id="a6ff926ad7"><path d="M 268.261719 235.300781 L 299.980469 241.125 L 294.15625 272.84375 L 262.4375 267.019531 Z M 268.261719 235.300781 " clip-rule="nonzero"/></clipPath><clipPath id="74eb1b6784"><path d="M 268.261719 235.300781 L 299.980469 241.125 L 294.15625 272.84375 L 262.4375 267.019531 Z M 268.261719 235.300781 " clip-rule="nonzero"/></clipPath><clipPath id="98ea1f776d"><path d="M 170.644531 208.316406 L 204.394531 208.316406 L 204.394531 239.816406 L 170.644531 239.816406 Z M 170.644531 208.316406 " clip-rule="nonzero"/></clipPath></defs><g clip-path="url(#89a1eaa5c1)"><path fill="#41c1ba" d="M 228.070312 226.875 C 214.113281 226.875 201.007812 225.230469 189.625 222.339844 C 197.460938 223.527344 205.839844 224.167969 214.550781 224.167969 C 258.214844 224.167969 293.617188 208.050781 293.617188 188.164062 C 293.617188 174.636719 277.230469 162.855469 252.996094 156.695312 C 284.449219 161.453125 307.132812 174.953125 307.132812 190.878906 C 307.132812 210.757812 271.734375 226.875 228.070312 226.875 Z M 229.535156 150.722656 L 229.535156 150.429688 C 246.96875 150.429688 248.230469 147.601562 248.230469 131.726562 L 248.523438 131.726562 C 248.523438 147.601562 249.796875 150.429688 267.226562 150.429688 L 267.226562 150.722656 C 249.796875 150.722656 248.523438 153.542969 248.523438 169.417969 L 248.230469 169.417969 C 248.230469 153.542969 246.96875 150.722656 229.535156 150.722656 " fill-opacity="1" fill-rule="evenodd"/></g><g clip-path="url(#6794416e02)"><path fill="#41c1ba" d="M 146.921875 148.117188 C 160.875 148.117188 173.980469 149.761719 185.367188 152.65625 C 177.53125 151.464844 169.152344 150.824219 160.4375 150.824219 C 116.773438 150.824219 81.375 166.941406 81.375 186.828125 C 81.375 200.355469 97.761719 212.140625 121.992188 218.296875 C 90.542969 213.539062 67.859375 200.039062 67.859375 184.113281 C 67.859375 164.234375 103.257812 148.117188 146.921875 148.117188 Z M 145.453125 224.269531 L 145.453125 224.5625 C 128.023438 224.5625 126.757812 227.390625 126.757812 243.265625 L 126.464844 243.265625 C 126.464844 227.390625 125.195312 224.5625 107.761719 224.5625 L 107.761719 224.269531 C 125.195312 224.269531 126.464844 221.449219 126.464844 205.574219 L 126.757812 205.574219 C 126.757812 221.449219 128.023438 224.269531 145.453125 224.269531 " fill-opacity="1" fill-rule="evenodd"/></g><g clip-path="url(#f3e5d1a9d7)"><path fill="#41c1ba" d="M 187.546875 262.496094 C 187.546875 262.496094 187.539062 262.496094 187.535156 262.496094 L 185.257812 262.460938 L 185.253906 262.460938 L 183.058594 262.410156 C 183.050781 262.410156 183.039062 262.410156 183.03125 262.410156 L 180.988281 262.328125 C 180.972656 262.328125 180.96875 262.328125 180.953125 262.328125 L 179.113281 262.21875 C 179.101562 262.21875 179.09375 262.21875 179.082031 262.21875 L 177.503906 262.082031 C 177.488281 262.082031 177.476562 262.082031 177.464844 262.074219 L 176.203125 261.914062 C 176.1875 261.914062 176.183594 261.914062 176.167969 261.910156 L 175.234375 261.730469 L 173.277344 261.199219 L 163.234375 258.703125 C 163.226562 258.703125 163.226562 258.703125 163.21875 258.695312 C 163.210938 258.695312 163.207031 258.6875 163.199219 258.6875 L 162.160156 258.332031 C 162.148438 258.328125 162.132812 258.320312 162.121094 258.3125 L 152.40625 253.792969 L 151.195312 253.324219 L 150.375 252.949219 C 150.347656 252.9375 150.324219 252.921875 150.296875 252.902344 L 139.640625 245.527344 C 139.613281 245.507812 139.59375 245.496094 139.570312 245.46875 L 130.332031 236.3125 C 130.3125 236.292969 130.292969 236.273438 130.28125 236.246094 L 122.753906 225.53125 C 122.742188 225.511719 122.726562 225.488281 122.714844 225.46875 L 117.152344 213.570312 C 117.140625 213.542969 117.128906 213.515625 117.121094 213.484375 L 117.101562 213.398438 L 113.714844 200.777344 C 113.710938 200.757812 113.703125 200.730469 113.703125 200.710938 L 113.683594 200.582031 C 113.675781 200.554688 113.671875 200.535156 113.671875 200.507812 L 112.539062 187.65625 L 112.539062 187.652344 L 112.53125 187.605469 C 112.53125 187.574219 112.53125 187.539062 112.539062 187.507812 L 112.539062 187.425781 L 113.664062 174.539062 L 113.695312 174.3125 C 113.703125 174.289062 113.703125 174.261719 113.714844 174.234375 L 113.734375 174.164062 L 117.113281 161.546875 C 117.121094 161.523438 117.132812 161.488281 117.140625 161.464844 L 122.6875 149.566406 C 122.695312 149.546875 122.707031 149.527344 122.722656 149.507812 C 122.722656 149.5 122.726562 149.5 122.726562 149.492188 L 130.246094 138.777344 C 130.261719 138.757812 130.28125 138.734375 130.300781 138.714844 L 139.535156 129.53125 C 139.554688 129.511719 139.582031 129.492188 139.609375 129.472656 L 150.257812 122.089844 C 150.277344 122.070312 150.304688 122.054688 150.328125 122.042969 L 151.136719 121.675781 L 152.355469 121.207031 L 162.074219 116.679688 C 162.089844 116.671875 162.101562 116.667969 162.113281 116.660156 L 163.152344 116.304688 C 163.171875 116.296875 163.191406 116.292969 163.210938 116.292969 L 163.21875 116.292969 L 175.164062 113.269531 L 176.121094 113.085938 C 176.128906 113.085938 176.140625 113.085938 176.148438 113.078125 L 177.425781 112.917969 C 177.429688 112.917969 177.4375 112.917969 177.445312 112.917969 L 179.042969 112.78125 C 179.046875 112.78125 179.046875 112.78125 179.054688 112.78125 L 180.914062 112.667969 C 180.921875 112.667969 180.921875 112.667969 180.925781 112.667969 L 182.992188 112.585938 L 183 112.585938 L 185.207031 112.53125 L 185.21875 112.53125 L 187.488281 112.503906 L 187.496094 112.503906 L 189.78125 112.53125 C 189.789062 112.53125 189.789062 112.53125 189.796875 112.53125 L 191.996094 112.585938 L 192.003906 112.585938 L 194.074219 112.667969 C 194.082031 112.667969 194.082031 112.667969 194.085938 112.667969 L 195.941406 112.78125 C 195.949219 112.78125 195.949219 112.78125 195.953125 112.78125 L 197.539062 112.917969 C 197.550781 112.917969 197.566406 112.917969 197.578125 112.925781 L 198.839844 113.085938 C 198.847656 113.085938 198.851562 113.085938 198.867188 113.089844 L 199.800781 113.269531 L 201.785156 113.808594 L 211.808594 116.296875 L 212.839844 116.652344 L 224.632812 122.03125 C 224.640625 122.03125 224.648438 122.035156 224.648438 122.035156 C 224.667969 122.042969 224.6875 122.054688 224.699219 122.070312 L 235.367188 129.453125 C 235.386719 129.464844 235.40625 129.484375 235.425781 129.496094 L 244.667969 138.671875 C 244.6875 138.695312 244.707031 138.714844 244.722656 138.738281 L 252.246094 149.449219 C 252.246094 149.453125 252.253906 149.453125 252.253906 149.460938 C 252.265625 149.480469 252.273438 149.5 252.289062 149.519531 L 257.847656 161.410156 C 257.859375 161.4375 257.867188 161.464844 257.882812 161.496094 L 261.292969 174.207031 C 261.300781 174.222656 261.300781 174.242188 261.304688 174.253906 C 261.304688 174.261719 261.304688 174.269531 261.304688 174.273438 L 261.324219 174.445312 C 261.324219 174.457031 261.332031 174.476562 261.332031 174.492188 L 262.460938 187.46875 C 262.460938 187.492188 262.460938 187.511719 262.460938 187.53125 L 261.339844 200.449219 C 261.339844 200.460938 261.339844 200.46875 261.332031 200.480469 C 261.332031 200.488281 261.332031 200.496094 261.332031 200.496094 L 261.3125 200.648438 C 261.3125 200.652344 261.3125 200.667969 261.304688 200.671875 C 261.304688 200.6875 261.300781 200.707031 261.300781 200.71875 L 257.894531 213.429688 C 257.886719 213.457031 257.875 213.492188 257.859375 213.515625 L 252.308594 225.421875 C 252.292969 225.449219 252.28125 225.46875 252.265625 225.492188 L 244.746094 236.207031 C 244.734375 236.226562 244.714844 236.253906 244.695312 236.265625 L 235.460938 245.449219 C 235.441406 245.46875 235.414062 245.488281 235.386719 245.507812 L 224.730469 252.890625 C 224.710938 252.902344 224.6875 252.917969 224.667969 252.929688 L 212.914062 258.300781 L 211.84375 258.667969 C 211.835938 258.667969 211.820312 258.675781 211.816406 258.675781 L 208.601562 259.492188 L 201.777344 261.179688 L 199.839844 261.707031 L 198.878906 261.890625 C 198.871094 261.890625 198.867188 261.890625 198.859375 261.890625 C 198.851562 261.890625 198.847656 261.890625 198.847656 261.890625 L 197.578125 262.046875 C 197.566406 262.046875 197.550781 262.046875 197.539062 262.054688 L 195.96875 262.191406 C 195.953125 262.191406 195.949219 262.191406 195.933594 262.191406 L 194.101562 262.304688 C 194.085938 262.304688 194.082031 262.304688 194.066406 262.304688 L 192.023438 262.390625 C 192.015625 262.390625 192.003906 262.390625 191.996094 262.390625 L 189.800781 262.441406 L 189.796875 262.441406 L 187.519531 262.476562 C 187.558594 262.496094 187.554688 262.496094 187.546875 262.496094 Z M 185.449219 261.625 L 187.140625 261.640625 L 187.140625 260.121094 L 183.976562 260.101562 Z M 187.96875 260.121094 L 187.96875 261.640625 L 189.65625 261.625 L 191.128906 260.09375 Z M 183.167969 261.582031 L 184.265625 261.605469 L 182.808594 260.089844 L 180.296875 260.035156 Z M 192.300781 260.082031 L 190.839844 261.601562 L 191.9375 261.574219 L 194.808594 260.023438 Z M 181.078125 261.496094 L 181.28125 261.5 L 178.476562 259.988281 L 176.984375 259.929688 Z M 196.636719 259.984375 L 193.824219 261.5 L 194.023438 261.496094 L 198.125 259.929688 Z M 174.15625 259.820312 L 175.144531 260.128906 L 174.375 259.832031 Z M 200.734375 259.820312 L 199.976562 260.109375 L 200.949219 259.804688 Z M 183.261719 259.261719 L 187.140625 259.285156 L 187.140625 255.402344 L 181.445312 255.363281 Z M 187.972656 255.402344 L 187.972656 259.285156 L 191.851562 259.253906 L 193.667969 255.363281 Z M 178.773438 259.160156 L 182.335938 259.242188 L 180.527344 255.355469 L 175.222656 255.242188 Z M 194.585938 255.347656 L 192.78125 259.234375 L 196.34375 259.15625 L 199.890625 255.238281 Z M 174.609375 259.003906 L 177.601562 259.121094 L 174.066406 255.222656 L 169.464844 255.058594 Z M 201.042969 255.210938 L 197.503906 259.117188 L 200.496094 258.996094 L 205.644531 255.039062 Z M 170.902344 258.792969 L 173.136719 258.925781 L 168.03125 255 L 164.382812 254.804688 Z M 207.078125 254.988281 L 201.96875 258.910156 L 204.195312 258.78125 L 210.71875 254.785156 Z M 167.753906 258.53125 L 169.0625 258.640625 L 162.632812 254.707031 L 160.148438 254.507812 Z M 212.480469 254.683594 L 206.050781 258.628906 L 207.359375 258.515625 L 214.964844 254.488281 Z M 165.25 258.226562 L 165.449219 258.253906 L 158.046875 254.335938 L 156.933594 254.210938 Z M 217.0625 254.316406 L 209.660156 258.234375 L 209.855469 258.207031 L 218.171875 254.1875 Z M 181.105469 254.535156 L 187.140625 254.574219 L 187.140625 248.386719 L 179.304688 248.34375 Z M 187.972656 248.386719 L 187.972656 254.574219 L 194.007812 254.527344 L 195.808594 248.335938 Z M 174.503906 254.402344 L 180.230469 254.519531 L 178.429688 248.335938 L 170.976562 248.199219 Z M 196.675781 248.328125 L 194.875 254.515625 L 200.601562 254.390625 L 204.132812 248.183594 Z M 168.386719 254.1875 L 173.53125 254.371094 L 170.007812 248.179688 L 163.277344 247.960938 Z M 205.105469 248.164062 L 201.582031 254.363281 L 206.722656 254.171875 L 211.828125 247.941406 Z M 162.9375 253.890625 L 167.253906 254.125 L 162.160156 247.921875 L 156.449219 247.640625 Z M 212.941406 247.902344 L 207.84375 254.113281 L 212.164062 253.875 L 218.644531 247.617188 Z M 158.335938 253.527344 L 161.640625 253.792969 L 155.195312 247.574219 L 150.742188 247.257812 Z M 219.921875 247.546875 L 213.472656 253.773438 L 216.773438 253.507812 L 224.371094 247.230469 Z M 154.699219 253.113281 L 156.816406 253.359375 L 149.296875 247.144531 L 146.300781 246.835938 Z M 225.804688 247.121094 L 218.285156 253.335938 L 220.398438 253.09375 L 228.792969 246.8125 Z M 152.144531 252.667969 L 152.886719 252.800781 L 144.675781 246.660156 L 143.335938 246.441406 Z M 230.425781 246.632812 L 222.214844 252.773438 L 222.949219 252.640625 L 231.753906 246.410156 Z M 179.09375 247.507812 L 187.140625 247.554688 L 187.140625 239.230469 L 177.449219 239.1875 Z M 187.972656 239.230469 L 187.972656 247.554688 L 196.027344 247.5 L 197.667969 239.171875 Z M 170.542969 247.355469 L 178.238281 247.5 L 176.597656 239.179688 L 167.328125 239.035156 Z M 198.511719 239.164062 L 196.867188 247.488281 L 204.566406 247.34375 L 207.78125 239.015625 Z M 162.621094 247.101562 L 169.640625 247.328125 L 166.425781 239.015625 L 157.96875 238.785156 Z M 208.679688 239 L 205.472656 247.316406 L 212.492188 247.085938 L 217.140625 238.765625 Z M 155.585938 246.757812 L 161.640625 247.054688 L 157 238.746094 L 149.699219 238.441406 Z M 218.105469 238.730469 L 213.464844 247.039062 L 219.511719 246.738281 L 225.402344 238.421875 Z M 149.671875 246.34375 L 154.515625 246.6875 L 148.640625 238.398438 L 142.769531 238.042969 Z M 226.46875 238.371094 L 220.589844 246.664062 L 225.433594 246.316406 L 232.332031 238.007812 Z M 145.042969 245.871094 L 148.496094 246.226562 L 141.632812 237.96875 L 137.417969 237.59375 Z M 233.472656 237.9375 L 226.613281 246.199219 L 230.054688 245.835938 L 237.6875 237.554688 Z M 141.824219 245.359375 L 143.714844 245.667969 L 136.164062 237.484375 L 133.765625 237.148438 Z M 238.929688 237.445312 L 231.382812 245.632812 L 233.269531 245.324219 L 241.324219 237.101562 Z M 140.09375 244.832031 L 140.167969 244.851562 L 132.390625 236.929688 L 132.042969 236.832031 Z M 242.695312 236.890625 L 234.925781 244.820312 L 234.992188 244.800781 L 243.039062 236.800781 Z M 177.304688 238.351562 L 187.140625 238.398438 L 187.140625 228.195312 L 175.925781 228.15625 Z M 187.972656 228.195312 L 187.972656 238.398438 L 197.808594 238.34375 L 199.1875 228.148438 Z M 167.039062 238.191406 L 176.464844 238.335938 L 175.078125 228.140625 L 164.332031 228.011719 Z M 200.03125 228.136719 L 198.648438 238.332031 L 208.074219 238.179688 L 210.777344 228.003906 Z M 157.539062 237.9375 L 166.175781 238.171875 L 163.476562 228.003906 L 153.636719 227.792969 Z M 211.636719 227.984375 L 208.9375 238.152344 L 217.566406 237.910156 L 221.472656 227.761719 Z M 149.125 237.589844 L 156.625 237.902344 L 152.726562 227.769531 L 144.183594 227.484375 Z M 222.378906 227.75 L 218.480469 237.882812 L 225.980469 237.570312 L 230.925781 227.464844 Z M 142.085938 237.167969 L 148.171875 237.535156 L 143.238281 227.457031 L 136.300781 227.128906 Z M 231.855469 227.425781 L 226.925781 237.507812 L 233.015625 237.132812 L 238.785156 227.089844 Z M 136.609375 236.6875 L 141.074219 237.082031 L 135.316406 227.070312 L 130.226562 226.714844 Z M 239.777344 227.039062 L 234.019531 237.050781 L 238.476562 236.648438 L 244.859375 226.675781 Z M 132.851562 236.167969 L 135.53125 236.542969 L 129.191406 226.628906 L 126.105469 226.289062 Z M 245.90625 226.597656 L 239.5625 236.511719 L 242.238281 236.136719 L 248.972656 226.257812 Z M 130.878906 235.648438 L 131.628906 235.859375 L 125.003906 226.15625 L 124.054688 225.945312 Z M 250.085938 226.105469 L 243.464844 235.8125 L 244.207031 235.609375 L 251.023438 225.894531 Z M 175.828125 227.320312 L 187.140625 227.359375 L 187.140625 215.648438 L 174.78125 215.613281 Z M 187.96875 215.648438 L 187.96875 227.359375 L 199.28125 227.308594 L 200.324219 215.605469 Z M 164.140625 227.183594 L 174.992188 227.3125 L 173.945312 215.613281 L 162.101562 215.515625 Z M 201.160156 215.605469 L 200.113281 227.308594 L 210.960938 227.167969 L 213 215.503906 Z M 153.339844 226.953125 L 163.292969 227.164062 L 161.246094 215.507812 L 150.386719 215.351562 Z M 213.851562 215.488281 L 211.816406 227.148438 L 221.761719 226.925781 L 224.707031 215.316406 Z M 143.808594 226.644531 L 152.472656 226.925781 L 149.519531 215.332031 L 140.074219 215.121094 Z M 225.566406 215.304688 L 222.621094 226.898438 L 231.285156 226.609375 L 235.007812 215.089844 Z M 135.863281 226.269531 L 142.925781 226.605469 L 139.207031 215.09375 L 131.515625 214.84375 Z M 235.894531 215.066406 L 232.171875 226.578125 L 239.234375 226.234375 L 243.578125 214.8125 Z M 129.714844 225.847656 L 134.949219 226.214844 L 130.609375 214.820312 L 124.921875 214.542969 Z M 244.484375 214.773438 L 240.152344 226.175781 L 245.378906 225.808594 L 250.171875 214.496094 Z M 125.535156 225.394531 L 128.777344 225.757812 L 123.988281 214.488281 L 120.46875 214.21875 Z M 251.089844 214.445312 L 246.320312 225.710938 L 249.550781 225.347656 L 254.613281 214.167969 Z M 123.386719 224.933594 L 124.527344 225.191406 L 119.507812 214.121094 L 118.230469 213.917969 Z M 255.566406 214.074219 L 250.558594 225.144531 L 251.695312 224.890625 L 256.835938 213.871094 Z M 174.714844 214.785156 L 187.132812 214.820312 L 187.132812 202.039062 L 174.066406 202.027344 Z M 187.96875 202.039062 L 187.96875 214.820312 L 200.382812 214.777344 L 201.027344 202.019531 Z M 161.976562 214.679688 L 173.886719 214.777344 L 173.230469 202.019531 L 160.703125 201.96875 Z M 201.863281 202.015625 L 201.21875 214.773438 L 213.128906 214.667969 L 214.398438 201.953125 Z M 150.21875 214.515625 L 161.140625 214.675781 L 159.867188 201.96875 L 148.375 201.882812 Z M 215.226562 201.949219 L 213.957031 214.652344 L 224.875 214.488281 L 226.703125 201.863281 Z M 139.851562 214.285156 L 149.371094 214.496094 L 147.535156 201.875 L 137.539062 201.765625 Z M 227.550781 201.847656 L 225.722656 214.46875 L 235.234375 214.253906 L 237.542969 201.738281 Z M 131.234375 214.011719 L 139.003906 214.265625 L 136.691406 201.765625 L 128.539062 201.632812 Z M 238.398438 201.722656 L 236.089844 214.226562 L 243.855469 213.96875 L 246.546875 201.585938 Z M 124.609375 213.695312 L 130.378906 213.96875 L 127.683594 201.605469 L 121.636719 201.460938 Z M 247.402344 201.566406 L 244.714844 213.929688 L 250.480469 213.648438 L 253.445312 201.414062 Z M 120.125 213.359375 L 123.734375 213.636719 L 120.769531 201.433594 L 116.988281 201.289062 Z M 254.304688 201.390625 L 251.347656 213.589844 L 254.949219 213.304688 L 258.078125 201.238281 Z M 117.855469 213.015625 L 119.230469 213.234375 L 116.109375 201.238281 L 114.664062 201.121094 Z M 258.960938 201.179688 L 255.84375 213.1875 L 257.210938 212.972656 L 260.410156 201 Z M 174.03125 201.191406 L 187.125 201.207031 L 187.121094 187.882812 L 173.800781 187.886719 Z M 187.960938 187.882812 L 187.96875 201.207031 L 201.0625 201.183594 L 201.277344 187.882812 Z M 160.644531 201.140625 L 173.203125 201.191406 L 172.980469 187.886719 L 160.207031 187.894531 Z M 202.105469 187.882812 L 201.890625 201.183594 L 214.445312 201.125 L 214.871094 187.882812 Z M 148.292969 201.054688 L 159.808594 201.140625 L 159.375 187.894531 L 147.667969 187.902344 Z M 215.707031 187.875 L 215.28125 201.121094 L 226.796875 201.027344 L 227.414062 187.875 Z M 137.425781 200.9375 L 147.457031 201.046875 L 146.832031 187.902344 L 136.636719 187.90625 Z M 228.25 187.875 L 227.628906 201.019531 L 237.65625 200.902344 L 238.4375 187.875 Z M 128.40625 200.792969 L 136.597656 200.921875 L 135.808594 187.90625 L 127.492188 187.914062 Z M 239.273438 187.875 L 238.488281 200.890625 L 246.671875 200.75 L 247.582031 187.875 Z M 121.484375 200.625 L 127.574219 200.769531 L 126.660156 187.914062 L 120.480469 187.921875 Z M 248.421875 187.875 L 247.515625 200.730469 L 253.59375 200.582031 L 254.59375 187.875 Z M 116.824219 200.449219 L 120.644531 200.601562 L 119.636719 187.921875 L 115.761719 187.925781 Z M 255.429688 187.875 L 254.429688 200.546875 L 258.242188 200.398438 L 259.300781 187.875 Z M 114.484375 200.273438 L 115.984375 200.398438 L 114.925781 187.925781 L 113.402344 187.933594 Z M 260.136719 187.875 L 259.082031 200.324219 L 260.582031 200.140625 L 261.648438 187.882812 Z M 114.484375 174.753906 L 113.402344 187.097656 L 114.925781 187.09375 L 115.976562 174.621094 Z M 116.820312 174.570312 L 115.761719 187.09375 L 119.636719 187.085938 L 120.636719 174.414062 Z M 121.472656 174.386719 L 120.472656 187.09375 L 126.652344 187.085938 L 127.558594 174.230469 Z M 128.394531 174.207031 L 127.488281 187.078125 L 135.800781 187.074219 L 136.578125 174.058594 Z M 137.417969 174.050781 L 136.636719 187.078125 L 146.832031 187.074219 L 147.449219 173.925781 Z M 148.285156 173.914062 L 147.667969 187.066406 L 159.375 187.058594 L 159.800781 173.820312 Z M 160.636719 173.8125 L 160.207031 187.058594 L 172.980469 187.054688 L 173.199219 173.75 Z M 174.027344 173.75 L 173.808594 187.054688 L 187.125 187.046875 L 187.121094 173.722656 Z M 187.953125 173.730469 L 187.960938 187.054688 L 201.277344 187.046875 L 201.054688 173.742188 Z M 260.136719 187.046875 L 261.648438 187.054688 L 260.570312 174.789062 L 259.078125 174.597656 Z M 201.882812 173.742188 L 202.105469 187.046875 L 214.871094 187.046875 L 214.433594 173.800781 Z M 255.429688 187.039062 L 259.300781 187.039062 L 258.234375 174.519531 L 254.421875 174.359375 Z M 215.273438 173.800781 L 215.707031 187.039062 L 227.414062 187.039062 L 226.78125 173.886719 Z M 248.421875 187.039062 L 254.59375 187.039062 L 253.582031 174.332031 L 247.5 174.183594 Z M 227.617188 173.894531 L 228.25 187.039062 L 238.4375 187.039062 L 237.648438 174.011719 Z M 239.273438 187.039062 L 247.585938 187.039062 L 246.667969 174.164062 L 238.484375 174.023438 Z M 258.945312 173.742188 L 260.40625 173.925781 L 257.191406 161.957031 L 255.824219 161.734375 Z M 117.84375 162.007812 L 114.664062 173.90625 L 116.109375 173.78125 L 119.21875 161.785156 Z M 120.105469 161.660156 L 116.976562 173.730469 L 120.757812 173.570312 L 123.714844 161.378906 Z M 254.296875 173.523438 L 258.070312 173.675781 L 254.929688 161.609375 L 251.328125 161.324219 Z M 124.589844 161.3125 L 121.625 173.546875 L 127.671875 173.386719 L 130.351562 161.03125 Z M 247.390625 173.347656 L 253.429688 173.5 L 250.453125 161.265625 L 244.6875 160.984375 Z M 131.214844 160.988281 L 128.527344 173.375 L 136.675781 173.230469 L 138.984375 160.71875 Z M 238.390625 173.191406 L 246.535156 173.328125 L 243.832031 160.945312 L 236.070312 160.6875 Z M 139.839844 160.699219 L 137.53125 173.214844 L 147.527344 173.089844 L 149.351562 160.46875 Z M 227.546875 173.066406 L 237.535156 173.183594 L 235.214844 160.667969 L 225.703125 160.449219 Z M 150.199219 160.457031 L 148.371094 173.085938 L 159.855469 172.992188 L 161.117188 160.285156 Z M 215.21875 172.964844 L 226.703125 173.050781 L 224.863281 160.425781 L 213.945312 160.261719 Z M 161.957031 160.273438 L 160.695312 172.980469 L 173.222656 172.921875 L 173.867188 160.167969 Z M 201.855469 172.914062 L 214.386719 172.964844 L 213.109375 160.261719 L 201.207031 160.160156 Z M 174.695312 160.160156 L 174.050781 172.921875 L 187.121094 172.894531 L 187.113281 160.121094 Z M 187.953125 172.894531 L 201.023438 172.90625 L 200.363281 160.148438 L 187.949219 160.117188 Z M 123.359375 150.089844 L 118.21875 161.101562 L 119.492188 160.898438 L 124.503906 149.828125 Z M 255.546875 160.851562 L 256.816406 161.054688 L 251.667969 150.046875 L 250.53125 149.78125 Z M 125.507812 149.625 L 120.453125 160.804688 L 123.976562 160.523438 L 128.75 149.257812 Z M 251.070312 160.476562 L 254.585938 160.753906 L 249.519531 149.578125 L 246.285156 149.210938 Z M 129.6875 149.15625 L 124.898438 160.464844 L 130.582031 160.179688 L 134.914062 148.785156 Z M 244.464844 160.140625 L 250.144531 160.425781 L 245.347656 149.117188 L 240.121094 148.742188 Z M 135.828125 148.722656 L 131.488281 160.148438 L 139.179688 159.886719 L 142.894531 148.375 Z M 235.875 159.847656 L 243.558594 160.101562 L 239.207031 148.683594 L 232.148438 148.34375 Z M 143.78125 148.335938 L 140.0625 159.859375 L 149.507812 159.636719 L 152.445312 148.039062 Z M 225.546875 159.609375 L 234.984375 159.828125 L 231.257812 148.304688 L 222.59375 148.015625 Z M 153.3125 148.015625 L 150.367188 159.617188 L 161.226562 159.445312 L 163.265625 147.789062 Z M 213.832031 159.433594 L 224.6875 159.597656 L 221.734375 147.996094 L 211.789062 147.777344 Z M 164.113281 147.777344 L 162.074219 159.4375 L 173.921875 159.332031 L 174.960938 147.640625 Z M 201.140625 159.320312 L 212.984375 159.417969 L 210.941406 147.765625 L 200.09375 147.632812 Z M 175.800781 147.625 L 174.761719 159.328125 L 187.121094 159.289062 L 187.113281 147.582031 Z M 187.949219 159.289062 L 200.304688 159.320312 L 199.253906 147.621094 L 187.941406 147.582031 Z M 130.847656 139.371094 L 124.03125 149.085938 L 124.976562 148.867188 L 131.589844 139.160156 Z M 250.058594 148.824219 L 251 149.039062 L 244.175781 139.335938 L 243.433594 139.128906 Z M 132.816406 138.839844 L 126.082031 148.71875 L 129.164062 148.371094 L 135.5 138.457031 Z M 245.871094 148.328125 L 248.949219 148.679688 L 242.203125 138.804688 L 239.527344 138.425781 Z M 136.578125 138.3125 L 130.203125 148.285156 L 135.289062 147.914062 L 141.042969 137.910156 Z M 239.75 147.882812 L 244.832031 148.246094 L 238.445312 138.28125 L 233.988281 137.878906 Z M 142.054688 137.824219 L 136.28125 147.871094 L 143.21875 147.527344 L 148.148438 137.449219 Z M 231.832031 147.496094 L 238.757812 147.832031 L 232.980469 137.792969 L 226.894531 137.417969 Z M 149.09375 137.390625 L 144.15625 147.488281 L 152.703125 147.199219 L 156.601562 137.070312 Z M 222.347656 147.179688 L 230.882812 147.460938 L 225.933594 137.367188 L 218.433594 137.050781 Z M 157.5 137.035156 L 153.601562 147.179688 L 163.441406 146.957031 L 166.136719 136.789062 Z M 211.613281 146.941406 L 221.445312 147.160156 L 217.535156 137.023438 L 208.902344 136.789062 Z M 167.003906 136.765625 L 164.308594 146.941406 L 175.058594 146.804688 L 176.429688 136.617188 Z M 199.996094 146.792969 L 210.742188 146.921875 L 208.035156 136.753906 L 198.609375 136.601562 Z M 177.273438 136.601562 L 175.898438 146.792969 L 187.113281 146.738281 L 187.105469 136.542969 Z M 187.941406 146.746094 L 199.15625 146.785156 L 197.769531 136.597656 L 187.933594 136.550781 Z M 140.054688 130.179688 L 132.015625 138.179688 L 132.359375 138.082031 L 140.121094 130.160156 Z M 242.664062 138.042969 L 243 138.132812 L 234.953125 130.148438 L 234.894531 130.128906 Z M 141.785156 129.65625 L 133.730469 137.871094 L 136.132812 137.53125 L 143.675781 129.347656 Z M 238.890625 137.492188 L 241.285156 137.832031 L 233.226562 129.621094 L 231.339844 129.3125 Z M 145.003906 129.128906 L 137.378906 137.40625 L 141.59375 137.023438 L 148.449219 128.769531 Z M 233.433594 136.992188 L 237.648438 137.371094 L 230.015625 129.101562 L 226.574219 128.742188 Z M 149.632812 128.648438 L 142.738281 136.953125 L 148.601562 136.589844 L 154.476562 128.292969 Z M 226.429688 136.558594 L 232.292969 136.917969 L 225.390625 128.625 L 220.550781 128.273438 Z M 155.546875 128.222656 L 149.660156 136.539062 L 156.960938 136.222656 L 161.601562 127.917969 Z M 218.074219 136.203125 L 225.375 136.511719 L 219.480469 128.203125 L 213.433594 127.898438 Z M 162.582031 127.875 L 157.933594 136.1875 L 166.394531 135.945312 L 169.59375 127.636719 Z M 208.648438 135.9375 L 217.101562 136.175781 L 212.445312 127.855469 L 205.425781 127.625 Z M 170.503906 127.609375 L 167.292969 135.933594 L 176.5625 135.78125 L 178.199219 127.464844 Z M 198.476562 135.773438 L 207.746094 135.917969 L 204.527344 127.605469 L 196.828125 127.460938 Z M 179.046875 127.453125 L 177.410156 135.773438 L 187.101562 135.722656 L 187.09375 127.40625 Z M 187.933594 135.714844 L 197.625 135.761719 L 195.972656 127.445312 L 187.929688 127.402344 Z M 152.097656 122.332031 L 143.300781 128.558594 L 144.636719 128.339844 L 152.832031 122.199219 Z M 230.378906 128.308594 L 231.707031 128.523438 L 222.90625 122.3125 L 222.175781 122.179688 Z M 154.65625 121.878906 L 146.261719 128.15625 L 149.25 127.839844 L 156.765625 121.628906 Z M 225.765625 127.820312 L 228.75 128.136719 L 220.347656 121.867188 L 218.238281 121.621094 Z M 158.289062 121.464844 L 150.695312 127.734375 L 155.148438 127.414062 L 161.589844 121.195312 Z M 219.882812 127.386719 L 224.324219 127.710938 L 216.726562 121.445312 L 213.425781 121.183594 Z M 162.890625 121.097656 L 156.410156 127.347656 L 162.121094 127.058594 L 167.210938 120.855469 Z M 212.898438 127.039062 L 218.605469 127.320312 L 212.117188 121.078125 L 207.800781 120.839844 Z M 168.339844 120.792969 L 163.234375 127.019531 L 169.964844 126.796875 L 173.480469 120.605469 Z M 205.058594 126.78125 L 211.789062 127.007812 L 206.675781 120.789062 L 201.535156 120.605469 Z M 174.460938 120.570312 L 170.9375 126.769531 L 178.398438 126.625 L 180.191406 120.445312 Z M 196.636719 126.617188 L 204.09375 126.757812 L 200.5625 120.558594 L 194.835938 120.441406 Z M 181.058594 120.433594 L 179.265625 126.617188 L 187.101562 126.566406 L 187.09375 120.386719 Z M 187.929688 126.566406 L 195.761719 126.613281 L 193.957031 120.425781 L 187.921875 120.386719 Z M 165.199219 116.765625 L 156.894531 120.78125 L 157.992188 120.65625 L 165.386719 116.738281 Z M 217.015625 120.636719 L 218.113281 120.761719 L 209.804688 116.75 L 209.613281 116.726562 Z M 167.703125 116.460938 L 160.105469 120.484375 L 162.582031 120.289062 L 169.003906 116.351562 Z M 212.433594 120.261719 L 214.910156 120.460938 L 207.304688 116.441406 L 206.003906 116.332031 Z M 170.859375 116.191406 L 164.34375 120.183594 L 167.984375 119.980469 L 173.085938 116.0625 Z M 207.03125 119.964844 L 210.671875 120.171875 L 204.152344 116.1875 L 201.921875 116.054688 Z M 174.566406 115.976562 L 169.425781 119.921875 L 174.019531 119.75 L 177.550781 115.859375 Z M 200.996094 119.742188 L 205.589844 119.90625 L 200.445312 115.964844 L 197.453125 115.84375 Z M 178.71875 115.8125 L 175.175781 119.722656 L 180.480469 119.609375 L 182.289062 115.734375 Z M 194.539062 119.605469 L 199.84375 119.714844 L 196.289062 115.804688 L 192.726562 115.726562 Z M 183.207031 115.714844 L 181.402344 119.597656 L 187.09375 119.558594 L 187.085938 115.6875 Z M 187.929688 119.558594 L 193.621094 119.597656 L 191.804688 115.714844 L 187.929688 115.6875 Z M 175.03125 114.878906 L 174.125 115.160156 L 174.320312 115.148438 Z M 200.679688 115.140625 L 200.878906 115.15625 L 199.984375 114.878906 Z M 181.027344 113.492188 L 176.9375 115.050781 L 178.457031 114.96875 L 181.21875 113.484375 Z M 196.59375 114.984375 L 198.070312 115.042969 L 193.980469 113.484375 L 193.792969 113.476562 Z M 183.117188 113.40625 L 180.257812 114.945312 L 182.761719 114.886719 L 184.214844 113.375 Z M 192.246094 114.886719 L 194.75 114.9375 L 191.886719 113.398438 L 190.789062 113.375 Z M 185.398438 113.355469 L 183.933594 114.878906 L 187.085938 114.851562 L 187.085938 113.339844 Z M 187.921875 114.851562 L 191.078125 114.871094 L 189.605469 113.355469 L 187.914062 113.339844 Z M 187.921875 114.851562 " fill-opacity="1" fill-rule="nonzero"/></g><g clip-path="url(#108b87b970)"><path fill="#41c1ba" d="M 255.167969 138.792969 L 255.167969 138.6875 C 267.675781 138.6875 268.585938 137.644531 268.585938 131.792969 L 268.792969 131.792969 C 268.792969 137.644531 269.703125 138.6875 282.210938 138.6875 L 282.210938 138.792969 C 269.703125 138.792969 268.792969 139.835938 268.792969 145.6875 L 268.585938 145.6875 C 268.585938 139.835938 267.675781 138.792969 255.167969 138.792969 " fill-opacity="1" fill-rule="evenodd"/></g><g clip-path="url(#9e224be049)"><path fill="#41c1ba" d="M 90.632812 235.367188 L 90.632812 235.246094 C 104.882812 235.246094 105.917969 234.058594 105.917969 227.390625 L 106.152344 227.390625 C 106.152344 234.058594 107.191406 235.246094 121.4375 235.246094 L 121.4375 235.367188 C 107.191406 235.367188 106.152344 236.554688 106.152344 243.21875 L 105.917969 243.21875 C 105.917969 236.554688 104.882812 235.367188 90.632812 235.367188 " fill-opacity="1" fill-rule="evenodd"/></g><g clip-path="url(#04d51c39b5)"><g clip-path="url(#c3152153d6)"><g clip-path="url(#ca91b37625)"><path fill="#41c1ba" d="M 278.234375 269.769531 C 277.21875 269.582031 277.222656 266.929688 277.378906 263.789062 C 275.398438 266.230469 273.628906 268.203125 272.746094 267.667969 C 271.796875 267.082031 272.992188 264.238281 274.417969 261.070312 C 271.335938 262.664062 268.558594 264.011719 267.921875 263.09375 C 267.339844 262.246094 269.21875 260.371094 271.546875 258.261719 C 268.421875 258.585938 265.769531 258.730469 265.53125 257.730469 C 265.269531 256.644531 268.128906 255.476562 271.375 254.25 C 268.066406 253.195312 265.148438 252.183594 265.351562 251.085938 C 265.535156 250.070312 268.191406 250.074219 271.332031 250.230469 C 268.890625 248.25 266.914062 246.476562 267.449219 245.597656 C 268.035156 244.648438 270.882812 245.84375 274.046875 247.269531 C 272.453125 244.1875 271.105469 241.40625 272.023438 240.773438 C 272.871094 240.191406 274.746094 242.066406 276.859375 244.398438 C 276.53125 241.273438 276.386719 238.621094 277.390625 238.378906 C 278.488281 238.117188 279.667969 241.042969 280.914062 244.335938 C 281.871094 240.96875 282.792969 237.972656 284.03125 238.203125 C 285.191406 238.414062 285.089844 241.144531 284.828125 244.335938 C 286.769531 241.789062 288.519531 239.6875 289.519531 240.300781 C 290.609375 240.972656 289.246094 243.875 287.6875 247.070312 C 290.792969 245.339844 293.617188 243.824219 294.34375 244.875 C 295.011719 245.84375 293.011719 247.703125 290.570312 249.777344 C 293.742188 249.34375 296.464844 249.097656 296.738281 250.238281 C 297.039062 251.484375 294.019531 252.574219 290.660156 253.730469 C 294.074219 254.703125 297.148438 255.628906 296.917969 256.882812 C 296.703125 258.042969 293.972656 257.941406 290.78125 257.679688 C 293.332031 259.621094 295.429688 261.371094 294.816406 262.371094 C 294.148438 263.460938 291.242188 262.097656 288.050781 260.539062 C 289.777344 263.640625 291.296875 266.46875 290.242188 267.195312 C 289.273438 267.863281 287.417969 265.863281 285.34375 263.417969 C 285.773438 266.59375 286.023438 269.3125 284.878906 269.589844 C 283.648438 269.886719 282.574219 266.941406 281.433594 263.632812 C 280.363281 266.984375 279.34375 269.972656 278.234375 269.769531 " fill-opacity="1" fill-rule="evenodd"/></g></g></g><g clip-path="url(#0242a99c9d)"><g clip-path="url(#87dd7ae48c)"><g clip-path="url(#f307f487ec)"><path fill="#f2f1ec" d="M 284.628906 249.757812 C 283.917969 249.628906 283.140625 250.628906 282.890625 251.996094 C 282.640625 253.359375 283.007812 254.574219 283.71875 254.703125 C 284.425781 254.832031 285.203125 253.832031 285.453125 252.464844 C 285.703125 251.101562 285.335938 249.886719 284.628906 249.757812 " fill-opacity="1" fill-rule="evenodd"/></g></g></g><g clip-path="url(#7f8e607ebb)"><g clip-path="url(#e2b93f204b)"><g clip-path="url(#bfce9ef30b)"><path fill="#f2f1ec" d="M 279.578125 248.832031 C 278.871094 248.699219 278.09375 249.703125 277.84375 251.066406 C 277.59375 252.433594 277.960938 253.644531 278.671875 253.777344 C 279.378906 253.90625 280.15625 252.90625 280.410156 251.539062 C 280.660156 250.171875 280.289062 248.960938 279.578125 248.832031 " fill-opacity="1" fill-rule="evenodd"/></g></g></g><g clip-path="url(#e82b09b7a2)"><g clip-path="url(#3db72b5e75)"><g clip-path="url(#3d8df902d7)"><path fill="#f2f1ec" d="M 274.707031 254.316406 C 274.789062 255.753906 275.355469 257.09375 276.265625 258.152344 C 277.191406 259.226562 278.476562 260 279.976562 260.273438 C 281.480469 260.550781 282.957031 260.285156 284.203125 259.609375 C 285.429688 258.945312 286.4375 257.894531 287.027344 256.582031 C 287.136719 256.574219 287.242188 256.542969 287.339844 256.492188 C 287.488281 256.410156 287.609375 256.28125 287.671875 256.121094 C 287.722656 256.007812 287.667969 255.878906 287.554688 255.832031 C 287.445312 255.785156 287.3125 255.835938 287.269531 255.949219 C 287.242188 256.015625 287.191406 256.070312 287.128906 256.101562 C 287.070312 256.136719 287 256.148438 286.925781 256.132812 C 286.851562 256.121094 286.789062 256.085938 286.746094 256.03125 C 286.703125 255.980469 286.671875 255.910156 286.671875 255.839844 C 286.667969 255.71875 286.566406 255.621094 286.441406 255.628906 C 286.324219 255.628906 286.226562 255.734375 286.230469 255.855469 C 286.234375 256.03125 286.304688 256.191406 286.414062 256.320312 C 286.464844 256.378906 286.523438 256.429688 286.589844 256.472656 C 286.039062 257.660156 285.117188 258.617188 283.996094 259.222656 C 282.835938 259.851562 281.457031 260.097656 280.058594 259.839844 C 278.660156 259.585938 277.460938 258.863281 276.597656 257.863281 C 275.765625 256.898438 275.246094 255.679688 275.148438 254.371094 C 275.226562 254.355469 275.300781 254.328125 275.371094 254.292969 C 275.519531 254.210938 275.640625 254.085938 275.707031 253.921875 C 275.753906 253.808594 275.699219 253.679688 275.589844 253.632812 C 275.476562 253.585938 275.347656 253.640625 275.300781 253.753906 C 275.273438 253.816406 275.222656 253.871094 275.160156 253.902344 C 275.101562 253.9375 275.03125 253.949219 274.957031 253.9375 C 274.882812 253.921875 274.824219 253.882812 274.777344 253.832031 C 274.734375 253.78125 274.707031 253.714844 274.703125 253.644531 C 274.699219 253.519531 274.597656 253.425781 274.476562 253.429688 C 274.355469 253.433594 274.257812 253.535156 274.261719 253.65625 C 274.265625 253.832031 274.335938 253.992188 274.445312 254.121094 C 274.515625 254.203125 274.601562 254.269531 274.707031 254.316406 " fill-opacity="1" fill-rule="nonzero"/></g></g></g><g clip-path="url(#7a59463459)"><g clip-path="url(#e868fdd556)"><g clip-path="url(#9197c997b5)"><path fill="#41c1ba" d="M 284.210938 250.265625 C 284.039062 250.234375 283.851562 250.480469 283.789062 250.8125 C 283.726562 251.148438 283.816406 251.445312 283.988281 251.476562 C 284.164062 251.507812 284.355469 251.265625 284.417969 250.929688 C 284.476562 250.59375 284.386719 250.296875 284.210938 250.265625 " fill-opacity="1" fill-rule="evenodd"/></g></g></g><g clip-path="url(#ec876eeeb8)"><g clip-path="url(#a6ff926ad7)"><g clip-path="url(#74eb1b6784)"><path fill="#41c1ba" d="M 279.085938 249.324219 C 278.910156 249.292969 278.722656 249.535156 278.660156 249.871094 C 278.597656 250.207031 278.6875 250.503906 278.863281 250.535156 C 279.035156 250.566406 279.226562 250.320312 279.289062 249.988281 C 279.351562 249.652344 279.257812 249.355469 279.085938 249.324219 " fill-opacity="1" fill-rule="evenodd"/></g></g></g><g clip-path="url(#98ea1f776d)"><path fill="#41c1ba" d="M 187.457031 214.246094 C 189.558594 210.324219 191.664062 208.363281 195.875 208.363281 C 200.523438 208.363281 204.296875 211.878906 204.296875 216.207031 C 204.296875 224.046875 195.875 231.886719 187.457031 239.726562 C 179.035156 231.886719 170.613281 224.046875 170.613281 216.207031 C 170.613281 211.878906 174.386719 208.363281 179.035156 208.363281 C 183.246094 208.363281 185.351562 210.324219 187.457031 214.246094 " fill-opacity="1" fill-rule="nonzero"/></g><path fill="#f2f1ec" d="M 195.332031 222.921875 L 195.242188 222.921875 C 195.242188 217.433594 194.351562 217.035156 189.355469 217.035156 L 189.355469 216.941406 C 194.351562 216.941406 195.242188 216.542969 195.242188 211.058594 L 195.332031 211.058594 C 195.332031 216.542969 196.222656 216.941406 201.214844 216.941406 L 201.214844 217.035156 C 196.222656 217.035156 195.332031 217.433594 195.332031 222.921875 " fill-opacity="1" fill-rule="evenodd"/><path stroke-linecap="butt" transform="matrix(0.74539, -0.0830277, 0.0830277, 0.74539, 131.832725, 163.781209)" fill="none" stroke-linejoin="miter" d="M 23.452298 11.416482 C 23.710102 10.936865 24.140417 10.602237 24.742664 10.417775 C 25.346065 10.222959 26.105883 10.129415 27.018094 10.126214 C 27.940082 10.129342 28.669943 10.21064 29.212854 10.370685 C 29.756342 10.525553 30.164656 10.717769 30.443549 10.942735 C 30.733948 11.158501 30.955876 11.471451 31.119685 11.882739 C 31.274256 12.42401 31.349951 13.249967 31.352524 14.356009 L 31.351623 40.757774 C 31.353146 41.49686 31.328839 42.04441 31.282725 42.411352 C 31.237188 42.773118 31.085806 43.191221 30.828577 43.665661 C 30.387191 44.52311 29.155072 44.951846 27.121867 44.950714 C 24.899431 44.954706 23.602597 44.364808 23.219859 43.190218 C 23.027901 42.655262 22.9315 41.827 22.929504 40.715782 L 22.930421 31.0628 L 10.327423 31.058199 L 10.326492 40.758344 C 10.328016 41.497431 10.303709 42.04498 10.257595 42.411923 C 10.212058 42.773688 10.060675 43.191791 9.803447 43.666231 C 9.356885 44.523104 8.113837 44.955862 6.085808 44.955307 C 3.874301 44.955277 2.572291 44.364802 2.184377 43.189635 C 1.997594 42.655256 1.90637 41.82757 1.90495 40.711176 L 1.905852 14.30941 C 1.903176 13.580676 1.926906 13.038303 1.973019 12.671361 C 2.018557 12.309595 2.170516 11.886316 2.428321 11.406699 C 2.86913 10.554427 4.106425 10.126268 6.134455 10.126823 C 8.356314 10.128007 9.67443 10.715035 10.084202 11.882156 C 10.243949 12.424004 10.324821 13.250537 10.327394 14.356579 L 10.325311 24.067077 L 22.928886 24.066501 L 22.930982 14.30884 C 22.928306 13.580106 22.952036 13.037733 22.99815 12.670791 C 23.054039 12.310178 23.205422 11.892075 23.452298 11.416482 Z M 23.452298 11.416482 " stroke="#f2f1ec" stroke-width="7.13769" stroke-opacity="1" stroke-miterlimit="4"/><path stroke-linecap="butt" transform="matrix(0.749411, -0.0297215, 0.0297215, 0.749411, 158.15182, 160.862274)" fill="none" stroke-linejoin="miter" d="M 22.023778 12.602767 L 34.872733 39.143221 C 35.413709 40.222799 35.683976 41.03102 35.683328 41.573086 C 35.684758 42.719877 34.762929 43.751865 32.918048 44.663847 C 31.843674 45.205029 30.99382 45.473645 30.378687 45.475311 C 29.75835 45.476771 29.248084 45.331435 28.852886 45.044715 C 28.457687 44.757996 28.172398 44.459998 27.997429 44.140313 C 27.82246 43.820628 27.580618 43.34713 27.261905 42.708999 L 24.791511 37.575818 L 11.603931 37.579255 L 9.127863 42.70912 C 8.810625 43.348092 8.563063 43.807393 8.384969 44.092225 C 8.217077 44.382675 7.934485 44.673788 7.53678 44.975974 C 7.14428 45.278365 6.637862 45.430291 6.017525 45.431751 C 5.397395 45.428006 4.547983 45.159759 3.474906 44.616808 C 1.628166 43.73564 0.709389 42.719265 0.707959 41.572474 C 0.708607 41.030407 0.980407 40.222836 1.523565 39.144555 L 14.368632 12.554574 C 14.715812 11.817754 15.24977 11.234289 15.960717 10.788154 C 16.671457 10.347223 17.430775 10.127141 18.228263 10.127494 C 19.937938 10.127538 21.20304 10.954364 22.023778 12.602767 Z M 18.177609 24.021819 L 15.031506 30.537679 L 21.364568 30.538651 Z M 18.177609 24.021819 " stroke="#f2f1ec" stroke-width="7.13769" stroke-opacity="1" stroke-miterlimit="4"/><path stroke-linecap="butt" transform="matrix(0.749401, 0.029977, -0.029977, 0.749401, 187.147931, 159.705897)" fill="none" stroke-linejoin="miter" d="M 38.973961 11.452903 C 39.222513 11.932935 39.364692 12.359885 39.411322 12.743745 C 39.468152 13.121984 39.495422 13.673418 39.493342 14.403251 L 39.497123 40.820045 C 39.495877 43.004132 38.890321 44.284567 37.680455 44.661351 C 37.078437 44.857445 36.31613 44.9557 35.393534 44.956118 C 34.481347 44.956119 33.753596 44.875768 33.210488 44.720268 C 32.667172 44.559563 32.25292 44.367634 31.967939 44.149684 C 31.687954 43.926321 31.466673 43.606785 31.303885 43.185872 C 31.152339 42.655047 31.072402 41.829457 31.074691 40.713891 L 31.073005 24.774136 C 30.273229 25.760015 29.116031 27.323142 27.586007 29.469345 C 26.07118 31.604514 25.108409 32.946151 24.697489 33.489051 C 24.286152 34.021542 23.998674 34.392704 23.835055 34.602537 C 23.681844 34.811953 23.291948 35.098599 22.675775 35.462059 C 22.054397 35.825727 21.389304 36.008707 20.675292 36.011206 C 19.966275 36.008293 19.313255 35.841552 18.726641 35.510567 C 18.134614 35.174587 17.715157 34.852553 17.457446 34.534474 L 17.076916 34.012809 C 16.450749 33.214281 15.199872 31.523343 13.324493 28.945199 C 11.448906 26.36185 10.434091 24.969007 10.280464 24.777077 L 10.280901 40.815919 C 10.27882 41.545752 10.253841 42.094064 10.200551 42.455858 C 10.152464 42.817444 10.007164 43.224619 9.758822 43.661977 C 9.277333 44.525663 8.038324 44.955737 6.041796 44.952201 C 4.102721 44.951579 2.90243 44.525254 2.430099 43.663236 C 2.172804 43.225253 2.020841 42.814332 1.974212 42.430472 C 1.92779 42.051817 1.904891 41.479358 1.905514 40.713096 L 1.907562 14.311706 C 1.904438 13.582081 1.929418 13.03377 1.9723 12.672392 C 2.020178 12.305602 2.170265 11.887811 2.427351 11.408402 C 2.900097 10.586767 4.134526 10.172513 6.131054 10.176049 C 6.990992 10.172926 7.730193 10.278882 8.353653 10.488505 C 8.971492 10.687928 9.376169 10.90109 9.562479 11.1282 L 9.849749 11.403396 L 20.654461 25.587041 C 26.04535 18.4492 29.641219 13.739211 31.447063 11.451663 C 31.986423 10.601301 33.267273 10.174765 35.279206 10.172473 C 37.291347 10.175385 38.522863 10.60046 38.973961 11.452903 Z M 38.973961 11.452903 " stroke="#f2f1ec" stroke-width="7.13769" stroke-opacity="1" stroke-miterlimit="4"/><path stroke-linecap="butt" transform="matrix(0.745161, 0.0850601, -0.0850601, 0.745161, 219.741026, 161.217587)" fill="none" stroke-linejoin="miter" d="M 25.267845 36.868513 C 26.505029 36.868827 27.397563 37.018568 27.95121 37.32232 C 28.503675 37.615723 28.883436 38.049409 29.085318 38.62397 C 29.29755 39.19735 29.402128 39.929799 29.398461 40.816142 C 29.399968 41.701894 29.318705 42.41362 29.155261 42.956492 C 29.002167 43.498184 28.813606 43.91287 28.589579 44.20055 C 28.369546 44.477291 28.041741 44.682459 27.600991 44.816645 C 27.087345 45.001089 26.280087 45.093238 25.174043 45.093681 L 5.379675 45.093838 C 4.650937 45.093149 3.953271 44.905438 3.286088 44.525529 C 1.884899 43.731402 1.186341 42.479635 1.184058 40.760468 C 1.184464 39.937403 1.376311 39.27596 1.763 38.760026 L 16.507129 18.351998 L 5.561709 18.353785 C 4.806506 18.350874 4.243359 18.331283 3.881436 18.28348 C 3.514338 18.236267 3.079685 18.102408 2.566538 17.877907 C 1.645509 17.432616 1.185272 16.248003 1.184053 14.308544 C 1.183142 12.279933 1.613691 11.046058 2.475108 10.601745 C 2.944261 10.348989 3.367124 10.195876 3.728764 10.149353 C 4.101345 10.106823 4.66435 10.079251 5.424728 10.081571 L 24.55881 10.083395 C 25.281783 10.0795 25.980039 10.272386 26.647222 10.652294 C 27.314405 11.032203 27.828402 11.539683 28.194386 12.174145 C 28.555196 12.809196 28.739758 13.553484 28.738312 14.413362 C 28.736275 15.268066 28.551376 15.944442 28.16868 16.449437 L 13.415382 36.868995 Z M 25.267845 36.868513 " stroke="#f2f1ec" stroke-width="7.13769" stroke-opacity="1" stroke-miterlimit="4"/><g fill="#365b6d" fill-opacity="1"><g transform="translate(135.568973, 197.323761)"><g><path d="M 14.6875 -26.984375 C 14.84375 -27.367188 15.132812 -27.65625 15.5625 -27.84375 C 16 -28.03125 16.5625 -28.160156 17.25 -28.234375 C 17.945312 -28.316406 18.5 -28.320312 18.90625 -28.25 C 19.3125 -28.175781 19.628906 -28.066406 19.859375 -27.921875 C 20.097656 -27.773438 20.296875 -27.554688 20.453125 -27.265625 C 20.609375 -26.878906 20.734375 -26.273438 20.828125 -25.453125 L 23.03125 -5.765625 C 23.082031 -5.222656 23.101562 -4.8125 23.09375 -4.53125 C 23.09375 -4.25 23.019531 -3.925781 22.875 -3.5625 C 22.613281 -2.875 21.726562 -2.445312 20.21875 -2.28125 C 18.5625 -2.09375 17.539062 -2.421875 17.15625 -3.265625 C 16.96875 -3.660156 16.828125 -4.273438 16.734375 -5.109375 L 15.9375 -12.296875 L 6.546875 -11.25 L 7.359375 -4.015625 C 7.410156 -3.472656 7.429688 -3.0625 7.421875 -2.78125 C 7.421875 -2.5 7.347656 -2.175781 7.203125 -1.8125 C 6.941406 -1.132812 6.050781 -0.707031 4.53125 -0.53125 C 2.875 -0.351562 1.851562 -0.6875 1.46875 -1.53125 C 1.28125 -1.914062 1.140625 -2.523438 1.046875 -3.359375 L -1.140625 -23.03125 C -1.203125 -23.582031 -1.226562 -23.992188 -1.21875 -24.265625 C -1.21875 -24.535156 -1.144531 -24.863281 -1 -25.25 C -0.726562 -25.914062 0.164062 -26.335938 1.6875 -26.515625 C 3.34375 -26.691406 4.367188 -26.363281 4.765625 -25.53125 C 4.929688 -25.132812 5.0625 -24.523438 5.15625 -23.703125 L 5.96875 -16.46875 L 15.359375 -17.515625 L 14.546875 -24.78125 C 14.484375 -25.332031 14.453125 -25.742188 14.453125 -26.015625 C 14.460938 -26.285156 14.539062 -26.609375 14.6875 -26.984375 Z M 14.6875 -26.984375 "/></g></g></g><g fill="#365b6d" fill-opacity="1"><g transform="translate(159.489288, 194.58576)"><g><path d="M 15.53125 -24.9375 L 25.96875 -5.421875 C 26.40625 -4.628906 26.632812 -4.03125 26.65625 -3.625 C 26.6875 -2.769531 26.023438 -1.972656 24.671875 -1.234375 C 23.878906 -0.796875 23.25 -0.566406 22.78125 -0.546875 C 22.320312 -0.523438 21.9375 -0.613281 21.625 -0.8125 C 21.320312 -1.019531 21.097656 -1.238281 20.953125 -1.46875 C 20.816406 -1.707031 20.625 -2.0625 20.375 -2.53125 L 18.359375 -6.296875 L 8.484375 -5.90625 L 6.796875 -1.984375 C 6.566406 -1.492188 6.390625 -1.140625 6.265625 -0.921875 C 6.148438 -0.703125 5.945312 -0.472656 5.65625 -0.234375 C 5.363281 0.00390625 4.984375 0.128906 4.515625 0.140625 C 4.054688 0.160156 3.414062 -0.015625 2.59375 -0.390625 C 1.1875 -0.992188 0.46875 -1.722656 0.4375 -2.578125 C 0.414062 -2.984375 0.59375 -3.601562 0.96875 -4.4375 L 9.796875 -24.75 C 10.035156 -25.300781 10.414062 -25.753906 10.9375 -26.109375 C 11.46875 -26.460938 12.03125 -26.65625 12.625 -26.6875 C 13.90625 -26.738281 14.875 -26.15625 15.53125 -24.9375 Z M 12.984375 -16.265625 L 10.828125 -11.28125 L 15.578125 -11.46875 Z M 12.984375 -16.265625 "/></g></g></g><g fill="#365b6d" fill-opacity="1"><g transform="translate(185.798967, 193.428925)"><g><path d="M 30.203125 -23.96875 C 30.378906 -23.613281 30.476562 -23.289062 30.5 -23 C 30.53125 -22.707031 30.535156 -22.289062 30.515625 -21.75 L 29.71875 -1.953125 C 29.65625 -0.304688 29.171875 0.632812 28.265625 0.875 C 27.804688 1.007812 27.226562 1.0625 26.53125 1.03125 C 25.84375 1 25.296875 0.914062 24.890625 0.78125 C 24.492188 0.644531 24.191406 0.488281 23.984375 0.3125 C 23.773438 0.144531 23.617188 -0.0976562 23.515625 -0.421875 C 23.410156 -0.828125 23.375 -1.445312 23.40625 -2.28125 L 23.890625 -14.21875 C 23.265625 -13.507812 22.347656 -12.375 21.140625 -10.8125 C 19.941406 -9.257812 19.179688 -8.285156 18.859375 -7.890625 C 18.535156 -7.503906 18.304688 -7.234375 18.171875 -7.078125 C 18.046875 -6.929688 17.742188 -6.726562 17.265625 -6.46875 C 16.796875 -6.21875 16.289062 -6.101562 15.75 -6.125 C 15.21875 -6.144531 14.734375 -6.289062 14.296875 -6.5625 C 13.867188 -6.832031 13.566406 -7.085938 13.390625 -7.328125 L 13.125 -7.734375 C 12.664062 -8.347656 11.773438 -9.648438 10.453125 -11.640625 C 9.140625 -13.628906 8.425781 -14.695312 8.3125 -14.84375 L 7.828125 -2.828125 C 7.804688 -2.273438 7.769531 -1.863281 7.71875 -1.59375 C 7.675781 -1.332031 7.554688 -1.035156 7.359375 -0.703125 C 6.972656 -0.078125 6.03125 0.207031 4.53125 0.15625 C 3.082031 0.09375 2.191406 -0.265625 1.859375 -0.921875 C 1.679688 -1.265625 1.578125 -1.578125 1.546875 -1.859375 C 1.523438 -2.148438 1.523438 -2.582031 1.546875 -3.15625 L 2.34375 -22.9375 C 2.363281 -23.488281 2.394531 -23.898438 2.4375 -24.171875 C 2.488281 -24.441406 2.613281 -24.753906 2.8125 -25.109375 C 3.207031 -25.710938 4.15625 -25.984375 5.65625 -25.921875 C 6.289062 -25.898438 6.835938 -25.800781 7.296875 -25.625 C 7.753906 -25.445312 8.050781 -25.273438 8.1875 -25.109375 L 8.390625 -24.890625 L 16.046875 -13.921875 C 20.316406 -19.117188 23.160156 -22.546875 24.578125 -24.203125 C 25.015625 -24.828125 25.988281 -25.109375 27.5 -25.046875 C 29.007812 -24.992188 29.910156 -24.632812 30.203125 -23.96875 Z M 30.203125 -23.96875 "/></g></g></g><g fill="#365b6d" fill-opacity="1"><g transform="translate(215.913321, 194.749823)"><g><path d="M 19.515625 -3.90625 C 20.441406 -3.800781 21.097656 -3.613281 21.484375 -3.34375 C 21.867188 -3.070312 22.113281 -2.710938 22.21875 -2.265625 C 22.332031 -1.828125 22.351562 -1.273438 22.28125 -0.609375 C 22.207031 0.046875 22.085938 0.566406 21.921875 0.953125 C 21.753906 1.347656 21.570312 1.640625 21.375 1.828125 C 21.1875 2.023438 20.921875 2.148438 20.578125 2.203125 C 20.179688 2.304688 19.566406 2.3125 18.734375 2.21875 L 3.984375 0.53125 C 3.453125 0.46875 2.957031 0.265625 2.5 -0.078125 C 1.519531 -0.785156 1.101562 -1.78125 1.25 -3.0625 C 1.320312 -3.675781 1.519531 -4.148438 1.84375 -4.484375 L 14.578125 -18.453125 L 6.40625 -19.390625 C 5.84375 -19.453125 5.425781 -19.515625 5.15625 -19.578125 C 4.894531 -19.648438 4.582031 -19.789062 4.21875 -20 C 3.570312 -20.40625 3.332031 -21.328125 3.5 -22.765625 C 3.675781 -24.285156 4.097656 -25.171875 4.765625 -25.421875 C 5.140625 -25.578125 5.46875 -25.65625 5.75 -25.65625 C 6.03125 -25.65625 6.445312 -25.625 7 -25.5625 L 21.265625 -23.921875 C 21.804688 -23.859375 22.304688 -23.660156 22.765625 -23.328125 C 23.234375 -23.003906 23.578125 -22.585938 23.796875 -22.078125 C 24.023438 -21.566406 24.101562 -20.992188 24.03125 -20.359375 C 23.957031 -19.722656 23.75 -19.226562 23.40625 -18.875 L 10.6875 -4.921875 Z M 19.515625 -3.90625 "/></g></g></g><g fill="#365b6d" fill-opacity="1"><g transform="translate(113.644333, 178.040445)"><g><path d="M 1.265625 -2.90625 C 1.160156 -2.644531 0.976562 -2.460938 0.71875 -2.359375 C 0.46875 -2.253906 0.210938 -2.253906 -0.046875 -2.359375 L -12.5 -7.203125 C -12.875 -7.347656 -13.144531 -7.601562 -13.3125 -7.96875 C -13.476562 -8.332031 -13.488281 -8.703125 -13.34375 -9.078125 L -13.078125 -9.765625 C -12.960938 -10.046875 -12.773438 -10.269531 -12.515625 -10.4375 C -12.265625 -10.601562 -11.992188 -10.691406 -11.703125 -10.703125 L 1.9375 -10.84375 L -8.015625 -20.171875 C -8.222656 -20.378906 -8.363281 -20.628906 -8.4375 -20.921875 C -8.519531 -21.210938 -8.507812 -21.5 -8.40625 -21.78125 L -8.140625 -22.46875 C -7.984375 -22.84375 -7.71875 -23.109375 -7.34375 -23.265625 C -6.976562 -23.421875 -6.609375 -23.425781 -6.234375 -23.28125 L 6.21875 -18.4375 C 6.476562 -18.332031 6.664062 -18.15625 6.78125 -17.90625 C 6.894531 -17.65625 6.898438 -17.398438 6.796875 -17.140625 C 6.691406 -16.867188 6.507812 -16.675781 6.25 -16.5625 C 6 -16.445312 5.742188 -16.441406 5.484375 -16.546875 L -6.375 -21.15625 L 3.671875 -11.703125 C 3.890625 -11.484375 4.03125 -11.222656 4.09375 -10.921875 C 4.164062 -10.617188 4.144531 -10.320312 4.03125 -10.03125 C 3.914062 -9.738281 3.726562 -9.5 3.46875 -9.3125 C 3.21875 -9.125 2.941406 -9.03125 2.640625 -9.03125 L -11.15625 -8.859375 L 0.703125 -4.25 C 0.960938 -4.144531 1.144531 -3.960938 1.25 -3.703125 C 1.363281 -3.441406 1.367188 -3.175781 1.265625 -2.90625 Z M 1.265625 -2.90625 "/></g></g></g><g fill="#365b6d" fill-opacity="1"><g transform="translate(121.348419, 159.179697)"><g><path d="M 2.75 -3.78125 C 2.382812 -3.226562 1.9375 -2.789062 1.40625 -2.46875 C 0.882812 -2.15625 0.316406 -2 -0.296875 -2 C -0.910156 -2.007812 -1.492188 -2.195312 -2.046875 -2.5625 C -2.972656 -3.175781 -3.472656 -4.023438 -3.546875 -5.109375 C -3.617188 -6.203125 -3.195312 -7.457031 -2.28125 -8.875 L -0.78125 -11.140625 L -0.9375 -11.234375 C -1.75 -11.773438 -2.472656 -11.957031 -3.109375 -11.78125 C -3.742188 -11.601562 -4.34375 -11.085938 -4.90625 -10.234375 C -5.21875 -9.753906 -5.453125 -9.304688 -5.609375 -8.890625 C -5.773438 -8.484375 -5.929688 -8.003906 -6.078125 -7.453125 C -6.117188 -7.335938 -6.160156 -7.253906 -6.203125 -7.203125 C -6.328125 -7.003906 -6.5 -6.878906 -6.71875 -6.828125 C -6.945312 -6.785156 -7.164062 -6.832031 -7.375 -6.96875 C -7.707031 -7.1875 -7.835938 -7.5 -7.765625 -7.90625 C -7.515625 -9.269531 -7.03125 -10.503906 -6.3125 -11.609375 C -5.75 -12.460938 -5.097656 -13.070312 -4.359375 -13.4375 C -3.628906 -13.800781 -2.890625 -13.941406 -2.140625 -13.859375 C -1.398438 -13.773438 -0.707031 -13.519531 -0.0625 -13.09375 L 5.234375 -9.625 C 5.472656 -9.46875 5.613281 -9.25 5.65625 -8.96875 C 5.707031 -8.695312 5.660156 -8.445312 5.515625 -8.21875 C 5.359375 -7.976562 5.144531 -7.828125 4.875 -7.765625 C 4.613281 -7.710938 4.363281 -7.765625 4.125 -7.921875 L 3.640625 -8.25 C 3.972656 -6.695312 3.675781 -5.207031 2.75 -3.78125 Z M 1.671875 -5.40625 C 2.023438 -5.957031 2.234375 -6.578125 2.296875 -7.265625 C 2.359375 -7.953125 2.3125 -8.601562 2.15625 -9.21875 L 0.59375 -10.25 L -0.75 -8.203125 C -1.988281 -6.316406 -2.117188 -5.050781 -1.140625 -4.40625 C -0.679688 -4.101562 -0.21875 -4.015625 0.25 -4.140625 C 0.726562 -4.273438 1.203125 -4.695312 1.671875 -5.40625 Z M 1.671875 -5.40625 "/></g></g></g><g fill="#365b6d" fill-opacity="1"><g transform="translate(127.595843, 149.37612)"><g><path d="M 4.53125 -4.640625 C 3.90625 -3.953125 3.144531 -3.460938 2.25 -3.171875 C 1.351562 -2.878906 0.398438 -2.847656 -0.609375 -3.078125 C -1.628906 -3.304688 -2.582031 -3.832031 -3.46875 -4.65625 C -4.363281 -5.46875 -4.96875 -6.367188 -5.28125 -7.359375 C -5.59375 -8.347656 -5.644531 -9.300781 -5.4375 -10.21875 C -5.238281 -11.144531 -4.828125 -11.953125 -4.203125 -12.640625 C -3.203125 -13.722656 -1.921875 -14.285156 -0.359375 -14.328125 L -4.40625 -18.03125 C -4.613281 -18.226562 -4.722656 -18.460938 -4.734375 -18.734375 C -4.742188 -19.015625 -4.648438 -19.257812 -4.453125 -19.46875 C -4.265625 -19.675781 -4.03125 -19.78125 -3.75 -19.78125 C -3.476562 -19.789062 -3.238281 -19.703125 -3.03125 -19.515625 L 7.6875 -9.703125 C 7.894531 -9.503906 8.003906 -9.269531 8.015625 -9 C 8.023438 -8.726562 7.9375 -8.488281 7.75 -8.28125 C 7.550781 -8.070312 7.3125 -7.957031 7.03125 -7.9375 C 6.757812 -7.925781 6.519531 -8.019531 6.3125 -8.21875 L 5.875 -8.609375 C 5.976562 -7.046875 5.53125 -5.722656 4.53125 -4.640625 Z M 3.34375 -6.125 C 3.8125 -6.632812 4.132812 -7.210938 4.3125 -7.859375 C 4.5 -8.515625 4.5625 -9.1875 4.5 -9.875 L 1.03125 -13.0625 C 0.34375 -13.050781 -0.3125 -12.925781 -0.9375 -12.6875 C -1.570312 -12.457031 -2.125 -12.085938 -2.59375 -11.578125 C -3.332031 -10.765625 -3.671875 -9.875 -3.609375 -8.90625 C -3.554688 -7.9375 -3.054688 -7.019531 -2.109375 -6.15625 C -1.160156 -5.289062 -0.203125 -4.863281 0.765625 -4.875 C 1.742188 -4.894531 2.601562 -5.3125 3.34375 -6.125 Z M 3.34375 -6.125 "/></g></g></g><g fill="#365b6d" fill-opacity="1"><g transform="translate(136.470204, 139.664884)"><g><path d="M 5.546875 -4.078125 C 4.109375 -2.953125 2.664062 -2.476562 1.21875 -2.65625 C -0.21875 -2.84375 -1.515625 -3.675781 -2.671875 -5.15625 C -3.328125 -5.988281 -3.78125 -6.875 -4.03125 -7.8125 C -4.289062 -8.75 -4.269531 -9.6875 -3.96875 -10.625 C -3.675781 -11.5625 -3.066406 -12.394531 -2.140625 -13.125 C -1.265625 -13.800781 -0.351562 -14.1875 0.59375 -14.28125 C 1.539062 -14.375 2.441406 -14.210938 3.296875 -13.796875 C 4.160156 -13.378906 4.90625 -12.773438 5.53125 -11.984375 C 5.695312 -11.765625 5.769531 -11.515625 5.75 -11.234375 C 5.726562 -10.960938 5.59375 -10.734375 5.34375 -10.546875 L -0.625 -5.859375 C 0.125 -5.109375 0.9375 -4.707031 1.8125 -4.65625 C 2.6875 -4.601562 3.585938 -4.941406 4.515625 -5.671875 C 5.003906 -6.054688 5.394531 -6.4375 5.6875 -6.8125 C 5.988281 -7.195312 6.238281 -7.625 6.4375 -8.09375 C 6.5 -8.207031 6.585938 -8.3125 6.703125 -8.40625 C 6.890625 -8.550781 7.101562 -8.613281 7.34375 -8.59375 C 7.59375 -8.570312 7.796875 -8.460938 7.953125 -8.265625 C 8.160156 -8.003906 8.179688 -7.671875 8.015625 -7.265625 C 7.753906 -6.640625 7.453125 -6.085938 7.109375 -5.609375 C 6.773438 -5.140625 6.253906 -4.628906 5.546875 -4.078125 Z M 3.546875 -11.234375 C 3.066406 -11.773438 2.539062 -12.132812 1.96875 -12.3125 C 1.40625 -12.5 0.859375 -12.53125 0.328125 -12.40625 C -0.203125 -12.289062 -0.671875 -12.078125 -1.078125 -11.765625 C -1.472656 -11.453125 -1.789062 -11.050781 -2.03125 -10.5625 C -2.269531 -10.082031 -2.367188 -9.546875 -2.328125 -8.953125 C -2.285156 -8.359375 -2.0625 -7.757812 -1.65625 -7.15625 Z M 3.546875 -11.234375 "/></g></g></g><g fill="#365b6d" fill-opacity="1"><g transform="translate(145.985809, 132.386247)"><g/></g></g><g fill="#365b6d" fill-opacity="1"><g transform="translate(150.572797, 129.540484)"><g><path d="M -3.96875 -13.421875 C -4.25 -13.273438 -4.539062 -13.25 -4.84375 -13.34375 C -5.144531 -13.4375 -5.367188 -13.625 -5.515625 -13.90625 L -5.5625 -13.984375 C -5.707031 -14.265625 -5.734375 -14.554688 -5.640625 -14.859375 C -5.546875 -15.160156 -5.359375 -15.382812 -5.078125 -15.53125 L -4.96875 -15.59375 C -4.6875 -15.738281 -4.394531 -15.765625 -4.09375 -15.671875 C -3.789062 -15.578125 -3.566406 -15.390625 -3.421875 -15.109375 L -3.375 -15.03125 C -3.226562 -14.75 -3.203125 -14.457031 -3.296875 -14.15625 C -3.390625 -13.851562 -3.578125 -13.628906 -3.859375 -13.484375 Z M 2.515625 -1.203125 C 2.253906 -1.066406 1.992188 -1.039062 1.734375 -1.125 C 1.472656 -1.207031 1.273438 -1.367188 1.140625 -1.609375 L -3.328125 -10.125 C -3.453125 -10.375 -3.472656 -10.628906 -3.390625 -10.890625 C -3.316406 -11.148438 -3.148438 -11.347656 -2.890625 -11.484375 C -2.640625 -11.617188 -2.382812 -11.644531 -2.125 -11.5625 C -1.863281 -11.488281 -1.664062 -11.320312 -1.53125 -11.0625 L 2.9375 -2.546875 C 3.070312 -2.304688 3.09375 -2.050781 3 -1.78125 C 2.914062 -1.519531 2.753906 -1.328125 2.515625 -1.203125 Z M 2.515625 -1.203125 "/></g></g></g><g fill="#365b6d" fill-opacity="1"><g transform="translate(154.770095, 127.021779)"><g><path d="M 2.640625 -0.890625 C 2.367188 -0.785156 2.101562 -0.789062 1.84375 -0.90625 C 1.59375 -1.019531 1.421875 -1.207031 1.328125 -1.46875 L -2.125 -10.4375 C -2.226562 -10.695312 -2.222656 -10.953125 -2.109375 -11.203125 C -2.003906 -11.460938 -1.816406 -11.644531 -1.546875 -11.75 C -1.285156 -11.851562 -1.023438 -11.84375 -0.765625 -11.71875 C -0.503906 -11.601562 -0.320312 -11.414062 -0.21875 -11.15625 L 0.109375 -10.296875 C 0.410156 -11.085938 0.800781 -11.773438 1.28125 -12.359375 C 1.769531 -12.941406 2.429688 -13.394531 3.265625 -13.71875 C 4.035156 -14.007812 4.769531 -14.082031 5.46875 -13.9375 C 6.175781 -13.789062 6.796875 -13.460938 7.328125 -12.953125 C 7.867188 -12.441406 8.28125 -11.8125 8.5625 -11.0625 L 10.859375 -5.125 C 10.953125 -4.863281 10.941406 -4.601562 10.828125 -4.34375 C 10.710938 -4.09375 10.519531 -3.914062 10.25 -3.8125 C 9.988281 -3.71875 9.734375 -3.722656 9.484375 -3.828125 C 9.234375 -3.941406 9.0625 -4.128906 8.96875 -4.390625 L 6.75 -10.125 C 6.101562 -11.8125 5.007812 -12.363281 3.46875 -11.78125 C 2.78125 -11.507812 2.226562 -11.085938 1.8125 -10.515625 C 1.40625 -9.953125 1.070312 -9.269531 0.8125 -8.46875 L 3.234375 -2.1875 C 3.328125 -1.925781 3.316406 -1.671875 3.203125 -1.421875 C 3.085938 -1.171875 2.898438 -0.992188 2.640625 -0.890625 Z M 2.640625 -0.890625 "/></g></g></g><g fill="#365b6d" fill-opacity="1"><g transform="translate(166.882598, 122.566027)"><g/></g></g><g fill="#365b6d" fill-opacity="1"><g transform="translate(171.444166, 120.645018)"><g><path d="M 3.171875 -0.15625 C 2.890625 -0.125 2.644531 -0.195312 2.4375 -0.375 C 2.238281 -0.550781 2.125 -0.78125 2.09375 -1.0625 L 1.015625 -14.375 C 0.972656 -14.78125 1.078125 -15.140625 1.328125 -15.453125 C 1.585938 -15.773438 1.921875 -15.953125 2.328125 -15.984375 L 3.0625 -16.046875 C 3.363281 -16.066406 3.644531 -15.992188 3.90625 -15.828125 C 4.164062 -15.671875 4.367188 -15.46875 4.515625 -15.21875 L 10.609375 -3 L 14.640625 -16.046875 C 14.734375 -16.316406 14.890625 -16.550781 15.109375 -16.75 C 15.335938 -16.957031 15.601562 -17.070312 15.90625 -17.09375 L 16.640625 -17.15625 C 17.046875 -17.1875 17.398438 -17.066406 17.703125 -16.796875 C 18.003906 -16.535156 18.175781 -16.203125 18.21875 -15.796875 L 19.296875 -2.484375 C 19.328125 -2.203125 19.253906 -1.953125 19.078125 -1.734375 C 18.898438 -1.523438 18.671875 -1.410156 18.390625 -1.390625 C 18.109375 -1.367188 17.859375 -1.445312 17.640625 -1.625 C 17.421875 -1.800781 17.296875 -2.03125 17.265625 -2.3125 L 16.234375 -14.984375 L 12.125 -1.828125 C 12.03125 -1.535156 11.863281 -1.289062 11.625 -1.09375 C 11.382812 -0.90625 11.109375 -0.796875 10.796875 -0.765625 C 10.484375 -0.742188 10.1875 -0.804688 9.90625 -0.953125 C 9.625 -1.109375 9.414062 -1.320312 9.28125 -1.59375 L 3.078125 -13.90625 L 4.109375 -1.234375 C 4.140625 -0.953125 4.0625 -0.707031 3.875 -0.5 C 3.695312 -0.289062 3.460938 -0.175781 3.171875 -0.15625 Z M 3.171875 -0.15625 "/></g></g></g><g fill="#365b6d" fill-opacity="1"><g transform="translate(191.772685, 119.323928)"><g><path d="M 4.609375 0.8125 C 3.953125 0.726562 3.363281 0.515625 2.84375 0.171875 C 2.332031 -0.160156 1.941406 -0.601562 1.671875 -1.15625 C 1.410156 -1.707031 1.320312 -2.3125 1.40625 -2.96875 C 1.550781 -4.070312 2.09375 -4.894531 3.03125 -5.4375 C 3.976562 -5.976562 5.289062 -6.140625 6.96875 -5.921875 L 9.65625 -5.578125 L 9.6875 -5.75 C 9.8125 -6.726562 9.65625 -7.460938 9.21875 -7.953125 C 8.789062 -8.441406 8.070312 -8.75 7.0625 -8.875 C 6.488281 -8.945312 5.976562 -8.96875 5.53125 -8.9375 C 5.09375 -8.90625 4.597656 -8.835938 4.046875 -8.734375 C 3.929688 -8.710938 3.835938 -8.707031 3.765625 -8.71875 C 3.535156 -8.75 3.347656 -8.851562 3.203125 -9.03125 C 3.066406 -9.21875 3.015625 -9.429688 3.046875 -9.671875 C 3.085938 -10.066406 3.3125 -10.320312 3.71875 -10.4375 C 5.050781 -10.8125 6.367188 -10.921875 7.671875 -10.765625 C 8.679688 -10.628906 9.507812 -10.304688 10.15625 -9.796875 C 10.8125 -9.296875 11.265625 -8.695312 11.515625 -8 C 11.765625 -7.300781 11.835938 -6.566406 11.734375 -5.796875 L 10.9375 0.484375 C 10.90625 0.765625 10.773438 0.988281 10.546875 1.15625 C 10.328125 1.320312 10.078125 1.390625 9.796875 1.359375 C 9.515625 1.316406 9.289062 1.1875 9.125 0.96875 C 8.957031 0.757812 8.890625 0.515625 8.921875 0.234375 L 9 -0.34375 C 7.757812 0.632812 6.296875 1.019531 4.609375 0.8125 Z M 5.59375 -0.859375 C 6.25 -0.773438 6.894531 -0.851562 7.53125 -1.09375 C 8.175781 -1.34375 8.738281 -1.675781 9.21875 -2.09375 L 9.453125 -3.953125 L 7.03125 -4.265625 C 4.789062 -4.546875 3.597656 -4.101562 3.453125 -2.9375 C 3.390625 -2.40625 3.519531 -1.953125 3.84375 -1.578125 C 4.164062 -1.203125 4.75 -0.960938 5.59375 -0.859375 Z M 5.59375 -0.859375 "/></g></g></g><g fill="#365b6d" fill-opacity="1"><g transform="translate(203.468066, 120.888786)"><g><path d="M 2.65625 0.8125 C 2.375 0.738281 2.164062 0.582031 2.03125 0.34375 C 1.894531 0.113281 1.859375 -0.132812 1.921875 -0.40625 L 4.359375 -9.703125 C 4.421875 -9.972656 4.570312 -10.179688 4.8125 -10.328125 C 5.050781 -10.472656 5.3125 -10.507812 5.59375 -10.4375 C 5.863281 -10.363281 6.066406 -10.207031 6.203125 -9.96875 C 6.347656 -9.726562 6.390625 -9.472656 6.328125 -9.203125 L 6.078125 -8.265625 C 7.453125 -9.359375 8.765625 -9.742188 10.015625 -9.421875 L 10.125 -9.390625 C 10.40625 -9.316406 10.609375 -9.160156 10.734375 -8.921875 C 10.859375 -8.679688 10.890625 -8.425781 10.828125 -8.15625 C 10.753906 -7.882812 10.597656 -7.6875 10.359375 -7.5625 C 10.128906 -7.445312 9.875 -7.425781 9.59375 -7.5 L 9.46875 -7.53125 C 8.78125 -7.707031 8.101562 -7.695312 7.4375 -7.5 C 6.769531 -7.3125 6.160156 -6.976562 5.609375 -6.5 L 3.890625 0.09375 C 3.828125 0.363281 3.671875 0.566406 3.421875 0.703125 C 3.179688 0.847656 2.925781 0.882812 2.65625 0.8125 Z M 2.65625 0.8125 "/></g></g></g><g fill="#365b6d" fill-opacity="1"><g transform="translate(211.083197, 122.715092)"><g><path d="M 2.046875 6.5 C 1.804688 6.394531 1.632812 6.21875 1.53125 5.96875 C 1.4375 5.71875 1.4375 5.46875 1.53125 5.21875 C 1.582031 5.101562 1.644531 5 1.71875 4.90625 L 4.46875 1.96875 L 4.359375 -9.09375 C 4.359375 -9.257812 4.382812 -9.40625 4.4375 -9.53125 C 4.539062 -9.789062 4.71875 -9.976562 4.96875 -10.09375 C 5.226562 -10.207031 5.492188 -10.207031 5.765625 -10.09375 C 5.953125 -10.019531 6.101562 -9.894531 6.21875 -9.71875 C 6.34375 -9.550781 6.398438 -9.367188 6.390625 -9.171875 L 6.421875 0.046875 L 12.84375 -6.5625 C 13.1875 -6.894531 13.554688 -6.976562 13.953125 -6.8125 C 14.222656 -6.707031 14.410156 -6.523438 14.515625 -6.265625 C 14.628906 -6.015625 14.632812 -5.757812 14.53125 -5.5 C 14.476562 -5.375 14.398438 -5.265625 14.296875 -5.171875 L 3.203125 6.1875 C 2.816406 6.539062 2.429688 6.644531 2.046875 6.5 Z M 2.046875 6.5 "/></g></g></g><g fill="#365b6d" fill-opacity="1"><g transform="translate(221.582956, 127.063839)"><g><path d="M 2.40625 1.390625 C 2.15625 1.253906 1.988281 1.054688 1.90625 0.796875 C 1.820312 0.535156 1.847656 0.285156 1.984375 0.046875 L 8.78125 -12.796875 C 8.914062 -13.046875 9.113281 -13.210938 9.375 -13.296875 C 9.644531 -13.390625 9.90625 -13.367188 10.15625 -13.234375 C 10.414062 -13.085938 10.585938 -12.882812 10.671875 -12.625 C 10.753906 -12.363281 10.722656 -12.101562 10.578125 -11.84375 L 3.78125 1 C 3.644531 1.238281 3.441406 1.394531 3.171875 1.46875 C 2.910156 1.550781 2.65625 1.523438 2.40625 1.390625 Z M 2.40625 1.390625 "/></g></g></g><g fill="#365b6d" fill-opacity="1"><g transform="translate(226.037693, 129.168381)"><g><path d="M 3.734375 2.8125 C 3.191406 2.445312 2.765625 1.992188 2.453125 1.453125 C 2.148438 0.921875 2.007812 0.351562 2.03125 -0.25 C 2.050781 -0.863281 2.25 -1.445312 2.625 -2 C 3.238281 -2.914062 4.085938 -3.398438 5.171875 -3.453125 C 6.265625 -3.503906 7.503906 -3.054688 8.890625 -2.109375 L 11.140625 -0.578125 L 11.25 -0.734375 C 11.800781 -1.546875 12 -2.265625 11.84375 -2.890625 C 11.6875 -3.523438 11.1875 -4.128906 10.34375 -4.703125 C 9.863281 -5.023438 9.414062 -5.269531 9 -5.4375 C 8.59375 -5.613281 8.117188 -5.78125 7.578125 -5.9375 C 7.460938 -5.976562 7.375 -6.019531 7.3125 -6.0625 C 7.125 -6.195312 7.007812 -6.375 6.96875 -6.59375 C 6.925781 -6.820312 6.972656 -7.035156 7.109375 -7.234375 C 7.328125 -7.554688 7.644531 -7.679688 8.0625 -7.609375 C 9.40625 -7.347656 10.625 -6.847656 11.71875 -6.109375 C 12.5625 -5.535156 13.15625 -4.875 13.5 -4.125 C 13.851562 -3.375 13.984375 -2.628906 13.890625 -1.890625 C 13.796875 -1.148438 13.535156 -0.460938 13.109375 0.171875 L 9.53125 5.421875 C 9.375 5.648438 9.15625 5.785156 8.875 5.828125 C 8.59375 5.878906 8.335938 5.820312 8.109375 5.65625 C 7.878906 5.5 7.738281 5.285156 7.6875 5.015625 C 7.632812 4.742188 7.6875 4.492188 7.84375 4.265625 L 8.171875 3.765625 C 6.628906 4.097656 5.148438 3.78125 3.734375 2.8125 Z M 5.375 1.765625 C 5.914062 2.128906 6.523438 2.347656 7.203125 2.421875 C 7.890625 2.503906 8.546875 2.46875 9.171875 2.3125 L 10.234375 0.765625 L 8.203125 -0.609375 C 6.347656 -1.878906 5.085938 -2.03125 4.421875 -1.0625 C 4.117188 -0.613281 4.023438 -0.148438 4.140625 0.328125 C 4.253906 0.804688 4.664062 1.285156 5.375 1.765625 Z M 5.375 1.765625 "/></g></g></g><g fill="#365b6d" fill-opacity="1"><g transform="translate(235.722786, 135.624099)"><g><path d="M 1.9375 1.984375 C 1.726562 1.785156 1.617188 1.550781 1.609375 1.28125 C 1.609375 1.007812 1.703125 0.773438 1.890625 0.578125 L 8.5 -6.40625 C 8.6875 -6.613281 8.914062 -6.722656 9.1875 -6.734375 C 9.46875 -6.742188 9.710938 -6.648438 9.921875 -6.453125 C 10.128906 -6.253906 10.238281 -6.015625 10.25 -5.734375 C 10.257812 -5.460938 10.171875 -5.222656 9.984375 -5.015625 L 9.34375 -4.34375 C 10.175781 -4.40625 10.960938 -4.347656 11.703125 -4.171875 C 12.441406 -3.992188 13.140625 -3.597656 13.796875 -2.984375 C 14.390625 -2.410156 14.769531 -1.773438 14.9375 -1.078125 C 15.101562 -0.390625 15.070312 0.304688 14.84375 1.015625 C 14.613281 1.722656 14.222656 2.367188 13.671875 2.953125 L 9.296875 7.578125 C 9.109375 7.773438 8.875 7.875 8.59375 7.875 C 8.3125 7.882812 8.070312 7.789062 7.875 7.59375 C 7.664062 7.394531 7.554688 7.160156 7.546875 6.890625 C 7.546875 6.617188 7.640625 6.382812 7.828125 6.1875 L 12.046875 1.71875 C 13.296875 0.40625 13.320312 -0.816406 12.125 -1.953125 C 11.59375 -2.453125 10.976562 -2.765625 10.28125 -2.890625 C 9.59375 -3.023438 8.832031 -3.035156 8 -2.921875 L 3.375 1.96875 C 3.1875 2.164062 2.953125 2.265625 2.671875 2.265625 C 2.390625 2.273438 2.144531 2.179688 1.9375 1.984375 Z M 1.9375 1.984375 "/></g></g></g><g fill="#365b6d" fill-opacity="1"><g transform="translate(244.976086, 144.232651)"><g><path d="M 3.71875 5.3125 C 3.164062 4.570312 2.828125 3.726562 2.703125 2.78125 C 2.585938 1.84375 2.734375 0.898438 3.140625 -0.046875 C 3.546875 -1.003906 4.234375 -1.84375 5.203125 -2.5625 C 6.171875 -3.289062 7.171875 -3.71875 8.203125 -3.84375 C 9.234375 -3.976562 10.1875 -3.851562 11.0625 -3.46875 C 11.9375 -3.09375 12.648438 -2.535156 13.203125 -1.796875 C 14.085938 -0.617188 14.398438 0.738281 14.140625 2.28125 L 18.515625 -1.015625 C 18.753906 -1.191406 19.015625 -1.253906 19.296875 -1.203125 C 19.578125 -1.160156 19.800781 -1.03125 19.96875 -0.8125 C 20.132812 -0.582031 20.191406 -0.328125 20.140625 -0.046875 C 20.097656 0.222656 19.960938 0.441406 19.734375 0.609375 L 8.125 9.34375 C 7.894531 9.507812 7.644531 9.570312 7.375 9.53125 C 7.101562 9.488281 6.882812 9.351562 6.71875 9.125 C 6.550781 8.90625 6.484375 8.65625 6.515625 8.375 C 6.546875 8.101562 6.675781 7.882812 6.90625 7.71875 L 7.375 7.359375 C 5.820312 7.171875 4.601562 6.488281 3.71875 5.3125 Z M 5.421875 4.421875 C 5.828125 4.972656 6.332031 5.394531 6.9375 5.6875 C 7.550781 5.988281 8.195312 6.171875 8.875 6.234375 L 12.640625 3.40625 C 12.765625 2.738281 12.765625 2.070312 12.640625 1.40625 C 12.523438 0.738281 12.265625 0.128906 11.859375 -0.421875 C 11.191406 -1.304688 10.375 -1.804688 9.40625 -1.921875 C 8.445312 -2.035156 7.457031 -1.707031 6.4375 -0.9375 C 5.40625 -0.164062 4.8125 0.695312 4.65625 1.65625 C 4.5 2.613281 4.753906 3.535156 5.421875 4.421875 Z M 5.421875 4.421875 "/></g></g></g><g fill="#365b6d" fill-opacity="1"><g transform="translate(142.353189, 284.195549)"><g><path d="M 6.015625 2.15625 C 5.734375 2.0625 5.507812 1.894531 5.34375 1.65625 C 5.175781 1.414062 5.085938 1.125 5.078125 0.78125 L 5.25 -13.359375 C 5.257812 -13.523438 5.28125 -13.648438 5.3125 -13.734375 C 5.394531 -14.003906 5.550781 -14.195312 5.78125 -14.3125 C 6.007812 -14.4375 6.269531 -14.453125 6.5625 -14.359375 C 6.78125 -14.285156 6.953125 -14.144531 7.078125 -13.9375 C 7.203125 -13.738281 7.257812 -13.515625 7.25 -13.265625 L 6.84375 -0.375 L 14.375 -10.8125 C 14.519531 -11.03125 14.71875 -11.175781 14.96875 -11.25 C 15.21875 -11.332031 15.472656 -11.332031 15.734375 -11.25 C 15.984375 -11.164062 16.1875 -11.015625 16.34375 -10.796875 C 16.5 -10.578125 16.570312 -10.332031 16.5625 -10.0625 L 16.203125 2.78125 L 23.703125 -7.703125 C 23.847656 -7.890625 24.023438 -8.03125 24.234375 -8.125 C 24.453125 -8.21875 24.675781 -8.222656 24.90625 -8.140625 C 25.1875 -8.046875 25.390625 -7.878906 25.515625 -7.640625 C 25.640625 -7.398438 25.644531 -7.148438 25.53125 -6.890625 C 25.5 -6.804688 25.4375 -6.691406 25.34375 -6.546875 L 16.890625 4.78125 C 16.660156 5.039062 16.410156 5.21875 16.140625 5.3125 C 15.878906 5.40625 15.601562 5.40625 15.3125 5.3125 C 15.039062 5.21875 14.816406 5.039062 14.640625 4.78125 C 14.460938 4.53125 14.378906 4.25 14.390625 3.9375 L 14.640625 -8 L 7.578125 1.625 C 7.390625 1.875 7.148438 2.046875 6.859375 2.140625 C 6.578125 2.242188 6.296875 2.25 6.015625 2.15625 Z M 6.015625 2.15625 "/></g></g></g><g fill="#365b6d" fill-opacity="1"><g transform="translate(164.951435, 290.98568)"><g><path d="M 4.8125 -13.109375 C 4.5 -13.160156 4.25 -13.3125 4.0625 -13.5625 C 3.875 -13.820312 3.804688 -14.109375 3.859375 -14.421875 L 3.875 -14.5 C 3.914062 -14.8125 4.0625 -15.0625 4.3125 -15.25 C 4.570312 -15.445312 4.859375 -15.519531 5.171875 -15.46875 L 5.3125 -15.453125 C 5.613281 -15.398438 5.859375 -15.242188 6.046875 -14.984375 C 6.234375 -14.722656 6.304688 -14.4375 6.265625 -14.125 L 6.25 -14.046875 C 6.195312 -13.734375 6.039062 -13.484375 5.78125 -13.296875 C 5.53125 -13.109375 5.253906 -13.039062 4.953125 -13.09375 Z M 2.71875 0.53125 C 2.4375 0.488281 2.21875 0.351562 2.0625 0.125 C 1.90625 -0.09375 1.847656 -0.335938 1.890625 -0.609375 L 3.375 -10.078125 C 3.414062 -10.359375 3.546875 -10.582031 3.765625 -10.75 C 3.984375 -10.914062 4.234375 -10.976562 4.515625 -10.9375 C 4.816406 -10.882812 5.046875 -10.75 5.203125 -10.53125 C 5.359375 -10.3125 5.414062 -10.050781 5.375 -9.75 L 3.890625 -0.28125 C 3.847656 -0.0078125 3.710938 0.203125 3.484375 0.359375 C 3.253906 0.523438 3 0.582031 2.71875 0.53125 Z M 2.71875 0.53125 "/></g></g></g><g fill="#365b6d" fill-opacity="1"><g transform="translate(170.960692, 291.968603)"><g><path d="M 5.65625 0.609375 C 3.5 0.460938 2.488281 -0.585938 2.625 -2.546875 L 3.109375 -9.453125 L 1.515625 -9.5625 C 1.398438 -9.570312 1.300781 -9.617188 1.21875 -9.703125 C 1.144531 -9.785156 1.113281 -9.882812 1.125 -10 C 1.132812 -10.15625 1.207031 -10.28125 1.34375 -10.375 L 4.578125 -13.140625 C 4.722656 -13.265625 4.859375 -13.320312 4.984375 -13.3125 C 5.097656 -13.300781 5.191406 -13.25 5.265625 -13.15625 C 5.335938 -13.0625 5.375 -12.953125 5.375 -12.828125 L 5.25 -11.046875 L 7.765625 -10.875 C 8.023438 -10.851562 8.226562 -10.753906 8.375 -10.578125 C 8.519531 -10.398438 8.585938 -10.1875 8.578125 -9.9375 C 8.554688 -9.695312 8.457031 -9.5 8.28125 -9.34375 C 8.113281 -9.1875 7.898438 -9.117188 7.640625 -9.140625 L 5.125 -9.3125 L 4.65625 -2.59375 C 4.613281 -2.007812 4.722656 -1.628906 4.984375 -1.453125 C 5.253906 -1.273438 5.597656 -1.175781 6.015625 -1.15625 C 6.304688 -1.132812 6.609375 -1.160156 6.921875 -1.234375 C 6.984375 -1.234375 7.046875 -1.238281 7.109375 -1.25 C 7.171875 -1.257812 7.253906 -1.265625 7.359375 -1.265625 C 7.566406 -1.242188 7.75 -1.148438 7.90625 -0.984375 C 8.0625 -0.816406 8.128906 -0.617188 8.109375 -0.390625 C 8.085938 -0.0546875 7.898438 0.191406 7.546875 0.359375 C 6.941406 0.578125 6.3125 0.660156 5.65625 0.609375 Z M 5.65625 0.609375 "/></g></g></g><g fill="#365b6d" fill-opacity="1"><g transform="translate(180.306211, 292.733086)"><g><path d="M 2.765625 -0.078125 C 2.484375 -0.0546875 2.238281 -0.132812 2.03125 -0.3125 C 1.832031 -0.488281 1.722656 -0.71875 1.703125 -1 L 0.765625 -15.46875 C 0.742188 -15.75 0.820312 -15.992188 1 -16.203125 C 1.1875 -16.421875 1.421875 -16.539062 1.703125 -16.5625 C 1.984375 -16.570312 2.226562 -16.484375 2.4375 -16.296875 C 2.644531 -16.117188 2.757812 -15.890625 2.78125 -15.609375 L 3.15625 -9.796875 C 3.675781 -10.453125 4.253906 -10.984375 4.890625 -11.390625 C 5.523438 -11.804688 6.289062 -12.039062 7.1875 -12.09375 C 8 -12.144531 8.710938 -12 9.328125 -11.65625 C 9.953125 -11.320312 10.445312 -10.828125 10.8125 -10.171875 C 11.1875 -9.523438 11.398438 -8.800781 11.453125 -8 L 11.859375 -1.671875 C 11.878906 -1.390625 11.789062 -1.144531 11.59375 -0.9375 C 11.40625 -0.726562 11.175781 -0.617188 10.90625 -0.609375 C 10.625 -0.585938 10.378906 -0.664062 10.171875 -0.84375 C 9.960938 -1.019531 9.847656 -1.25 9.828125 -1.53125 L 9.4375 -7.640625 C 9.3125 -9.453125 8.429688 -10.304688 6.796875 -10.203125 C 6.054688 -10.148438 5.40625 -9.910156 4.84375 -9.484375 C 4.28125 -9.066406 3.757812 -8.515625 3.28125 -7.828125 L 3.71875 -1.140625 C 3.738281 -0.859375 3.65625 -0.613281 3.46875 -0.40625 C 3.28125 -0.195312 3.046875 -0.0859375 2.765625 -0.078125 Z M 2.765625 -0.078125 "/></g></g></g><g fill="#365b6d" fill-opacity="1"><g transform="translate(194.570788, 291.528531)"><g/></g></g><g fill="#365b6d" fill-opacity="1"><g transform="translate(200.691544, 290.374489)"><g><path d="M 2.703125 -0.578125 C 2.429688 -0.503906 2.175781 -0.535156 1.9375 -0.671875 C 1.707031 -0.816406 1.554688 -1.023438 1.484375 -1.296875 L -2.140625 -15.34375 C -2.210938 -15.613281 -2.175781 -15.867188 -2.03125 -16.109375 C -1.894531 -16.347656 -1.691406 -16.503906 -1.421875 -16.578125 C -1.128906 -16.648438 -0.863281 -16.617188 -0.625 -16.484375 C -0.394531 -16.347656 -0.242188 -16.140625 -0.171875 -15.859375 L 3.453125 -1.8125 C 3.523438 -1.539062 3.488281 -1.285156 3.34375 -1.046875 C 3.195312 -0.804688 2.984375 -0.648438 2.703125 -0.578125 Z M 2.703125 -0.578125 "/></g></g></g><g fill="#365b6d" fill-opacity="1"><g transform="translate(206.832577, 288.98742)"><g><path d="M 6.40625 -2.25 C 5.332031 -1.832031 4.304688 -1.695312 3.328125 -1.84375 C 2.347656 -1.988281 1.476562 -2.394531 0.71875 -3.0625 C -0.0390625 -3.738281 -0.628906 -4.613281 -1.046875 -5.6875 C -1.472656 -6.78125 -1.628906 -7.828125 -1.515625 -8.828125 C -1.398438 -9.835938 -1.03125 -10.726562 -0.40625 -11.5 C 0.21875 -12.269531 1.066406 -12.863281 2.140625 -13.28125 C 3.191406 -13.6875 4.207031 -13.816406 5.1875 -13.671875 C 6.175781 -13.523438 7.050781 -13.117188 7.8125 -12.453125 C 8.582031 -11.785156 9.179688 -10.90625 9.609375 -9.8125 C 10.023438 -8.738281 10.171875 -7.695312 10.046875 -6.6875 C 9.929688 -5.675781 9.554688 -4.785156 8.921875 -4.015625 C 8.296875 -3.242188 7.457031 -2.65625 6.40625 -2.25 Z M 5.734375 -3.96875 C 6.304688 -4.1875 6.800781 -4.523438 7.21875 -4.984375 C 7.644531 -5.453125 7.914062 -6.035156 8.03125 -6.734375 C 8.144531 -7.441406 8.035156 -8.234375 7.703125 -9.109375 C 7.367188 -9.960938 6.921875 -10.609375 6.359375 -11.046875 C 5.804688 -11.484375 5.21875 -11.726562 4.59375 -11.78125 C 3.976562 -11.84375 3.382812 -11.765625 2.8125 -11.546875 C 2.226562 -11.316406 1.722656 -10.972656 1.296875 -10.515625 C 0.878906 -10.054688 0.613281 -9.476562 0.5 -8.78125 C 0.394531 -8.082031 0.507812 -7.304688 0.84375 -6.453125 C 1.175781 -5.578125 1.617188 -4.914062 2.171875 -4.46875 C 2.722656 -4.03125 3.304688 -3.78125 3.921875 -3.71875 C 4.546875 -3.65625 5.148438 -3.738281 5.734375 -3.96875 Z M 5.734375 -3.96875 "/></g></g></g><g fill="#365b6d" fill-opacity="1"><g transform="translate(220.336699, 283.611819)"><g><path d="M 5.09375 -2.8125 C 4.863281 -2.675781 4.609375 -2.617188 4.328125 -2.640625 C 4.046875 -2.671875 3.804688 -2.765625 3.609375 -2.921875 L -4.40625 -9 C -4.5625 -9.125 -4.671875 -9.242188 -4.734375 -9.359375 C -4.878906 -9.609375 -4.914062 -9.863281 -4.84375 -10.125 C -4.78125 -10.394531 -4.628906 -10.601562 -4.390625 -10.75 C -4.210938 -10.84375 -4.023438 -10.882812 -3.828125 -10.875 C -3.628906 -10.875 -3.453125 -10.816406 -3.296875 -10.703125 L 4 -4.921875 L 2.609375 -14.125 C 2.585938 -14.300781 2.625 -14.476562 2.71875 -14.65625 C 2.820312 -14.84375 2.957031 -14.984375 3.125 -15.078125 C 3.363281 -15.222656 3.613281 -15.253906 3.875 -15.171875 C 4.144531 -15.097656 4.351562 -14.9375 4.5 -14.6875 C 4.5625 -14.570312 4.609375 -14.421875 4.640625 -14.234375 L 5.921875 -4.25 C 5.941406 -3.988281 5.898438 -3.734375 5.796875 -3.484375 C 5.691406 -3.242188 5.519531 -3.054688 5.28125 -2.921875 Z M 5.09375 -2.8125 "/></g></g></g><g fill="#365b6d" fill-opacity="1"><g transform="translate(231.369583, 277.19569)"><g><path d="M 5.5 -4.109375 C 4.070312 -2.972656 2.640625 -2.488281 1.203125 -2.65625 C -0.234375 -2.832031 -1.535156 -3.65625 -2.703125 -5.125 C -3.359375 -5.945312 -3.8125 -6.828125 -4.0625 -7.765625 C -4.320312 -8.703125 -4.3125 -9.632812 -4.03125 -10.5625 C -3.75 -11.5 -3.144531 -12.332031 -2.21875 -13.0625 C -1.351562 -13.757812 -0.445312 -14.15625 0.5 -14.25 C 1.445312 -14.351562 2.347656 -14.195312 3.203125 -13.78125 C 4.066406 -13.363281 4.8125 -12.765625 5.4375 -11.984375 C 5.613281 -11.753906 5.6875 -11.507812 5.65625 -11.25 C 5.632812 -10.988281 5.5 -10.753906 5.25 -10.546875 L -0.671875 -5.84375 C 0.078125 -5.09375 0.890625 -4.695312 1.765625 -4.65625 C 2.640625 -4.613281 3.535156 -4.957031 4.453125 -5.6875 C 4.941406 -6.082031 5.332031 -6.472656 5.625 -6.859375 C 5.914062 -7.242188 6.171875 -7.660156 6.390625 -8.109375 C 6.429688 -8.234375 6.515625 -8.34375 6.640625 -8.4375 C 6.828125 -8.582031 7.039062 -8.644531 7.28125 -8.625 C 7.519531 -8.613281 7.722656 -8.503906 7.890625 -8.296875 C 8.085938 -8.046875 8.101562 -7.710938 7.9375 -7.296875 C 7.6875 -6.671875 7.390625 -6.117188 7.046875 -5.640625 C 6.710938 -5.171875 6.195312 -4.660156 5.5 -4.109375 Z M 3.46875 -11.25 C 2.976562 -11.769531 2.445312 -12.125 1.875 -12.3125 C 1.300781 -12.5 0.753906 -12.523438 0.234375 -12.390625 C -0.285156 -12.265625 -0.742188 -12.039062 -1.140625 -11.71875 C -1.535156 -11.414062 -1.851562 -11.019531 -2.09375 -10.53125 C -2.34375 -10.039062 -2.441406 -9.5 -2.390625 -8.90625 C -2.335938 -8.3125 -2.101562 -7.722656 -1.6875 -7.140625 Z M 3.46875 -11.25 "/></g></g></g></svg>