<svg xmlns="http://www.w3.org/2000/svg" xmlns:xlink="http://www.w3.org/1999/xlink" width="500" zoomAndPan="magnify" viewBox="0 0 375 374.999991" height="500" preserveAspectRatio="xMidYMid meet" version="1.0"><defs><g/><clipPath id="10e8bc6573"><path d="M 58.5 58.5 L 316.5 58.5 L 316.5 316.5 L 58.5 316.5 Z M 58.5 58.5 " clip-rule="nonzero"/></clipPath><clipPath id="6d77e051d0"><path d="M 187.5 316.5 C 153.058594 316.5 120.628906 303.09375 96.292969 278.707031 C 71.90625 254.371094 58.5 221.941406 58.5 187.5 C 58.5 153.058594 71.90625 120.628906 96.292969 96.292969 C 120.628906 71.90625 153.058594 58.5 187.5 58.5 C 221.941406 58.5 254.371094 71.90625 278.707031 96.292969 C 303.09375 120.679688 316.5 153.058594 316.5 187.5 C 316.5 221.941406 303.09375 254.371094 278.707031 278.707031 C 254.371094 303.09375 221.941406 316.5 187.5 316.5 Z M 187.5 66.234375 C 155.121094 66.234375 124.648438 78.867188 101.757812 101.757812 C 78.867188 124.648438 66.234375 155.121094 66.234375 187.5 C 66.234375 219.878906 78.867188 250.351562 101.757812 273.242188 C 124.648438 296.132812 155.121094 308.765625 187.5 308.765625 C 219.878906 308.765625 250.351562 296.132812 273.242188 273.242188 C 296.132812 250.351562 308.765625 219.878906 308.765625 187.5 C 308.765625 155.121094 296.132812 124.648438 273.242188 101.757812 C 250.351562 78.867188 219.878906 66.234375 187.5 66.234375 Z M 187.5 66.234375 " clip-rule="nonzero"/></clipPath><clipPath id="1bcb76a87c"><path d="M 80.125 145.417969 L 294.625 145.417969 L 294.625 236.917969 L 80.125 236.917969 Z M 80.125 145.417969 " clip-rule="nonzero"/></clipPath><clipPath id="6d47b08d71"><path d="M 96.464844 96.464844 L 278.714844 96.464844 L 278.714844 278.714844 L 96.464844 278.714844 Z M 96.464844 96.464844 " clip-rule="nonzero"/></clipPath></defs><rect x="-37.5" width="450" fill="#ffffff" y="-37.499999" height="449.999989" fill-opacity="1"/><rect x="-37.5" width="450" fill="#ffffff" y="-37.499999" height="449.999989" fill-opacity="1"/><g clip-path="url(#10e8bc6573)"><g clip-path="url(#6d77e051d0)"><path fill="#112241" d="M 58.5 58.5 L 316.5 58.5 L 316.5 316.5 L 58.5 316.5 Z M 58.5 58.5 " fill-opacity="1" fill-rule="nonzero"/></g></g><g clip-path="url(#1bcb76a87c)"><path fill="#112241" d="M 288.226562 216.128906 C 285.503906 225.394531 281.347656 234.191406 276.191406 242.289062 C 271.933594 248.878906 267.089844 255.074219 261.648438 260.707031 C 260.945312 261.476562 260.160156 262.167969 259.410156 262.894531 C 258.652344 263.605469 257.914062 264.34375 257.136719 265.039062 L 254.777344 267.089844 L 253.601562 268.117188 L 252.375 269.089844 L 249.933594 271.042969 C 249.105469 271.675781 248.25 272.273438 247.414062 272.890625 C 245.757812 274.160156 243.996094 275.277344 242.269531 276.449219 C 242.019531 276.617188 241.757812 276.792969 241.484375 276.976562 C 241.203125 277.144531 240.914062 277.320312 240.605469 277.503906 C 240 277.867188 239.34375 278.257812 238.644531 278.675781 C 237.265625 279.542969 235.636719 280.355469 233.875 281.292969 C 233.433594 281.523438 232.988281 281.769531 232.519531 281.996094 C 232.046875 282.214844 231.570312 282.4375 231.078125 282.664062 C 230.101562 283.117188 229.085938 283.585938 228.039062 284.070312 C 225.894531 284.90625 223.65625 285.914062 221.21875 286.695312 C 211.585938 290.1875 199.5625 292.347656 187.5 292.398438 C 175.433594 292.347656 163.414062 290.1875 153.78125 286.695312 C 151.339844 285.914062 149.101562 284.90625 146.957031 284.070312 C 145.910156 283.585938 144.898438 283.117188 143.917969 282.664062 C 143.429688 282.4375 142.949219 282.214844 142.476562 281.996094 C 142.007812 281.773438 141.566406 281.523438 141.121094 281.292969 C 139.363281 280.359375 137.730469 279.542969 136.351562 278.675781 C 135.652344 278.257812 135 277.867188 134.390625 277.503906 C 134.085938 277.320312 133.792969 277.144531 133.511719 276.976562 C 133.238281 276.792969 132.976562 276.617188 132.730469 276.449219 C 126.175781 272.15625 120.019531 267.277344 114.421875 261.796875 C 108.519531 255.898438 103.355469 249.292969 98.808594 242.289062 C 93.648438 234.191406 89.492188 225.394531 86.769531 216.128906 C 83.933594 206.890625 82.621094 197.195312 82.539062 187.5 C 82.621094 177.800781 83.933594 168.105469 86.769531 158.867188 C 89.492188 149.601562 93.648438 140.808594 98.804688 132.707031 C 103.0625 126.117188 107.90625 119.921875 113.347656 114.289062 C 114.050781 113.519531 114.835938 112.828125 115.585938 112.101562 C 116.34375 111.390625 117.082031 110.652344 117.859375 109.957031 L 120.21875 107.90625 L 121.398438 106.878906 L 122.621094 105.90625 L 125.0625 103.953125 C 125.890625 103.320312 126.746094 102.722656 127.582031 102.105469 C 129.238281 100.835938 131.003906 99.71875 132.726562 98.546875 C 132.976562 98.378906 133.238281 98.203125 133.511719 98.019531 C 133.792969 97.851562 134.085938 97.675781 134.390625 97.492188 C 134.996094 97.128906 135.652344 96.738281 136.351562 96.320312 C 137.730469 95.453125 139.359375 94.640625 141.121094 93.703125 C 141.566406 93.476562 142.007812 93.226562 142.476562 93 C 142.949219 92.78125 143.429688 92.558594 143.917969 92.332031 C 144.894531 91.878906 145.910156 91.410156 146.957031 90.925781 C 149.101562 90.089844 151.339844 89.082031 153.777344 88.300781 C 163.414062 84.808594 175.433594 82.648438 187.5 82.597656 C 199.5625 82.648438 211.585938 84.808594 221.214844 88.300781 C 223.65625 89.082031 225.894531 90.089844 228.039062 90.925781 C 229.085938 91.410156 230.097656 91.878906 231.078125 92.332031 C 231.566406 92.558594 232.046875 92.78125 232.519531 93 C 232.988281 93.222656 233.429688 93.476562 233.875 93.703125 C 235.632812 94.636719 237.265625 95.453125 238.644531 96.320312 C 239.34375 96.738281 239.996094 97.128906 240.605469 97.492188 C 240.910156 97.675781 241.203125 97.851562 241.484375 98.019531 C 241.757812 98.203125 242.019531 98.378906 242.265625 98.546875 C 248.820312 102.839844 254.976562 107.71875 260.574219 113.199219 C 266.476562 119.097656 271.640625 125.703125 276.1875 132.707031 C 281.347656 140.804688 285.503906 149.601562 288.226562 158.867188 C 291.0625 168.105469 292.375 177.800781 292.457031 187.5 C 292.375 197.195312 291.0625 206.890625 288.226562 216.128906 Z M 294.871094 187.425781 L 294.867188 187.417969 C 294.78125 177.519531 293.449219 167.613281 290.5625 158.164062 C 287.789062 148.691406 283.542969 139.699219 278.246094 131.4375 L 275.699219 127.609375 C 275.699219 127.609375 274.960938 126.582031 273.859375 125.039062 C 272.796875 123.460938 271.171875 121.519531 269.617188 119.523438 C 267.941406 117.628906 266.339844 115.671875 264.988281 114.335938 C 263.675781 112.964844 262.800781 112.054688 262.800781 112.054688 C 262.800781 112.054688 262.582031 111.828125 262.183594 111.445312 C 261.785156 111.0625 261.21875 110.511719 260.535156 109.855469 C 259.207031 108.5 257.273438 106.867188 255.382812 105.191406 C 254.410156 104.382812 253.410156 103.609375 252.484375 102.867188 C 252.023438 102.5 251.574219 102.140625 251.148438 101.804688 C 250.707031 101.484375 250.292969 101.1875 249.90625 100.910156 C 248.371094 99.796875 247.34375 99.058594 247.34375 99.058594 C 247.34375 99.058594 247.121094 98.878906 246.757812 98.644531 C 246.402344 98.40625 245.925781 98.085938 245.449219 97.765625 C 244.496094 97.128906 243.539062 96.488281 243.539062 96.488281 C 243.285156 96.316406 243.019531 96.136719 242.742188 95.949219 C 242.453125 95.773438 242.15625 95.59375 241.84375 95.40625 C 241.222656 95.03125 240.550781 94.628906 239.839844 94.203125 C 238.429688 93.3125 236.761719 92.476562 234.960938 91.515625 C 234.507812 91.28125 234.050781 91.023438 233.574219 90.796875 C 233.09375 90.570312 232.601562 90.339844 232.101562 90.109375 C 231.101562 89.644531 230.0625 89.164062 228.992188 88.667969 C 226.796875 87.804688 224.507812 86.777344 222.007812 85.972656 C 212.152344 82.390625 199.84375 80.171875 187.5 80.125 C 175.152344 80.171875 162.84375 82.390625 152.984375 85.972656 C 150.488281 86.777344 148.199219 87.804688 146.003906 88.667969 C 144.933594 89.164062 143.898438 89.644531 142.894531 90.109375 C 142.394531 90.34375 141.902344 90.570312 141.421875 90.796875 C 140.941406 91.023438 140.488281 91.28125 140.035156 91.515625 C 138.234375 92.476562 136.566406 93.3125 135.15625 94.203125 C 134.445312 94.628906 133.773438 95.03125 133.152344 95.40625 C 132.839844 95.59375 132.542969 95.777344 132.253906 95.949219 C 131.976562 96.136719 131.710938 96.316406 131.453125 96.488281 C 131.453125 96.488281 130.5 97.128906 129.546875 97.765625 C 129.070312 98.085938 128.59375 98.40625 128.238281 98.644531 C 127.875 98.878906 127.652344 99.058594 127.652344 99.058594 C 127.652344 99.058594 126.628906 99.796875 125.089844 100.910156 C 124.703125 101.1875 124.289062 101.484375 123.847656 101.804688 C 123.421875 102.140625 122.976562 102.5 122.511719 102.867188 C 121.585938 103.609375 120.585938 104.382812 119.617188 105.191406 C 117.722656 106.867188 115.792969 108.5 114.460938 109.855469 C 113.777344 110.511719 113.210938 111.0625 112.8125 111.445312 C 112.414062 111.828125 112.195312 112.054688 112.195312 112.054688 C 112.195312 112.054688 111.320312 112.964844 110.007812 114.335938 C 108.65625 115.671875 107.054688 117.628906 105.378906 119.523438 C 103.824219 121.519531 102.199219 123.460938 101.136719 125.039062 C 100.03125 126.582031 99.296875 127.609375 99.296875 127.609375 L 96.75 131.4375 C 91.453125 139.699219 87.207031 148.691406 84.433594 158.164062 C 81.546875 167.613281 80.214844 177.519531 80.128906 187.417969 L 80.125 187.425781 L 80.125 187.570312 L 80.128906 187.578125 C 80.214844 197.476562 81.546875 207.386719 84.433594 216.832031 C 87.207031 226.304688 91.453125 235.300781 96.75 243.558594 L 99.296875 247.386719 C 99.296875 247.386719 100.035156 248.414062 101.136719 249.960938 C 102.199219 251.535156 103.824219 253.476562 105.378906 255.472656 C 107.054688 257.367188 108.65625 259.324219 110.007812 260.660156 C 111.320312 262.027344 112.195312 262.941406 112.195312 262.941406 C 112.195312 262.941406 112.414062 263.167969 112.8125 263.550781 C 113.210938 263.933594 113.777344 264.484375 114.460938 265.140625 C 115.792969 266.496094 117.722656 268.128906 119.617188 269.804688 C 120.585938 270.613281 121.585938 271.386719 122.511719 272.128906 C 122.976562 272.496094 123.421875 272.855469 123.847656 273.191406 C 124.289062 273.511719 124.703125 273.808594 125.089844 274.085938 C 126.628906 275.199219 127.652344 275.9375 127.652344 275.9375 C 127.652344 275.9375 127.875 276.117188 128.238281 276.351562 C 128.59375 276.589844 129.070312 276.910156 129.546875 277.230469 C 130.5 277.867188 131.457031 278.507812 131.457031 278.507812 C 131.710938 278.679688 131.976562 278.859375 132.253906 279.046875 C 132.542969 279.222656 132.839844 279.402344 133.152344 279.589844 C 133.773438 279.964844 134.445312 280.367188 135.15625 280.792969 C 136.566406 281.683594 138.234375 282.519531 140.035156 283.480469 C 140.488281 283.714844 140.945312 283.972656 141.421875 284.199219 C 141.902344 284.425781 142.394531 284.65625 142.894531 284.886719 C 143.898438 285.351562 144.933594 285.832031 146.003906 286.328125 C 148.199219 287.191406 150.488281 288.21875 152.988281 289.023438 C 162.84375 292.605469 175.152344 294.820312 187.5 294.871094 C 199.84375 294.820312 212.152344 292.605469 222.011719 289.023438 C 224.507812 288.21875 226.796875 287.191406 228.992188 286.328125 C 230.0625 285.832031 231.101562 285.351562 232.101562 284.886719 C 232.601562 284.652344 233.09375 284.425781 233.574219 284.199219 C 234.054688 283.972656 234.507812 283.714844 234.960938 283.480469 C 236.761719 282.519531 238.429688 281.683594 239.839844 280.792969 C 240.550781 280.367188 241.222656 279.964844 241.84375 279.589844 C 242.15625 279.402344 242.453125 279.21875 242.742188 279.046875 C 243.019531 278.859375 243.285156 278.679688 243.542969 278.507812 C 243.542969 278.507812 244.496094 277.867188 245.449219 277.230469 C 245.925781 276.910156 246.402344 276.589844 246.757812 276.351562 C 247.121094 276.117188 247.34375 275.9375 247.34375 275.9375 C 247.34375 275.9375 248.371094 275.199219 249.90625 274.085938 C 250.292969 273.808594 250.707031 273.511719 251.148438 273.191406 C 251.574219 272.855469 252.023438 272.496094 252.484375 272.128906 C 253.410156 271.386719 254.410156 270.613281 255.382812 269.804688 C 257.273438 268.128906 259.207031 266.496094 260.535156 265.140625 C 261.21875 264.484375 261.785156 263.933594 262.183594 263.550781 C 262.582031 263.167969 262.800781 262.941406 262.800781 262.941406 C 262.800781 262.941406 263.675781 262.027344 264.988281 260.660156 C 266.339844 259.324219 267.941406 257.367188 269.617188 255.472656 C 271.171875 253.476562 272.796875 251.535156 273.859375 249.960938 C 274.964844 248.414062 275.699219 247.386719 275.699219 247.386719 L 278.246094 243.558594 C 283.542969 235.300781 287.789062 226.304688 290.5625 216.832031 C 293.449219 207.382812 294.78125 197.476562 294.867188 187.578125 L 294.871094 187.570312 L 294.871094 187.425781 " fill-opacity="1" fill-rule="nonzero"/></g><path fill="#f2dea2" d="M 187.609375 100.390625 C 142.417969 100.390625 105.101562 134.617188 100.820312 179.070312 C 103.613281 176.8125 106.441406 174.292969 109.386719 171.664062 C 112.367188 168.996094 115.449219 166.242188 118.597656 163.699219 C 121.886719 161.011719 138.632812 160.03125 142.597656 163.847656 C 147.585938 168.621094 152.308594 172.964844 156.644531 176.777344 C 156.703125 176.816406 156.765625 176.855469 156.824219 176.90625 C 172.890625 191.042969 181.550781 196.214844 184.203125 197.644531 C 190.328125 193.996094 199.246094 193.945312 204.347656 199.5 C 207.632812 198.789062 211.054688 199.242188 214.1875 200.691406 C 213.800781 198.269531 213.960938 195.769531 214.726562 193.460938 C 215.742188 190.382812 218.285156 186.113281 224.621094 183.261719 C 232.019531 179.898438 240.5 180.847656 246.964844 185.027344 C 242.511719 177.824219 236.433594 174.613281 232.550781 173.242188 C 225.988281 170.890625 219.929688 171.449219 216.828125 173.046875 C 216.335938 173.304688 215.917969 173.582031 215.589844 173.871094 C 216.171875 174.5625 216.636719 175.5 216.921875 176.621094 C 217.761719 179.925781 216.777344 184.09375 212.6875 185.941406 C 209.660156 187.304688 206.453125 186.886719 203.882812 184.792969 C 200.3125 181.875 198.800781 176.464844 200.027344 171 C 201.875 162.734375 207.730469 158.476562 212.320312 156.363281 C 219.664062 152.984375 228.9375 152.75 235.214844 155.710938 C 244.199219 153.347656 254.515625 155.085938 262.976562 160.410156 C 267.003906 162.949219 270.363281 166.15625 272.964844 169.863281 C 264.796875 129.9375 229.722656 100.390625 187.609375 100.390625 Z M 231.046875 196.886719 C 230.558594 196.953125 230.097656 197.09375 229.691406 197.28125 C 229.917969 197.414062 230.144531 197.566406 230.363281 197.734375 C 232.46875 199.367188 233.785156 202.710938 231.988281 206.480469 C 230.871094 208.839844 228.480469 210.476562 225.59375 210.855469 C 225.023438 210.929688 224.453125 210.929688 223.886719 210.898438 C 224.535156 212.457031 224.972656 214.085938 225.179688 215.746094 C 228.488281 215.878906 232.136719 214.144531 234.792969 211.042969 C 237.632812 207.71875 238.59375 203.785156 237.375 200.484375 C 235.898438 197.867188 233.539062 196.511719 231.046875 196.886719 " fill-opacity="1" fill-rule="nonzero"/><path fill="#ffffff" d="M 274.730469 184.878906 C 271.476562 180.253906 264.800781 179.257812 261.164062 180.097656 C 260.128906 180.332031 259.242188 180.660156 258.445312 181.085938 C 255.570312 182.5625 253.878906 185.367188 254.082031 188.253906 C 254.25 190.605469 255.605469 192.382812 257.792969 193.136719 C 259.0625 193.5625 260.375 192.816406 260.976562 191.878906 C 261.511719 191.0625 261.445312 190.285156 260.78125 189.578125 C 260.40625 189.167969 260.21875 188.613281 260.265625 188.058594 C 260.3125 187.5 260.601562 186.996094 261.050781 186.660156 C 263.074219 185.160156 265.855469 185.289062 268.316406 186.992188 C 270.96875 188.828125 273.136719 192.320312 274.246094 197.210938 C 274.59375 194.046875 274.789062 190.847656 274.789062 187.609375 C 274.789062 186.6875 274.761719 185.792969 274.730469 184.878906 Z M 206.367188 181.746094 C 207.351562 182.554688 208.96875 183.320312 211.070312 182.363281 C 212.328125 181.789062 213.058594 180.808594 213.230469 179.4375 C 213.410156 178.007812 212.917969 176.824219 212.617188 176.441406 C 212.132812 176.363281 211.695312 176.121094 211.378906 175.734375 C 210.976562 175.246094 210.835938 174.578125 211.007812 173.960938 C 211.511719 172.179688 212.902344 170.65625 215.027344 169.558594 C 219.574219 167.214844 226.628906 167.132812 233.171875 169.308594 C 239.644531 167.117188 252.890625 168.773438 258.328125 176.84375 C 258.945312 176.621094 259.597656 176.425781 260.296875 176.269531 C 263.445312 175.542969 268.65625 175.753906 273.046875 178.210938 C 270.730469 172.335938 266.546875 167.300781 260.882812 163.734375 C 253.113281 158.847656 243.636719 157.332031 235.558594 159.691406 C 235.0625 159.828125 234.535156 159.78125 234.089844 159.539062 C 228.898438 156.78125 220.441406 156.949219 213.960938 159.929688 C 210.175781 161.671875 205.355469 165.15625 203.863281 171.855469 C 202.828125 176.441406 204.375 180.121094 206.367188 181.746094 Z M 226.238281 186.839844 C 222.246094 188.636719 219.558594 191.347656 218.453125 194.695312 C 217.464844 197.6875 217.789062 201.113281 219.324219 203.851562 C 219.53125 204.1875 219.773438 204.601562 220.058594 204.917969 C 221.375 206.480469 223.191406 207.21875 225.089844 206.957031 C 226.617188 206.757812 227.902344 205.929688 228.4375 204.792969 C 229.359375 202.863281 228.753906 201.457031 227.953125 200.835938 C 227.53125 200.511719 227.160156 200.480469 227.074219 200.542969 C 226.429688 201.089844 225.515625 201.148438 224.792969 200.710938 C 224.074219 200.277344 223.714844 199.429688 223.898438 198.605469 C 224.554688 195.6875 227.140625 193.484375 230.484375 193 C 233.753906 192.527344 238.152344 193.773438 240.847656 198.632812 C 240.859375 198.652344 240.863281 198.671875 240.875 198.6875 C 240.875 198.691406 240.875 198.691406 240.875 198.691406 C 241.070312 199.03125 241.257812 199.367188 241.402344 199.699219 C 243.671875 204.640625 243.644531 210.726562 241.320312 216.359375 C 238.671875 222.777344 233.339844 227.921875 226.214844 230.972656 C 226.46875 232.929688 226.398438 234.867188 226.019531 236.734375 C 230.246094 235.152344 235.332031 235.261719 239.851562 237.214844 C 259.128906 222.527344 254.472656 201.609375 251.25 195.34375 C 246.667969 186.464844 235.445312 182.664062 226.238281 186.839844 Z M 239.347656 241.296875 C 239.289062 241.277344 239.234375 241.261719 239.179688 241.230469 C 233.949219 238.542969 227.292969 239.171875 223.695312 242.691406 L 223.289062 243.132812 C 223.09375 243.464844 222.832031 243.8125 222.53125 244.175781 C 221.828125 245.335938 221.480469 246.710938 221.574219 248.019531 C 221.691406 250.417969 223.039062 252.195312 224.789062 252.289062 C 226.652344 252.300781 227.246094 251.265625 227.457031 250.792969 C 227.730469 250.175781 227.773438 249.320312 227.257812 248.804688 C 226.734375 248.277344 226.550781 247.5 226.785156 246.792969 C 227.019531 246.085938 227.628906 245.578125 228.367188 245.46875 C 229.785156 245.261719 231.140625 245.386719 232.300781 245.808594 C 232.300781 245.808594 232.304688 245.808594 232.304688 245.808594 C 232.328125 245.816406 232.351562 245.828125 232.375 245.835938 C 235.460938 246.871094 237.558594 249.839844 237.910156 253.789062 C 238.058594 255.410156 237.886719 257.296875 237.285156 259.222656 C 240.75 256.820312 244.042969 254.160156 247.148438 251.25 C 245.484375 245.566406 242.050781 242.710938 239.347656 241.296875 Z M 222.09375 230.175781 C 221.722656 228.566406 221.09375 227.007812 220.242188 225.566406 C 219.910156 225 219.882812 224.3125 220.15625 223.722656 C 221.066406 221.800781 221.492188 219.683594 221.382812 217.59375 C 221.28125 213.984375 219.734375 210.359375 217.128906 207.613281 C 213.550781 203.773438 208.609375 202.234375 204.207031 203.582031 C 203.421875 203.84375 202.554688 203.546875 202.054688 202.882812 C 198.3125 197.847656 190.289062 198.121094 185.4375 201.511719 C 182.507812 203.535156 180.886719 206.503906 180.855469 209.894531 C 180.84375 211.925781 181.527344 213.550781 182.738281 214.335938 C 183.644531 214.921875 184.734375 214.976562 185.816406 214.484375 C 186.304688 214.273438 186.742188 213.625 186.921875 212.867188 C 187.101562 212.125 186.957031 211.652344 186.886719 211.566406 C 185.953125 211.230469 185.472656 210.285156 185.695312 209.316406 C 186.503906 205.820312 189.578125 203.558594 193.207031 203.804688 C 196.242188 203.925781 199.691406 205.714844 201.15625 209.328125 C 204.570312 208.558594 208.289062 209.457031 211.296875 211.878906 C 217.285156 216.710938 218.457031 226.089844 213.976562 233.21875 C 211.890625 236.492188 208.894531 239.011719 205.0625 240.722656 C 201.964844 242.09375 198.734375 242.691406 195.484375 242.691406 C 194.804688 242.691406 194.121094 242.664062 193.4375 242.609375 C 198.335938 244.664062 203.738281 246.1875 209.476562 246.625 L 209.796875 246.625 C 213.375 246.625 216.953125 244.839844 219.367188 241.839844 C 219.632812 241.441406 219.882812 241.085938 220.15625 240.769531 C 222.246094 237.679688 222.933594 233.917969 222.09375 230.175781 Z M 161.894531 240.730469 C 161.171875 242.261719 160.246094 243.605469 159.136719 244.734375 C 159.988281 245.464844 160.996094 246.351562 162.140625 247.359375 C 167.851562 252.386719 176.480469 259.980469 185.398438 265.882812 L 185.796875 266.152344 C 191.734375 270.113281 196.867188 273.539062 201.957031 273.601562 C 205.558594 273.007812 209.105469 272.175781 212.582031 271.136719 C 205.933594 270.050781 198.582031 266.769531 190.21875 261.230469 C 180.082031 254.515625 168.78125 246.023438 161.894531 240.730469 Z M 168.863281 225.816406 C 168.875 225.828125 168.890625 225.839844 168.898438 225.847656 C 168.902344 225.851562 168.90625 225.855469 168.90625 225.855469 C 169.496094 226.445312 170.019531 226.972656 170.578125 227.496094 C 170.578125 227.496094 170.582031 227.496094 170.582031 227.496094 C 170.589844 227.503906 170.597656 227.511719 170.605469 227.515625 C 170.605469 227.519531 170.609375 227.519531 170.609375 227.519531 C 170.617188 227.523438 170.621094 227.53125 170.628906 227.535156 C 179.34375 235.355469 192.539062 241.960938 203.464844 237.136719 C 206.574219 235.746094 208.996094 233.722656 210.652344 231.125 C 214.089844 225.65625 213.292969 218.539062 208.835938 214.933594 C 205.855469 212.542969 202.648438 212.683594 200.65625 213.617188 C 198.433594 214.695312 197.269531 216.765625 197.570312 219.132812 C 197.8125 221.09375 198.8125 222.335938 200.253906 222.453125 C 201.226562 222.578125 202.46875 222 202.890625 220.585938 C 203.136719 219.746094 203.910156 219.265625 204.792969 219.179688 C 205.671875 219.195312 206.4375 219.785156 206.667969 220.632812 C 207.464844 223.582031 206.351562 226.738281 203.6875 229.074219 C 200.351562 232.003906 194.1875 233.796875 187.953125 231.203125 C 179.515625 227.675781 173.671875 220.652344 168.515625 214.460938 C 167.980469 213.816406 167.457031 213.191406 166.945312 212.582031 C 168.042969 216.589844 167.984375 220.382812 166.707031 223.585938 C 167.421875 224.359375 168.132812 225.113281 168.863281 225.816406 Z M 143.667969 204.152344 C 151.519531 206.179688 156.800781 211.140625 158.160156 217.765625 C 158.371094 218.824219 157.691406 219.867188 156.625 220.082031 C 156.5625 220.09375 156.496094 220.09375 156.429688 220.101562 C 156.363281 220.109375 156.300781 220.121094 156.234375 220.121094 C 156.226562 220.121094 156.222656 220.117188 156.214844 220.117188 C 156.203125 220.117188 156.191406 220.117188 156.179688 220.113281 C 156.15625 220.117188 156.144531 220.121094 156.121094 220.121094 C 155.167969 220.207031 154.78125 221.535156 154.746094 221.695312 C 154.503906 222.835938 154.734375 225.019531 157.105469 225.953125 C 158.359375 226.425781 159.472656 226.066406 160.183594 225.6875 C 161.152344 225.164062 162.023438 224.246094 162.628906 223.113281 C 162.644531 223.085938 162.648438 223.050781 162.664062 223.019531 C 163.640625 221.152344 165.402344 215.914062 160.582031 207.597656 C 160.011719 206.617188 159.375 205.71875 158.683594 204.925781 C 158.679688 204.921875 158.675781 204.917969 158.671875 204.914062 C 158.664062 204.90625 158.65625 204.902344 158.652344 204.894531 C 150.589844 195.265625 133.144531 191.699219 118.082031 196.621094 C 112.269531 198.519531 106.957031 201.527344 102.25 205.535156 C 102.976562 209.03125 103.925781 212.503906 105.101562 215.910156 C 116.871094 204.058594 133.039062 201.390625 143.667969 204.152344 Z M 159.523438 229.992188 C 159.125 230.054688 158.726562 230.09375 158.332031 230.09375 C 157.433594 230.09375 156.550781 229.9375 155.699219 229.617188 C 151.484375 227.964844 150.265625 223.9375 150.902344 220.894531 C 151.144531 219.726562 151.640625 218.753906 152.308594 217.988281 C 146.519531 214.652344 139.964844 213.542969 133.335938 214.664062 C 138.011719 215.40625 142.339844 217.359375 145.808594 220.445312 C 150.960938 225.027344 153.195312 231.410156 151.785156 237.53125 C 151.578125 238.429688 150.730469 238.871094 149.84375 239.050781 C 148.917969 239.039062 148.128906 238.382812 147.945312 237.476562 C 147.777344 236.644531 146.996094 236.3125 146.378906 236.277344 C 145.964844 236.21875 144.574219 236.316406 143.964844 238.203125 C 143.46875 239.714844 143.917969 240.964844 144.375 241.753906 C 145.542969 243.886719 147.960938 245.03125 150.597656 244.683594 C 152.261719 244.492188 153.722656 243.964844 154.972656 243.121094 C 156.929688 241.796875 158.320312 239.75 159.09375 237.054688 C 159.675781 234.941406 159.816406 232.523438 159.523438 229.992188 Z M 108.449219 180.6875 C 109.65625 180.898438 110.660156 181.4375 111.425781 182.246094 C 115.882812 178.375 120.0625 176.792969 123.144531 177.90625 C 123.851562 178.160156 124.464844 178.558594 124.972656 179.074219 C 127.234375 176.265625 129.597656 174.882812 132.132812 174.863281 L 132.191406 174.863281 C 135.144531 174.863281 137.949219 176.746094 140.71875 180.605469 C 141.796875 179.671875 143.085938 179.136719 144.535156 179.054688 C 146.777344 178.941406 149.101562 179.898438 151.25 181.289062 C 151.265625 180.832031 151.308594 180.386719 151.429688 179.964844 C 151.578125 179.433594 151.855469 178.8125 152.347656 178.214844 C 148.441406 174.734375 144.269531 170.882812 139.878906 166.683594 C 137.671875 164.558594 123.207031 165.003906 121.070312 166.746094 C 117.996094 169.234375 114.949219 171.953125 112 174.589844 C 109.511719 176.8125 107.105469 178.960938 104.710938 180.953125 C 106.007812 180.613281 107.296875 180.484375 108.449219 180.6875 Z M 148.226562 232.671875 C 147.902344 229.273438 146.171875 226.023438 143.195312 223.378906 C 138.652344 219.335938 130.289062 216.277344 120.402344 219.75 C 116.78125 222.039062 113.464844 224.945312 110.519531 228.386719 C 111.277344 229.8125 112.007812 231.105469 112.730469 232.308594 C 117.234375 227.566406 123.8125 225.640625 128.796875 225.886719 C 133.667969 226.136719 137.539062 228.253906 139.425781 231.710938 C 139.703125 232.222656 139.738281 232.839844 139.519531 233.382812 C 139.300781 233.929688 138.847656 234.34375 138.289062 234.519531 C 136.046875 235.230469 135.609375 236.847656 135.542969 237.742188 C 135.429688 239.289062 136.234375 240.796875 137.496094 241.445312 C 137.527344 241.460938 137.558594 241.476562 137.585938 241.492188 C 138.308594 241.820312 139.167969 241.871094 140.113281 241.644531 C 139.703125 240.132812 139.726562 238.527344 140.230469 236.984375 C 141.199219 234.007812 143.761719 232.1875 146.601562 232.355469 C 147.167969 232.386719 147.714844 232.496094 148.226562 232.671875 " fill-opacity="1" fill-rule="nonzero"/><path fill="#27498c" d="M 266.082031 190.21875 C 265.871094 190.074219 265.542969 189.867188 265.160156 189.722656 C 265.457031 191.144531 265.164062 192.652344 264.265625 194.023438 C 263.628906 195.007812 262.765625 195.789062 261.785156 196.328125 C 264.335938 198.980469 266.144531 202.894531 267.019531 207.761719 C 267.914062 212.671875 267.789062 218.613281 266.425781 224.886719 C 267.296875 223.035156 268.117188 221.148438 268.859375 219.222656 C 268.871094 219.167969 268.878906 219.117188 268.894531 219.066406 C 274.011719 201.34375 269.289062 192.445312 266.082031 190.21875 Z M 239.808594 172.382812 C 243.558594 174.679688 247.664062 178.28125 250.878906 183.882812 C 251.660156 181.867188 253.03125 180.070312 254.859375 178.714844 C 251.59375 174.179688 244.984375 172.46875 239.808594 172.382812 Z M 231.050781 252.375 C 229.960938 254.871094 227.496094 256.304688 224.59375 256.210938 C 221.414062 256.035156 218.871094 253.683594 217.984375 250.359375 C 216.214844 250.566406 214.484375 250.667969 212.785156 250.667969 C 211.757812 250.667969 210.738281 250.628906 209.71875 250.558594 L 209.363281 250.558594 C 209.359375 250.558594 209.351562 250.554688 209.347656 250.554688 C 209.304688 250.554688 209.257812 250.554688 209.21875 250.554688 C 209.210938 250.554688 209.210938 250.550781 209.207031 250.550781 C 208.925781 250.546875 208.621094 250.53125 208.355469 250.480469 C 208.324219 250.476562 208.304688 250.460938 208.273438 250.453125 C 203.242188 249.972656 198.46875 248.75 194.058594 247.085938 C 202.4375 253.214844 211.320312 258.289062 219.148438 259.410156 C 225.042969 260.273438 229.210938 258.910156 230.839844 255.5625 C 231.511719 254.195312 231.621094 252.683594 231.378906 251.40625 C 231.292969 251.734375 231.191406 252.054688 231.050781 252.375 Z M 200.785156 226.386719 C 200.503906 226.402344 200.21875 226.390625 199.925781 226.363281 C 197.394531 226.152344 194.246094 224.257812 193.671875 219.617188 C 193.230469 216.082031 194.714844 212.851562 197.597656 210.867188 C 196.835938 208.871094 194.8125 207.796875 193.050781 207.726562 C 192.449219 207.675781 190.835938 207.765625 189.964844 209.121094 C 190.550781 209.863281 190.894531 210.847656 190.933594 211.980469 C 191.007812 214.210938 189.824219 217.019531 187.414062 218.074219 C 185.125 219.109375 182.628906 218.949219 180.59375 217.628906 C 178.242188 216.097656 176.902344 213.261719 176.929688 209.859375 C 176.960938 206.175781 178.351562 202.867188 180.863281 200.273438 C 177.011719 198.019531 168.824219 192.597656 155.3125 180.796875 C 155.246094 180.894531 155.222656 180.980469 155.207031 181.039062 C 154.949219 181.941406 155.59375 184.207031 158.253906 187.617188 C 158.53125 187.921875 158.894531 188.363281 159.261719 188.804688 C 159.949219 189.644531 159.835938 190.894531 159 191.582031 C 158.632812 191.886719 158.1875 192.039062 157.746094 192.039062 C 157.1875 192.039062 156.632812 191.796875 156.25 191.328125 L 156.226562 191.300781 C 155.894531 190.898438 155.570312 190.5 155.238281 190.132812 C 155.234375 190.128906 155.230469 190.125 155.226562 190.117188 C 155.226562 190.117188 155.222656 190.113281 155.222656 190.109375 C 151.277344 185.5625 147.289062 182.8125 144.757812 182.972656 C 144 183.019531 143.398438 183.359375 142.878906 184.015625 C 143.378906 184.894531 143.867188 185.800781 144.332031 186.75 C 144.808594 187.726562 144.40625 188.898438 143.429688 189.375 C 142.464844 189.847656 141.277344 189.445312 140.804688 188.46875 C 140.09375 187.015625 139.339844 185.65625 138.554688 184.425781 C 136.238281 180.734375 134.039062 178.789062 132.1875 178.789062 L 132.167969 178.789062 C 130.394531 178.804688 128.367188 180.617188 126.300781 184.03125 C 125.863281 184.761719 125.019531 185.132812 124.175781 184.929688 C 123.351562 184.730469 122.738281 184.03125 122.664062 183.183594 C 122.550781 181.867188 121.980469 181.664062 121.792969 181.589844 C 120.308594 181.046875 116.71875 182.410156 112.378906 186.726562 C 110.660156 188.40625 108.910156 190.476562 107.171875 192.882812 C 106.785156 193.414062 106.183594 193.695312 105.578125 193.695312 C 105.175781 193.695312 104.777344 193.578125 104.425781 193.324219 C 103.546875 192.691406 103.347656 191.460938 103.984375 190.582031 C 105.523438 188.460938 107.070312 186.585938 108.609375 184.972656 C 108.378906 184.722656 108.101562 184.613281 107.769531 184.554688 C 105.664062 184.199219 101.878906 186.164062 100.394531 187.734375 C 100.402344 192.296875 100.757812 196.78125 101.441406 201.128906 C 105.964844 197.59375 110.972656 194.886719 116.382812 193.058594 C 118.605469 190.730469 120.304688 187.765625 120.320312 187.738281 C 120.855469 186.792969 122.054688 186.464844 122.996094 187 C 123.941406 187.539062 124.269531 188.734375 123.734375 189.675781 C 123.703125 189.742188 123.308594 190.417969 122.667969 191.390625 C 137.59375 188.472656 153.089844 192.542969 161.316406 201.976562 C 164.8125 203.882812 167.933594 207.621094 171.535156 211.945312 C 176.402344 217.792969 181.917969 224.425781 189.464844 227.582031 C 193.9375 229.441406 198.296875 228.34375 200.785156 226.386719 Z M 165.757812 196.625 C 165.371094 197.125 164.789062 197.386719 164.207031 197.386719 C 163.78125 197.386719 163.363281 197.253906 163.003906 196.976562 C 162.375 196.488281 162.027344 196.140625 162.027344 196.140625 C 161.273438 195.371094 161.277344 194.128906 162.042969 193.363281 C 162.808594 192.609375 164.042969 192.609375 164.796875 193.355469 C 164.839844 193.390625 165.050781 193.597656 165.40625 193.871094 C 166.261719 194.535156 166.421875 195.769531 165.757812 196.625 Z M 135.75 244.964844 C 133.386719 243.621094 131.105469 242.59375 128.894531 241.878906 C 135.25 246.230469 141.210938 253.113281 146.417969 259.132812 C 149.582031 262.792969 152.566406 266.234375 155.128906 268.53125 C 160.457031 270.667969 165.9375 272.253906 171.53125 273.296875 C 166.332031 270.304688 160.890625 266 154.867188 260.175781 C 147.351562 252.921875 141.273438 248.085938 135.75 244.964844 Z M 131.621094 237.460938 C 131.789062 235.183594 132.890625 233.257812 134.675781 231.976562 C 133.246094 230.707031 131.132812 229.9375 128.601562 229.816406 C 124.25 229.585938 118.523438 231.375 114.917969 235.761719 C 115.273438 236.304688 115.632812 236.835938 116.003906 237.355469 C 121 236.179688 126.160156 236.613281 131.628906 238.675781 C 131.601562 238.273438 131.597656 237.871094 131.621094 237.460938 " fill-opacity="1" fill-rule="nonzero"/><path fill="#0477bf" d="M 263.160156 208.457031 C 262.132812 202.769531 259.617188 198.628906 256.265625 197.09375 C 256.230469 197.082031 256.199219 197.070312 256.171875 197.054688 C 259.210938 206.316406 260.804688 225.222656 243.527344 239.324219 C 246.480469 241.488281 248.757812 244.511719 250.203125 248.160156 C 261.792969 235.070312 265.085938 219.097656 263.160156 208.457031 Z M 225.527344 219.683594 C 225.433594 219.683594 225.339844 219.667969 225.246094 219.667969 C 225.105469 221.292969 224.738281 222.914062 224.121094 224.457031 C 224.570312 225.308594 224.945312 226.1875 225.269531 227.089844 C 231.136719 224.421875 235.511719 220.140625 237.691406 214.859375 C 237.964844 214.191406 238.191406 213.515625 238.390625 212.835938 C 238.191406 213.09375 237.992188 213.347656 237.777344 213.59375 C 234.476562 217.453125 229.886719 219.683594 225.527344 219.683594 Z M 222.378906 263.585938 C 221.222656 263.589844 219.960938 263.5 218.585938 263.300781 C 207.289062 261.679688 193.128906 252.871094 174.027344 235.585938 C 173.964844 235.535156 173.921875 235.5 173.871094 235.453125 C 171.902344 233.9375 169.960938 232.285156 167.933594 230.394531 C 167.925781 230.386719 167.917969 230.378906 167.910156 230.371094 C 167.34375 229.84375 166.808594 229.3125 166.277344 228.78125 C 166.203125 228.71875 166.136719 228.648438 166.066406 228.574219 C 165.574219 228.09375 165.082031 227.59375 164.597656 227.082031 C 164.183594 227.546875 163.746094 227.984375 163.265625 228.355469 C 163.730469 231.296875 163.707031 234.164062 163.191406 236.773438 C 169.878906 241.933594 181.789062 250.933594 192.390625 257.953125 C 206.300781 267.179688 216.953125 269.699219 225.917969 265.914062 C 225.941406 265.902344 226.066406 265.839844 226.179688 265.792969 C 226.53125 265.617188 226.886719 265.4375 227.242188 265.242188 C 227.324219 265.1875 227.414062 265.144531 227.503906 265.09375 C 227.515625 265.089844 227.519531 265.089844 227.527344 265.082031 C 230.398438 263.546875 232.144531 261.40625 233.097656 259.242188 C 231.425781 261.277344 228.242188 263.585938 222.378906 263.585938 Z M 183.222656 269.152344 C 174.089844 263.105469 164.988281 255.09375 159.542969 250.308594 C 158.074219 249.011719 156.839844 247.925781 155.890625 247.128906 C 154.425781 247.890625 152.816406 248.378906 151.074219 248.582031 C 150.597656 248.644531 150.128906 248.671875 149.664062 248.671875 C 148.972656 248.671875 148.296875 248.585938 147.636719 248.460938 C 150.710938 250.941406 154 253.882812 157.597656 257.355469 C 170.0625 269.40625 179.703125 274.609375 189.835938 274.746094 L 189.847656 274.746094 C 190.523438 274.738281 191.152344 274.707031 191.738281 274.671875 L 191.738281 274.679688 C 191.878906 274.675781 192.003906 274.671875 192.117188 274.671875 C 189.304688 273.210938 186.5 271.339844 183.617188 269.417969 Z M 151.839844 213.34375 C 149.808594 210.839844 146.695312 208.988281 142.6875 207.953125 C 132.453125 205.3125 116.964844 208.667969 106.636719 220.035156 C 107.238281 221.546875 107.902344 223.074219 108.625 224.605469 C 111.589844 221.355469 114.875 218.578125 118.4375 216.339844 C 118.460938 216.324219 118.484375 216.316406 118.507812 216.304688 C 118.511719 216.304688 118.511719 216.300781 118.515625 216.300781 C 118.53125 216.292969 118.542969 216.285156 118.558594 216.277344 C 118.566406 216.273438 118.570312 216.265625 118.574219 216.261719 C 118.582031 216.253906 118.59375 216.253906 118.601562 216.25 C 129.378906 209.539062 141.605469 208.59375 151.839844 213.34375 Z M 119.25 241.695312 C 126.429688 250.757812 135.269531 258.261719 145.285156 263.816406 C 144.679688 263.125 144.070312 262.425781 143.453125 261.707031 C 136.269531 253.40625 127.601562 243.367188 119.25 241.695312 " fill-opacity="1" fill-rule="nonzero"/><g clip-path="url(#6d47b08d71)"><path fill="#112140" d="M 278.714844 187.609375 C 278.714844 186.59375 278.683594 185.601562 278.648438 184.589844 C 278.664062 184.5 278.679688 184.410156 278.679688 184.3125 C 278.679688 184.195312 278.65625 184.074219 278.632812 183.960938 C 276.691406 134.894531 236.710938 96.464844 187.609375 96.464844 C 138.875 96.464844 98.890625 134.558594 96.589844 183.15625 C 96.503906 184.421875 96.464844 185.722656 96.464844 186.980469 L 96.464844 187.609375 C 96.464844 193.621094 97.035156 199.519531 98.148438 205.140625 C 99.136719 210.277344 100.609375 215.386719 102.519531 220.304688 C 103.609375 223.179688 104.921875 226.113281 106.421875 229.035156 C 106.425781 229.042969 106.429688 229.050781 106.433594 229.058594 C 107.992188 232.070312 109.402344 234.515625 110.855469 236.707031 C 111.707031 238.089844 112.648438 239.472656 113.601562 240.746094 C 123.667969 254.746094 137.398438 265.554688 153.296875 272.007812 L 153.296875 272.003906 C 153.3125 272.007812 153.332031 272.019531 153.347656 272.027344 L 153.335938 272.054688 C 164.25 276.472656 175.785156 278.714844 187.609375 278.714844 C 188.394531 278.714844 189.132812 278.714844 189.808594 278.675781 C 190.527344 278.675781 191.289062 278.667969 191.808594 278.597656 C 191.839844 278.597656 191.871094 278.597656 191.898438 278.59375 C 192.28125 278.59375 192.691406 278.589844 193.078125 278.550781 L 193.078125 278.554688 C 196.488281 278.335938 199.546875 277.992188 202.417969 277.507812 C 202.4375 277.503906 202.453125 277.5 202.476562 277.496094 C 202.488281 277.492188 202.5 277.492188 202.511719 277.488281 C 211.183594 276.074219 219.578125 273.390625 227.460938 269.515625 C 227.574219 269.472656 227.800781 269.386719 227.90625 269.320312 C 227.910156 269.316406 227.910156 269.316406 227.914062 269.316406 L 228.886719 268.855469 C 229.042969 268.773438 229.292969 268.652344 229.566406 268.445312 C 237.253906 264.496094 244.363281 259.40625 250.703125 253.308594 L 250.695312 253.304688 C 250.851562 253.191406 251.007812 253.0625 251.042969 252.964844 C 260.566406 243.761719 267.808594 232.84375 272.574219 220.523438 L 272.570312 220.519531 C 272.621094 220.394531 272.660156 220.261719 272.6875 220.121094 C 276.679688 209.832031 278.714844 198.898438 278.714844 187.609375 Z M 230.363281 197.734375 C 230.144531 197.566406 229.917969 197.414062 229.691406 197.28125 C 230.097656 197.09375 230.558594 196.953125 231.046875 196.886719 C 233.539062 196.511719 235.898438 197.867188 237.375 200.484375 C 238.59375 203.785156 237.632812 207.71875 234.792969 211.042969 C 232.136719 214.144531 228.488281 215.878906 225.179688 215.746094 C 224.972656 214.085938 224.535156 212.457031 223.886719 210.898438 C 224.453125 210.929688 225.023438 210.929688 225.59375 210.855469 C 228.480469 210.476562 230.871094 208.839844 231.988281 206.480469 C 233.785156 202.710938 232.46875 199.367188 230.363281 197.734375 Z M 225.246094 219.667969 C 225.339844 219.667969 225.433594 219.683594 225.527344 219.683594 C 229.886719 219.683594 234.476562 217.453125 237.777344 213.59375 C 237.992188 213.347656 238.191406 213.09375 238.390625 212.835938 C 238.191406 213.515625 237.964844 214.191406 237.691406 214.859375 C 235.511719 220.140625 231.136719 224.421875 225.269531 227.089844 C 224.945312 226.1875 224.570312 225.308594 224.121094 224.457031 C 224.738281 222.914062 225.105469 221.292969 225.246094 219.667969 Z M 226.214844 230.972656 C 233.339844 227.921875 238.671875 222.777344 241.320312 216.359375 C 243.644531 210.726562 243.671875 204.640625 241.402344 199.699219 C 241.257812 199.367188 241.070312 199.03125 240.875 198.691406 C 240.875 198.691406 240.875 198.691406 240.875 198.6875 C 240.863281 198.671875 240.859375 198.652344 240.847656 198.632812 C 238.152344 193.773438 233.753906 192.527344 230.484375 193 C 227.140625 193.484375 224.554688 195.6875 223.898438 198.605469 C 223.714844 199.429688 224.074219 200.277344 224.792969 200.710938 C 225.515625 201.148438 226.429688 201.089844 227.074219 200.542969 C 227.160156 200.480469 227.53125 200.511719 227.953125 200.835938 C 228.753906 201.457031 229.359375 202.863281 228.4375 204.792969 C 227.902344 205.929688 226.617188 206.757812 225.089844 206.957031 C 223.191406 207.21875 221.375 206.480469 220.058594 204.917969 C 219.773438 204.601562 219.53125 204.1875 219.324219 203.851562 C 217.789062 201.113281 217.464844 197.6875 218.453125 194.695312 C 219.558594 191.347656 222.246094 188.636719 226.238281 186.839844 C 235.445312 182.664062 246.667969 186.464844 251.25 195.34375 C 254.472656 201.609375 259.128906 222.527344 239.851562 237.214844 C 235.332031 235.261719 230.246094 235.152344 226.019531 236.734375 C 226.398438 234.867188 226.46875 232.929688 226.214844 230.972656 Z M 220.15625 240.769531 C 219.882812 241.085938 219.632812 241.441406 219.367188 241.839844 C 216.953125 244.839844 213.375 246.625 209.796875 246.625 L 209.476562 246.625 C 203.738281 246.1875 198.335938 244.664062 193.4375 242.609375 C 194.121094 242.664062 194.804688 242.691406 195.484375 242.691406 C 198.734375 242.691406 201.964844 242.09375 205.0625 240.722656 C 208.894531 239.011719 211.890625 236.492188 213.976562 233.21875 C 218.457031 226.089844 217.285156 216.710938 211.296875 211.878906 C 208.289062 209.457031 204.570312 208.558594 201.15625 209.328125 C 199.691406 205.714844 196.242188 203.925781 193.207031 203.804688 C 189.578125 203.558594 186.503906 205.820312 185.695312 209.316406 C 185.472656 210.285156 185.953125 211.230469 186.886719 211.566406 C 186.957031 211.652344 187.101562 212.125 186.921875 212.867188 C 186.742188 213.625 186.304688 214.273438 185.816406 214.484375 C 184.734375 214.976562 183.644531 214.921875 182.738281 214.335938 C 181.527344 213.550781 180.84375 211.925781 180.855469 209.894531 C 180.886719 206.503906 182.507812 203.535156 185.4375 201.511719 C 190.289062 198.121094 198.3125 197.847656 202.054688 202.882812 C 202.554688 203.546875 203.421875 203.84375 204.207031 203.582031 C 208.609375 202.234375 213.550781 203.773438 217.128906 207.613281 C 219.734375 210.359375 221.28125 213.984375 221.382812 217.59375 C 221.492188 219.683594 221.066406 221.800781 220.15625 223.722656 C 219.882812 224.3125 219.910156 225 220.242188 225.566406 C 221.09375 227.007812 221.722656 228.566406 222.09375 230.175781 C 222.933594 233.917969 222.246094 237.679688 220.15625 240.769531 Z M 224.59375 256.210938 C 227.496094 256.304688 229.960938 254.871094 231.050781 252.375 C 231.191406 252.054688 231.292969 251.734375 231.378906 251.40625 C 231.621094 252.683594 231.511719 254.195312 230.839844 255.5625 C 229.210938 258.910156 225.042969 260.273438 219.148438 259.410156 C 211.320312 258.289062 202.4375 253.214844 194.058594 247.085938 C 198.46875 248.75 203.242188 249.972656 208.273438 250.453125 C 208.304688 250.460938 208.324219 250.476562 208.355469 250.480469 C 208.621094 250.53125 208.925781 250.546875 209.207031 250.550781 C 209.210938 250.550781 209.210938 250.554688 209.21875 250.554688 C 209.257812 250.554688 209.304688 250.554688 209.347656 250.554688 C 209.351562 250.554688 209.359375 250.558594 209.363281 250.558594 L 209.71875 250.558594 C 210.738281 250.628906 211.757812 250.667969 212.785156 250.667969 C 214.484375 250.667969 216.214844 250.566406 217.984375 250.359375 C 218.871094 253.683594 221.414062 256.035156 224.59375 256.210938 Z M 166.945312 212.582031 C 167.457031 213.191406 167.980469 213.816406 168.515625 214.460938 C 173.671875 220.652344 179.515625 227.675781 187.953125 231.203125 C 194.1875 233.796875 200.351562 232.003906 203.6875 229.074219 C 206.351562 226.738281 207.464844 223.582031 206.667969 220.632812 C 206.4375 219.785156 205.671875 219.195312 204.792969 219.179688 C 203.910156 219.265625 203.136719 219.746094 202.890625 220.585938 C 202.46875 222 201.226562 222.578125 200.253906 222.453125 C 198.8125 222.335938 197.8125 221.09375 197.570312 219.132812 C 197.269531 216.765625 198.433594 214.695312 200.65625 213.617188 C 202.648438 212.683594 205.855469 212.542969 208.835938 214.933594 C 213.292969 218.539062 214.089844 225.65625 210.652344 231.125 C 208.996094 233.722656 206.574219 235.746094 203.464844 237.136719 C 192.539062 241.960938 179.34375 235.355469 170.628906 227.535156 C 170.621094 227.53125 170.617188 227.523438 170.609375 227.519531 C 170.609375 227.519531 170.605469 227.519531 170.605469 227.515625 C 170.597656 227.511719 170.589844 227.503906 170.582031 227.496094 C 170.582031 227.496094 170.578125 227.496094 170.578125 227.496094 C 170.019531 226.972656 169.496094 226.445312 168.90625 225.855469 C 168.90625 225.855469 168.902344 225.851562 168.898438 225.847656 C 168.890625 225.839844 168.875 225.828125 168.863281 225.816406 C 168.132812 225.113281 167.421875 224.359375 166.707031 223.585938 C 167.984375 220.382812 168.042969 216.589844 166.945312 212.582031 Z M 250.878906 183.882812 C 247.664062 178.28125 243.558594 174.679688 239.808594 172.382812 C 244.984375 172.46875 251.59375 174.179688 254.859375 178.714844 C 253.03125 180.070312 251.660156 181.867188 250.878906 183.882812 Z M 233.171875 169.308594 C 226.628906 167.132812 219.574219 167.214844 215.027344 169.558594 C 212.902344 170.65625 211.511719 172.179688 211.007812 173.960938 C 210.835938 174.578125 210.976562 175.246094 211.378906 175.734375 C 211.695312 176.121094 212.132812 176.363281 212.617188 176.441406 C 212.917969 176.824219 213.410156 178.007812 213.230469 179.4375 C 213.058594 180.808594 212.328125 181.789062 211.070312 182.363281 C 208.96875 183.320312 207.351562 182.554688 206.367188 181.746094 C 204.375 180.121094 202.828125 176.441406 203.863281 171.855469 C 205.355469 165.15625 210.175781 161.671875 213.960938 159.929688 C 220.441406 156.949219 228.898438 156.78125 234.089844 159.539062 C 234.535156 159.78125 235.0625 159.828125 235.558594 159.691406 C 243.636719 157.332031 253.113281 158.847656 260.882812 163.734375 C 266.546875 167.300781 270.730469 172.335938 273.046875 178.210938 C 268.65625 175.753906 263.445312 175.542969 260.296875 176.269531 C 259.597656 176.425781 258.945312 176.621094 258.328125 176.84375 C 252.890625 168.773438 239.644531 167.117188 233.171875 169.308594 Z M 187.609375 100.390625 C 229.722656 100.390625 264.796875 129.9375 272.964844 169.863281 C 270.363281 166.15625 267.003906 162.949219 262.976562 160.410156 C 254.515625 155.085938 244.199219 153.347656 235.214844 155.710938 C 228.9375 152.75 219.664062 152.984375 212.320312 156.363281 C 207.730469 158.476562 201.875 162.734375 200.027344 171 C 198.800781 176.464844 200.3125 181.875 203.882812 184.792969 C 206.453125 186.886719 209.660156 187.304688 212.6875 185.941406 C 216.777344 184.09375 217.761719 179.925781 216.921875 176.621094 C 216.636719 175.5 216.171875 174.5625 215.589844 173.871094 C 215.917969 173.582031 216.335938 173.304688 216.828125 173.046875 C 219.929688 171.449219 225.988281 170.890625 232.550781 173.242188 C 236.433594 174.613281 242.511719 177.824219 246.964844 185.027344 C 240.5 180.847656 232.019531 179.898438 224.621094 183.261719 C 218.285156 186.113281 215.742188 190.382812 214.726562 193.460938 C 213.960938 195.769531 213.800781 198.269531 214.1875 200.691406 C 211.054688 199.242188 207.632812 198.789062 204.347656 199.5 C 199.246094 193.945312 190.328125 193.996094 184.203125 197.644531 C 181.550781 196.214844 172.890625 191.042969 156.824219 176.90625 C 156.765625 176.855469 156.703125 176.816406 156.644531 176.777344 C 152.308594 172.964844 147.585938 168.621094 142.597656 163.847656 C 138.632812 160.03125 121.886719 161.011719 118.597656 163.699219 C 115.449219 166.242188 112.367188 168.996094 109.386719 171.664062 C 106.441406 174.292969 103.613281 176.8125 100.820312 179.070312 C 105.101562 134.617188 142.417969 100.390625 187.609375 100.390625 Z M 152.347656 178.214844 C 151.855469 178.8125 151.578125 179.433594 151.429688 179.964844 C 151.308594 180.386719 151.265625 180.832031 151.25 181.289062 C 149.101562 179.898438 146.777344 178.941406 144.535156 179.054688 C 143.085938 179.136719 141.796875 179.671875 140.71875 180.605469 C 137.949219 176.746094 135.144531 174.863281 132.191406 174.863281 L 132.132812 174.863281 C 129.597656 174.882812 127.234375 176.265625 124.972656 179.074219 C 124.464844 178.558594 123.851562 178.160156 123.144531 177.90625 C 120.0625 176.792969 115.882812 178.375 111.425781 182.246094 C 110.660156 181.4375 109.65625 180.898438 108.449219 180.6875 C 107.296875 180.484375 106.007812 180.613281 104.710938 180.953125 C 107.105469 178.960938 109.511719 176.8125 112 174.589844 C 114.949219 171.953125 117.996094 169.234375 121.070312 166.746094 C 123.207031 165.003906 137.671875 164.558594 139.878906 166.683594 C 144.269531 170.882812 148.441406 174.734375 152.347656 178.214844 Z M 100.394531 187.734375 C 101.878906 186.164062 105.664062 184.199219 107.769531 184.554688 C 108.101562 184.613281 108.378906 184.722656 108.609375 184.972656 C 107.070312 186.585938 105.523438 188.460938 103.984375 190.582031 C 103.347656 191.460938 103.546875 192.691406 104.425781 193.324219 C 104.777344 193.578125 105.175781 193.695312 105.578125 193.695312 C 106.183594 193.695312 106.785156 193.414062 107.171875 192.882812 C 108.910156 190.476562 110.660156 188.40625 112.378906 186.726562 C 116.71875 182.410156 120.308594 181.046875 121.792969 181.589844 C 121.980469 181.664062 122.550781 181.867188 122.664062 183.183594 C 122.738281 184.03125 123.351562 184.730469 124.175781 184.929688 C 125.019531 185.132812 125.863281 184.761719 126.300781 184.03125 C 128.367188 180.617188 130.394531 178.804688 132.167969 178.789062 L 132.1875 178.789062 C 134.039062 178.789062 136.238281 180.734375 138.554688 184.425781 C 139.339844 185.65625 140.09375 187.015625 140.804688 188.46875 C 141.277344 189.445312 142.464844 189.847656 143.429688 189.375 C 144.40625 188.898438 144.808594 187.726562 144.332031 186.75 C 143.867188 185.800781 143.378906 184.894531 142.878906 184.015625 C 143.398438 183.359375 144 183.019531 144.757812 182.972656 C 147.289062 182.8125 151.277344 185.5625 155.222656 190.109375 C 155.222656 190.113281 155.226562 190.117188 155.226562 190.117188 C 155.230469 190.125 155.234375 190.128906 155.238281 190.132812 C 155.570312 190.5 155.894531 190.898438 156.226562 191.300781 L 156.25 191.328125 C 156.632812 191.796875 157.1875 192.039062 157.746094 192.039062 C 158.1875 192.039062 158.632812 191.886719 159 191.582031 C 159.835938 190.894531 159.949219 189.644531 159.261719 188.804688 C 158.894531 188.363281 158.53125 187.921875 158.253906 187.617188 C 155.59375 184.207031 154.949219 181.941406 155.207031 181.039062 C 155.222656 180.980469 155.246094 180.894531 155.3125 180.796875 C 168.824219 192.597656 177.011719 198.019531 180.863281 200.273438 C 178.351562 202.867188 176.960938 206.175781 176.929688 209.859375 C 176.902344 213.261719 178.242188 216.097656 180.59375 217.628906 C 182.628906 218.949219 185.125 219.109375 187.414062 218.074219 C 189.824219 217.019531 191.007812 214.210938 190.933594 211.980469 C 190.894531 210.847656 190.550781 209.863281 189.964844 209.121094 C 190.835938 207.765625 192.449219 207.675781 193.050781 207.726562 C 194.8125 207.796875 196.835938 208.871094 197.597656 210.867188 C 194.714844 212.851562 193.230469 216.082031 193.671875 219.617188 C 194.246094 224.257812 197.394531 226.152344 199.925781 226.363281 C 200.21875 226.390625 200.503906 226.402344 200.785156 226.386719 C 198.296875 228.34375 193.9375 229.441406 189.464844 227.582031 C 181.917969 224.425781 176.402344 217.792969 171.535156 211.945312 C 167.933594 207.621094 164.8125 203.882812 161.316406 201.976562 C 153.089844 192.542969 137.59375 188.472656 122.667969 191.390625 C 123.308594 190.417969 123.703125 189.742188 123.734375 189.675781 C 124.269531 188.734375 123.941406 187.539062 122.996094 187 C 122.054688 186.464844 120.855469 186.792969 120.320312 187.738281 C 120.304688 187.765625 118.605469 190.730469 116.382812 193.058594 C 110.972656 194.886719 105.964844 197.59375 101.441406 201.128906 C 100.757812 196.78125 100.402344 192.296875 100.394531 187.734375 Z M 105.101562 215.910156 C 103.925781 212.503906 102.976562 209.03125 102.25 205.535156 C 106.957031 201.527344 112.269531 198.519531 118.082031 196.621094 C 133.144531 191.699219 150.589844 195.265625 158.652344 204.894531 C 158.65625 204.902344 158.664062 204.90625 158.671875 204.914062 C 158.675781 204.917969 158.679688 204.921875 158.683594 204.925781 C 159.375 205.71875 160.011719 206.617188 160.582031 207.597656 C 165.402344 215.914062 163.640625 221.152344 162.664062 223.019531 C 162.648438 223.050781 162.644531 223.085938 162.628906 223.113281 C 162.023438 224.246094 161.152344 225.164062 160.183594 225.6875 C 159.472656 226.066406 158.359375 226.425781 157.105469 225.953125 C 154.734375 225.019531 154.503906 222.835938 154.746094 221.695312 C 154.78125 221.535156 155.167969 220.207031 156.121094 220.121094 C 156.144531 220.121094 156.15625 220.117188 156.179688 220.113281 C 156.191406 220.117188 156.203125 220.117188 156.214844 220.117188 C 156.222656 220.117188 156.226562 220.121094 156.234375 220.121094 C 156.300781 220.121094 156.363281 220.109375 156.429688 220.101562 C 156.496094 220.09375 156.5625 220.09375 156.625 220.082031 C 157.691406 219.867188 158.371094 218.824219 158.160156 217.765625 C 156.800781 211.140625 151.519531 206.179688 143.667969 204.152344 C 133.039062 201.390625 116.871094 204.058594 105.101562 215.910156 Z M 145.808594 220.445312 C 142.339844 217.359375 138.011719 215.40625 133.335938 214.664062 C 139.964844 213.542969 146.519531 214.652344 152.308594 217.988281 C 151.640625 218.753906 151.144531 219.726562 150.902344 220.894531 C 150.265625 223.9375 151.484375 227.964844 155.699219 229.617188 C 156.550781 229.9375 157.433594 230.09375 158.332031 230.09375 C 158.726562 230.09375 159.125 230.054688 159.523438 229.992188 C 159.816406 232.523438 159.675781 234.941406 159.09375 237.054688 C 158.320312 239.75 156.929688 241.796875 154.972656 243.121094 C 153.722656 243.964844 152.261719 244.492188 150.597656 244.683594 C 147.960938 245.03125 145.542969 243.886719 144.375 241.753906 C 143.917969 240.964844 143.46875 239.714844 143.964844 238.203125 C 144.574219 236.316406 145.964844 236.21875 146.378906 236.277344 C 146.996094 236.3125 147.777344 236.644531 147.945312 237.476562 C 148.128906 238.382812 148.917969 239.039062 149.84375 239.050781 C 150.730469 238.871094 151.578125 238.429688 151.785156 237.53125 C 153.195312 231.410156 150.960938 225.027344 145.808594 220.445312 Z M 106.636719 220.035156 C 116.964844 208.667969 132.453125 205.3125 142.6875 207.953125 C 146.695312 208.988281 149.808594 210.839844 151.839844 213.34375 C 141.605469 208.59375 129.378906 209.539062 118.601562 216.25 C 118.59375 216.253906 118.582031 216.253906 118.574219 216.261719 C 118.570312 216.265625 118.566406 216.273438 118.558594 216.277344 C 118.542969 216.285156 118.53125 216.292969 118.515625 216.300781 C 118.511719 216.300781 118.511719 216.304688 118.507812 216.304688 C 118.484375 216.316406 118.460938 216.324219 118.4375 216.339844 C 114.875 218.578125 111.589844 221.355469 108.625 224.605469 C 107.902344 223.074219 107.238281 221.546875 106.636719 220.035156 Z M 112.730469 232.308594 C 112.007812 231.105469 111.277344 229.8125 110.519531 228.386719 C 113.464844 224.945312 116.78125 222.039062 120.402344 219.75 C 130.289062 216.277344 138.652344 219.335938 143.195312 223.378906 C 146.171875 226.023438 147.902344 229.273438 148.226562 232.671875 C 147.714844 232.496094 147.167969 232.386719 146.601562 232.355469 C 143.761719 232.1875 141.199219 234.007812 140.230469 236.984375 C 139.726562 238.527344 139.703125 240.132812 140.113281 241.644531 C 139.167969 241.871094 138.308594 241.820312 137.585938 241.492188 C 137.558594 241.476562 137.527344 241.460938 137.496094 241.445312 C 136.234375 240.796875 135.429688 239.289062 135.542969 237.742188 C 135.609375 236.847656 136.046875 235.230469 138.289062 234.519531 C 138.847656 234.34375 139.300781 233.929688 139.519531 233.382812 C 139.738281 232.839844 139.703125 232.222656 139.425781 231.710938 C 137.539062 228.253906 133.667969 226.136719 128.796875 225.886719 C 123.8125 225.640625 117.234375 227.566406 112.730469 232.308594 Z M 114.917969 235.761719 C 118.523438 231.375 124.25 229.585938 128.601562 229.816406 C 131.132812 229.9375 133.246094 230.707031 134.675781 231.976562 C 132.890625 233.257812 131.789062 235.183594 131.621094 237.460938 C 131.597656 237.871094 131.601562 238.273438 131.628906 238.675781 C 126.160156 236.613281 121 236.179688 116.003906 237.355469 C 115.632812 236.835938 115.273438 236.304688 114.917969 235.761719 Z M 119.25 241.695312 C 127.601562 243.367188 136.269531 253.40625 143.453125 261.707031 C 144.070312 262.425781 144.679688 263.125 145.285156 263.816406 C 135.269531 258.261719 126.429688 250.757812 119.25 241.695312 Z M 155.128906 268.53125 C 152.566406 266.234375 149.582031 262.792969 146.417969 259.132812 C 141.210938 253.113281 135.25 246.230469 128.894531 241.878906 C 131.105469 242.59375 133.386719 243.621094 135.75 244.964844 C 141.273438 248.085938 147.351562 252.921875 154.867188 260.175781 C 160.890625 266 166.332031 270.304688 171.53125 273.296875 C 165.9375 272.253906 160.457031 270.667969 155.128906 268.53125 Z M 191.738281 274.679688 L 191.738281 274.671875 C 191.152344 274.707031 190.523438 274.738281 189.847656 274.746094 L 189.835938 274.746094 C 179.703125 274.609375 170.0625 269.40625 157.597656 257.355469 C 154 253.882812 150.710938 250.941406 147.636719 248.460938 C 148.296875 248.585938 148.972656 248.671875 149.664062 248.671875 C 150.128906 248.671875 150.597656 248.644531 151.074219 248.582031 C 152.816406 248.378906 154.425781 247.890625 155.890625 247.128906 C 156.839844 247.925781 158.074219 249.011719 159.542969 250.308594 C 164.988281 255.09375 174.089844 263.105469 183.222656 269.152344 L 183.617188 269.417969 C 186.5 271.339844 189.304688 273.210938 192.117188 274.671875 C 192.003906 274.671875 191.878906 274.675781 191.738281 274.679688 Z M 201.957031 273.601562 C 196.867188 273.539062 191.734375 270.113281 185.796875 266.152344 L 185.398438 265.882812 C 176.480469 259.980469 167.851562 252.386719 162.140625 247.359375 C 160.996094 246.351562 159.988281 245.464844 159.136719 244.734375 C 160.246094 243.605469 161.171875 242.261719 161.894531 240.730469 C 168.78125 246.023438 180.082031 254.515625 190.21875 261.230469 C 198.582031 266.769531 205.933594 270.050781 212.582031 271.136719 C 209.105469 272.175781 205.558594 273.007812 201.957031 273.601562 Z M 227.527344 265.082031 C 227.519531 265.089844 227.515625 265.089844 227.503906 265.09375 C 227.488281 265.101562 227.472656 265.113281 227.457031 265.121094 C 227.386719 265.164062 227.3125 265.199219 227.242188 265.242188 C 226.886719 265.4375 226.53125 265.617188 226.179688 265.792969 C 226.066406 265.839844 225.941406 265.902344 225.917969 265.914062 C 216.953125 269.699219 206.300781 267.179688 192.390625 257.953125 C 181.789062 250.933594 169.878906 241.933594 163.191406 236.773438 C 163.707031 234.164062 163.730469 231.296875 163.265625 228.355469 C 163.746094 227.984375 164.183594 227.546875 164.597656 227.082031 C 165.082031 227.59375 165.574219 228.09375 166.066406 228.574219 C 166.136719 228.648438 166.203125 228.71875 166.277344 228.78125 C 166.808594 229.3125 167.34375 229.84375 167.910156 230.371094 C 167.917969 230.378906 167.925781 230.386719 167.933594 230.394531 C 169.960938 232.285156 171.902344 233.9375 173.871094 235.453125 C 173.921875 235.5 173.964844 235.535156 174.027344 235.585938 C 193.128906 252.871094 207.289062 261.679688 218.585938 263.300781 C 219.960938 263.5 221.222656 263.589844 222.378906 263.585938 C 228.242188 263.585938 231.425781 261.277344 233.097656 259.242188 C 232.144531 261.40625 230.398438 263.546875 227.527344 265.082031 Z M 237.285156 259.222656 C 237.886719 257.296875 238.058594 255.410156 237.910156 253.789062 C 237.558594 249.839844 235.460938 246.871094 232.375 245.835938 C 232.351562 245.828125 232.328125 245.816406 232.304688 245.808594 C 232.304688 245.808594 232.300781 245.808594 232.300781 245.808594 C 231.140625 245.386719 229.785156 245.261719 228.367188 245.46875 C 227.628906 245.578125 227.019531 246.085938 226.785156 246.792969 C 226.550781 247.5 226.734375 248.277344 227.257812 248.804688 C 227.773438 249.320312 227.730469 250.175781 227.457031 250.792969 C 227.246094 251.265625 226.652344 252.300781 224.789062 252.289062 C 223.039062 252.195312 221.691406 250.417969 221.574219 248.019531 C 221.480469 246.710938 221.828125 245.335938 222.53125 244.175781 C 222.832031 243.8125 223.09375 243.464844 223.289062 243.132812 L 223.695312 242.691406 C 227.292969 239.171875 233.949219 238.542969 239.179688 241.230469 C 239.234375 241.261719 239.289062 241.277344 239.347656 241.296875 C 242.050781 242.710938 245.484375 245.566406 247.148438 251.25 C 244.042969 254.160156 240.75 256.820312 237.285156 259.222656 Z M 250.203125 248.160156 C 248.757812 244.511719 246.480469 241.488281 243.527344 239.324219 C 260.804688 225.222656 259.210938 206.316406 256.171875 197.054688 C 256.199219 197.070312 256.230469 197.082031 256.265625 197.09375 C 259.617188 198.628906 262.132812 202.769531 263.160156 208.457031 C 265.085938 219.097656 261.792969 235.070312 250.203125 248.160156 Z M 268.894531 219.066406 C 268.878906 219.117188 268.871094 219.167969 268.859375 219.222656 C 268.117188 221.148438 267.296875 223.035156 266.425781 224.886719 C 267.789062 218.613281 267.914062 212.671875 267.019531 207.761719 C 266.144531 202.894531 264.335938 198.980469 261.785156 196.328125 C 262.765625 195.789062 263.628906 195.007812 264.265625 194.023438 C 265.164062 192.652344 265.457031 191.144531 265.160156 189.722656 C 265.542969 189.867188 265.871094 190.074219 266.082031 190.21875 C 269.289062 192.445312 274.011719 201.34375 268.894531 219.066406 Z M 268.316406 186.992188 C 265.855469 185.289062 263.074219 185.160156 261.050781 186.660156 C 260.601562 186.996094 260.3125 187.5 260.265625 188.058594 C 260.21875 188.613281 260.40625 189.167969 260.78125 189.578125 C 261.445312 190.285156 261.511719 191.0625 260.976562 191.878906 C 260.375 192.816406 259.0625 193.5625 257.792969 193.136719 C 255.605469 192.382812 254.25 190.605469 254.082031 188.253906 C 253.878906 185.367188 255.570312 182.5625 258.445312 181.085938 C 259.242188 180.660156 260.128906 180.332031 261.164062 180.097656 C 264.800781 179.257812 271.476562 180.253906 274.730469 184.878906 C 274.761719 185.792969 274.789062 186.6875 274.789062 187.609375 C 274.789062 190.847656 274.59375 194.046875 274.246094 197.210938 C 273.136719 192.320312 270.96875 188.828125 268.316406 186.992188 Z M 163.003906 196.976562 C 163.363281 197.253906 163.78125 197.386719 164.207031 197.386719 C 164.789062 197.386719 165.371094 197.125 165.757812 196.625 C 166.421875 195.769531 166.261719 194.535156 165.40625 193.871094 C 165.050781 193.597656 164.839844 193.390625 164.796875 193.355469 C 164.042969 192.609375 162.808594 192.609375 162.042969 193.363281 C 161.277344 194.128906 161.273438 195.371094 162.027344 196.140625 C 162.027344 196.140625 162.375 196.488281 163.003906 196.976562 " fill-opacity="1" fill-rule="nonzero"/></g><g fill="#000000" fill-opacity="1"><g transform="translate(97.815324, 145.147517)"><g><path d="M -0.390625 -2.015625 L -9.546875 -7.09375 C -9.890625 -7.289062 -10.117188 -7.582031 -10.234375 -7.96875 C -10.347656 -8.351562 -10.304688 -8.71875 -10.109375 -9.0625 C -9.910156 -9.414062 -9.617188 -9.644531 -9.234375 -9.75 C -8.847656 -9.863281 -8.484375 -9.820312 -8.140625 -9.625 L -4.765625 -7.765625 L -2.1875 -12.40625 L -5.5625 -14.265625 C -5.90625 -14.460938 -6.132812 -14.753906 -6.25 -15.140625 C -6.363281 -15.523438 -6.320312 -15.894531 -6.125 -16.25 C -5.9375 -16.59375 -5.644531 -16.816406 -5.25 -16.921875 C -4.863281 -17.035156 -4.5 -16.992188 -4.15625 -16.796875 L 5 -11.71875 C 5.34375 -11.53125 5.566406 -11.242188 5.671875 -10.859375 C 5.773438 -10.484375 5.734375 -10.125 5.546875 -9.78125 C 5.347656 -9.425781 5.054688 -9.191406 4.671875 -9.078125 C 4.296875 -8.960938 3.9375 -9 3.59375 -9.1875 L 0.140625 -11.109375 L -2.4375 -6.46875 L 1.015625 -4.546875 C 1.359375 -4.359375 1.582031 -4.070312 1.6875 -3.6875 C 1.800781 -3.3125 1.757812 -2.945312 1.5625 -2.59375 C 1.363281 -2.25 1.070312 -2.019531 0.6875 -1.90625 C 0.3125 -1.789062 -0.046875 -1.828125 -0.390625 -2.015625 Z M -0.390625 -2.015625 "/></g></g></g><g fill="#000000" fill-opacity="1"><g transform="translate(106.209564, 130.47345)"><g><path d="M -0.921875 -1.828125 L -6.09375 -11.859375 C -6.28125 -12.210938 -6.359375 -12.5625 -6.328125 -12.90625 C -6.304688 -13.25 -6.171875 -13.578125 -5.921875 -13.890625 L -5.8125 -14.03125 C -5.5625 -14.34375 -5.273438 -14.539062 -4.953125 -14.625 C -4.628906 -14.71875 -4.273438 -14.710938 -3.890625 -14.609375 L 7.015625 -11.703125 C 7.304688 -11.609375 7.492188 -11.523438 7.578125 -11.453125 C 7.890625 -11.210938 8.0625 -10.90625 8.09375 -10.53125 C 8.132812 -10.15625 8.03125 -9.816406 7.78125 -9.515625 C 7.570312 -9.253906 7.328125 -9.09375 7.046875 -9.03125 C 6.765625 -8.976562 6.46875 -8.984375 6.15625 -9.046875 L 4.015625 -9.65625 L 0.390625 -5.15625 L 1.484375 -3.09375 C 1.628906 -2.8125 1.6875 -2.53125 1.65625 -2.25 C 1.625 -1.976562 1.515625 -1.726562 1.328125 -1.5 C 1.097656 -1.207031 0.800781 -1.039062 0.4375 -1 C 0.0820312 -0.957031 -0.242188 -1.054688 -0.546875 -1.296875 C -0.617188 -1.359375 -0.6875 -1.429688 -0.75 -1.515625 C -0.8125 -1.609375 -0.867188 -1.710938 -0.921875 -1.828125 Z M -0.9375 -7.609375 L 1.34375 -10.4375 L -3.171875 -11.71875 Z M -0.9375 -7.609375 "/></g></g></g><g fill="#000000" fill-opacity="1"><g transform="translate(116.963064, 117.354313)"><g><path d="M 0.34375 -2.015625 L -6.5 -9.921875 C -6.757812 -10.234375 -6.875 -10.582031 -6.84375 -10.96875 C -6.8125 -11.363281 -6.644531 -11.691406 -6.34375 -11.953125 L -6.09375 -12.171875 C -5.851562 -12.378906 -5.609375 -12.492188 -5.359375 -12.515625 C -5.109375 -12.546875 -4.859375 -12.53125 -4.609375 -12.46875 L 1.734375 -10.453125 L 0.65625 -17.046875 C 0.570312 -17.609375 0.742188 -18.070312 1.171875 -18.4375 L 1.40625 -18.640625 C 1.707031 -18.910156 2.054688 -19.03125 2.453125 -19 C 2.847656 -18.976562 3.175781 -18.8125 3.4375 -18.5 L 10.25 -10.609375 C 10.507812 -10.316406 10.625 -9.972656 10.59375 -9.578125 C 10.570312 -9.179688 10.410156 -8.847656 10.109375 -8.578125 C 9.804688 -8.328125 9.457031 -8.21875 9.0625 -8.25 C 8.664062 -8.28125 8.335938 -8.441406 8.078125 -8.734375 L 3.8125 -13.6875 L 4.4375 -9.078125 C 4.476562 -8.816406 4.46875 -8.570312 4.40625 -8.34375 C 4.34375 -8.125 4.207031 -7.925781 4 -7.75 C 3.800781 -7.570312 3.585938 -7.46875 3.359375 -7.4375 C 3.128906 -7.414062 2.882812 -7.441406 2.625 -7.515625 L -1.78125 -8.78125 L 2.484375 -3.859375 C 2.742188 -3.546875 2.859375 -3.203125 2.828125 -2.828125 C 2.796875 -2.453125 2.632812 -2.132812 2.34375 -1.875 C 2.03125 -1.601562 1.679688 -1.476562 1.296875 -1.5 C 0.921875 -1.53125 0.601562 -1.703125 0.34375 -2.015625 Z M 0.34375 -2.015625 "/></g></g></g><g fill="#000000" fill-opacity="1"><g transform="translate(131.491593, 105.278556)"><g><path d="M 0.25 -1.640625 L 0.234375 -1.6875 C -0.0234375 -2.113281 -0.101562 -2.59375 0 -3.125 L 1.796875 -13.40625 L -3.21875 -10.421875 C -3.507812 -10.242188 -3.828125 -10.191406 -4.171875 -10.265625 C -4.515625 -10.347656 -4.773438 -10.535156 -4.953125 -10.828125 C -5.128906 -11.128906 -5.171875 -11.453125 -5.078125 -11.796875 C -4.992188 -12.148438 -4.804688 -12.414062 -4.515625 -12.59375 L 2.6875 -16.890625 C 2.988281 -17.066406 3.3125 -17.109375 3.65625 -17.015625 C 4 -16.921875 4.257812 -16.722656 4.4375 -16.421875 L 4.46875 -16.390625 C 4.707031 -15.972656 4.789062 -15.492188 4.71875 -14.953125 L 2.90625 -4.671875 L 8.109375 -7.78125 C 8.410156 -7.957031 8.734375 -8 9.078125 -7.90625 C 9.421875 -7.820312 9.679688 -7.628906 9.859375 -7.328125 C 10.035156 -7.023438 10.078125 -6.707031 9.984375 -6.375 C 9.898438 -6.039062 9.707031 -5.785156 9.40625 -5.609375 L 2.015625 -1.203125 C 1.710938 -1.015625 1.382812 -0.960938 1.03125 -1.046875 C 0.6875 -1.140625 0.425781 -1.335938 0.25 -1.640625 Z M 0.25 -1.640625 "/></g></g></g><g fill="#000000" fill-opacity="1"><g transform="translate(145.293664, 97.266747)"><g><path d="M 0.109375 -2.046875 L 0.625 -13.328125 C 0.644531 -13.722656 0.75 -14.0625 0.9375 -14.34375 C 1.132812 -14.632812 1.421875 -14.851562 1.796875 -15 L 1.953125 -15.0625 C 2.328125 -15.207031 2.675781 -15.238281 3 -15.15625 C 3.332031 -15.070312 3.632812 -14.882812 3.90625 -14.59375 L 11.921875 -6.625 C 12.128906 -6.40625 12.25 -6.242188 12.28125 -6.140625 C 12.425781 -5.773438 12.421875 -5.414062 12.265625 -5.0625 C 12.117188 -4.71875 11.867188 -4.476562 11.515625 -4.34375 C 11.203125 -4.21875 10.90625 -4.203125 10.625 -4.296875 C 10.351562 -4.390625 10.097656 -4.546875 9.859375 -4.765625 L 8.28125 -6.375 L 2.90625 -4.28125 L 2.828125 -1.953125 C 2.816406 -1.628906 2.726562 -1.351562 2.5625 -1.125 C 2.40625 -0.894531 2.1875 -0.722656 1.90625 -0.609375 C 1.5625 -0.472656 1.21875 -0.484375 0.875 -0.640625 C 0.539062 -0.796875 0.304688 -1.050781 0.171875 -1.40625 C 0.140625 -1.5 0.117188 -1.597656 0.109375 -1.703125 C 0.109375 -1.816406 0.109375 -1.929688 0.109375 -2.046875 Z M 2.96875 -7.0625 L 6.359375 -8.375 L 3.09375 -11.75 Z M 2.96875 -7.0625 "/></g></g></g><g fill="#000000" fill-opacity="1"><g transform="translate(161.235322, 91.320754)"><g><path d="M 1.28125 -1.609375 L -0.796875 -11.875 C -0.867188 -12.257812 -0.796875 -12.617188 -0.578125 -12.953125 C -0.359375 -13.285156 -0.0546875 -13.488281 0.328125 -13.5625 C 0.722656 -13.644531 1.085938 -13.578125 1.421875 -13.359375 C 1.753906 -13.140625 1.957031 -12.835938 2.03125 -12.453125 L 2.796875 -8.671875 L 8.015625 -9.71875 L 7.25 -13.5 C 7.175781 -13.882812 7.242188 -14.242188 7.453125 -14.578125 C 7.671875 -14.910156 7.984375 -15.117188 8.390625 -15.203125 C 8.773438 -15.273438 9.132812 -15.203125 9.46875 -14.984375 C 9.800781 -14.765625 10.003906 -14.460938 10.078125 -14.078125 L 12.15625 -3.8125 C 12.238281 -3.425781 12.164062 -3.066406 11.9375 -2.734375 C 11.71875 -2.398438 11.414062 -2.195312 11.03125 -2.125 C 10.625 -2.039062 10.257812 -2.109375 9.9375 -2.328125 C 9.613281 -2.546875 9.410156 -2.847656 9.328125 -3.234375 L 8.546875 -7.09375 L 3.328125 -6.046875 L 4.109375 -2.1875 C 4.191406 -1.800781 4.117188 -1.441406 3.890625 -1.109375 C 3.671875 -0.773438 3.363281 -0.566406 2.96875 -0.484375 C 2.582031 -0.410156 2.222656 -0.484375 1.890625 -0.703125 C 1.566406 -0.921875 1.363281 -1.222656 1.28125 -1.609375 Z M 1.28125 -1.609375 "/></g></g></g><g fill="#000000" fill-opacity="1"><g transform="translate(178.125765, 88.378113)"><g/></g></g><g fill="#000000" fill-opacity="1"><g transform="translate(186.668708, 87.713624)"><g><path d="M 2.234375 -11.578125 C 2.253906 -11.972656 2.410156 -12.300781 2.703125 -12.5625 C 3.003906 -12.832031 3.351562 -12.957031 3.75 -12.9375 L 8.296875 -12.6875 C 8.992188 -12.644531 9.632812 -12.515625 10.21875 -12.296875 C 10.8125 -12.085938 11.320312 -11.796875 11.75 -11.421875 C 12.175781 -11.046875 12.503906 -10.578125 12.734375 -10.015625 C 12.960938 -9.460938 13.054688 -8.816406 13.015625 -8.078125 L 13.015625 -8.03125 C 12.953125 -6.988281 12.660156 -6.15625 12.140625 -5.53125 C 11.628906 -4.914062 10.96875 -4.472656 10.15625 -4.203125 L 12.015625 -1.65625 C 12.140625 -1.46875 12.242188 -1.285156 12.328125 -1.109375 C 12.410156 -0.941406 12.441406 -0.742188 12.421875 -0.515625 C 12.398438 -0.117188 12.242188 0.191406 11.953125 0.421875 C 11.660156 0.648438 11.335938 0.753906 10.984375 0.734375 C 10.660156 0.710938 10.390625 0.625 10.171875 0.46875 C 9.953125 0.3125 9.757812 0.117188 9.59375 -0.109375 L 6.984375 -3.828125 L 4.703125 -3.953125 L 4.546875 -1.078125 C 4.523438 -0.679688 4.363281 -0.347656 4.0625 -0.078125 C 3.769531 0.179688 3.421875 0.300781 3.015625 0.28125 C 2.617188 0.257812 2.285156 0.101562 2.015625 -0.1875 C 1.753906 -0.488281 1.632812 -0.835938 1.65625 -1.234375 Z M 5.0625 -10.25 L 4.84375 -6.484375 L 7.75 -6.3125 C 8.457031 -6.28125 9.007812 -6.421875 9.40625 -6.734375 C 9.8125 -7.046875 10.03125 -7.484375 10.0625 -8.046875 L 10.0625 -8.078125 C 10.101562 -8.710938 9.929688 -9.195312 9.546875 -9.53125 C 9.171875 -9.863281 8.625 -10.050781 7.90625 -10.09375 Z M 5.0625 -10.25 "/></g></g></g><g fill="#000000" fill-opacity="1"><g transform="translate(202.866488, 88.824842)"><g><path d="M 5.671875 -12.28125 C 6.054688 -12.195312 6.351562 -11.984375 6.5625 -11.640625 C 6.769531 -11.304688 6.832031 -10.945312 6.75 -10.5625 L 5.40625 -4.625 C 5.15625 -3.550781 5.210938 -2.695312 5.578125 -2.0625 C 5.953125 -1.4375 6.582031 -1.023438 7.46875 -0.828125 C 8.34375 -0.628906 9.078125 -0.726562 9.671875 -1.125 C 10.265625 -1.519531 10.675781 -2.234375 10.90625 -3.265625 L 12.28125 -9.296875 C 12.363281 -9.679688 12.570312 -9.984375 12.90625 -10.203125 C 13.25 -10.421875 13.613281 -10.484375 14 -10.390625 C 14.394531 -10.304688 14.695312 -10.09375 14.90625 -9.75 C 15.125 -9.414062 15.191406 -9.054688 15.109375 -8.671875 L 13.765625 -2.75 C 13.546875 -1.78125 13.21875 -0.960938 12.78125 -0.296875 C 12.351562 0.367188 11.84375 0.882812 11.25 1.25 C 10.65625 1.625 9.984375 1.851562 9.234375 1.9375 C 8.492188 2.019531 7.691406 1.960938 6.828125 1.765625 C 5.109375 1.367188 3.863281 0.582031 3.09375 -0.59375 C 2.332031 -1.769531 2.164062 -3.300781 2.59375 -5.1875 L 3.953125 -11.203125 C 4.035156 -11.585938 4.242188 -11.882812 4.578125 -12.09375 C 4.910156 -12.3125 5.273438 -12.375 5.671875 -12.28125 Z M 5.671875 -12.28125 "/></g></g></g><g fill="#000000" fill-opacity="1"><g transform="translate(219.269992, 92.857082)"><g><path d="M 3.390625 -2.734375 C 3.566406 -2.671875 3.703125 -2.585938 3.796875 -2.484375 C 3.898438 -2.378906 3.984375 -2.285156 4.046875 -2.203125 C 4.378906 -1.671875 4.757812 -1.203125 5.1875 -0.796875 C 5.613281 -0.390625 6.125 -0.0703125 6.71875 0.15625 C 7.28125 0.382812 7.753906 0.457031 8.140625 0.375 C 8.523438 0.300781 8.789062 0.0859375 8.9375 -0.265625 L 8.953125 -0.3125 C 9.023438 -0.488281 9.054688 -0.65625 9.046875 -0.8125 C 9.035156 -0.96875 8.960938 -1.144531 8.828125 -1.34375 C 8.703125 -1.539062 8.503906 -1.753906 8.234375 -1.984375 C 7.960938 -2.222656 7.59375 -2.507812 7.125 -2.84375 C 6.582031 -3.238281 6.09375 -3.628906 5.65625 -4.015625 C 5.21875 -4.398438 4.882812 -4.800781 4.65625 -5.21875 C 4.425781 -5.632812 4.296875 -6.082031 4.265625 -6.5625 C 4.234375 -7.039062 4.335938 -7.582031 4.578125 -8.1875 L 4.609375 -8.234375 C 4.828125 -8.785156 5.128906 -9.242188 5.515625 -9.609375 C 5.910156 -9.972656 6.363281 -10.238281 6.875 -10.40625 C 7.382812 -10.582031 7.929688 -10.648438 8.515625 -10.609375 C 9.109375 -10.578125 9.71875 -10.4375 10.34375 -10.1875 C 11.8125 -9.59375 12.953125 -8.71875 13.765625 -7.5625 C 13.890625 -7.394531 13.972656 -7.203125 14.015625 -6.984375 C 14.066406 -6.765625 14.039062 -6.519531 13.9375 -6.25 C 13.789062 -5.90625 13.550781 -5.660156 13.21875 -5.515625 C 12.882812 -5.378906 12.539062 -5.378906 12.1875 -5.515625 C 11.9375 -5.617188 11.738281 -5.773438 11.59375 -5.984375 C 10.925781 -6.890625 10.175781 -7.507812 9.34375 -7.84375 C 8.820312 -8.050781 8.390625 -8.101562 8.046875 -8 C 7.710938 -7.90625 7.484375 -7.707031 7.359375 -7.40625 L 7.34375 -7.375 C 7.257812 -7.164062 7.226562 -6.972656 7.25 -6.796875 C 7.269531 -6.628906 7.359375 -6.453125 7.515625 -6.265625 C 7.671875 -6.078125 7.894531 -5.859375 8.1875 -5.609375 C 8.488281 -5.359375 8.875 -5.0625 9.34375 -4.71875 C 9.875 -4.300781 10.34375 -3.894531 10.75 -3.5 C 11.15625 -3.101562 11.460938 -2.695312 11.671875 -2.28125 C 11.890625 -1.863281 12.003906 -1.429688 12.015625 -0.984375 C 12.035156 -0.535156 11.941406 -0.046875 11.734375 0.484375 L 11.71875 0.53125 C 11.46875 1.125 11.132812 1.609375 10.71875 1.984375 C 10.3125 2.367188 9.847656 2.644531 9.328125 2.8125 C 8.816406 2.976562 8.253906 3.035156 7.640625 2.984375 C 7.023438 2.929688 6.390625 2.769531 5.734375 2.5 C 4.929688 2.175781 4.1875 1.738281 3.5 1.1875 C 2.820312 0.632812 2.234375 -0.03125 1.734375 -0.8125 C 1.617188 -0.976562 1.550781 -1.164062 1.53125 -1.375 C 1.507812 -1.59375 1.539062 -1.804688 1.625 -2.015625 C 1.757812 -2.359375 2 -2.597656 2.34375 -2.734375 C 2.695312 -2.878906 3.046875 -2.878906 3.390625 -2.734375 Z M 3.390625 -2.734375 "/></g></g></g><g fill="#000000" fill-opacity="1"><g transform="translate(232.88445, 98.471038)"><g><path d="M 2.046875 -0.328125 L 7.453125 -9.296875 C 7.648438 -9.628906 7.941406 -9.84375 8.328125 -9.9375 C 8.710938 -10.03125 9.070312 -9.972656 9.40625 -9.765625 C 9.757812 -9.554688 9.984375 -9.257812 10.078125 -8.875 C 10.171875 -8.488281 10.117188 -8.128906 9.921875 -7.796875 L 7.921875 -4.484375 L 12.46875 -1.75 L 14.46875 -5.0625 C 14.664062 -5.394531 14.957031 -5.609375 15.34375 -5.703125 C 15.726562 -5.796875 16.097656 -5.738281 16.453125 -5.53125 C 16.785156 -5.320312 17 -5.023438 17.09375 -4.640625 C 17.195312 -4.253906 17.148438 -3.894531 16.953125 -3.5625 L 11.546875 5.40625 C 11.335938 5.75 11.035156 5.96875 10.640625 6.0625 C 10.253906 6.15625 9.894531 6.097656 9.5625 5.890625 C 9.207031 5.679688 8.984375 5.382812 8.890625 5 C 8.796875 4.613281 8.851562 4.25 9.0625 3.90625 L 11.09375 0.53125 L 6.546875 -2.203125 L 4.515625 1.171875 C 4.304688 1.515625 4.007812 1.734375 3.625 1.828125 C 3.238281 1.921875 2.867188 1.863281 2.515625 1.65625 C 2.179688 1.445312 1.96875 1.148438 1.875 0.765625 C 1.78125 0.378906 1.835938 0.015625 2.046875 -0.328125 Z M 2.046875 -0.328125 "/></g></g></g><g fill="#000000" fill-opacity="1"><g transform="translate(247.245487, 107.371505)"><g><path d="M 8.84375 -7.796875 C 9.101562 -8.097656 9.429688 -8.257812 9.828125 -8.28125 C 10.234375 -8.300781 10.585938 -8.179688 10.890625 -7.921875 L 13.65625 -5.515625 C 14.445312 -4.835938 15.050781 -4.09375 15.46875 -3.28125 C 15.894531 -2.476562 16.148438 -1.648438 16.234375 -0.796875 C 16.316406 0.046875 16.222656 0.878906 15.953125 1.703125 C 15.691406 2.523438 15.257812 3.285156 14.65625 3.984375 L 14.625 4.015625 C 14.019531 4.710938 13.328125 5.25 12.546875 5.625 C 11.773438 6.007812 10.960938 6.21875 10.109375 6.25 C 9.253906 6.289062 8.394531 6.160156 7.53125 5.859375 C 6.664062 5.554688 5.835938 5.066406 5.046875 4.390625 L 2.28125 1.984375 C 1.976562 1.722656 1.8125 1.390625 1.78125 0.984375 C 1.75 0.585938 1.863281 0.242188 2.125 -0.046875 Z M 6.75 2.421875 C 7.195312 2.804688 7.664062 3.085938 8.15625 3.265625 C 8.65625 3.441406 9.144531 3.507812 9.625 3.46875 C 10.113281 3.425781 10.585938 3.289062 11.046875 3.0625 C 11.515625 2.832031 11.941406 2.492188 12.328125 2.046875 L 12.34375 2.03125 C 12.726562 1.59375 13.003906 1.125 13.171875 0.625 C 13.335938 0.125 13.40625 -0.363281 13.375 -0.84375 C 13.351562 -1.332031 13.21875 -1.804688 12.96875 -2.265625 C 12.726562 -2.734375 12.382812 -3.160156 11.9375 -3.546875 L 10.265625 -5.015625 L 5.078125 0.953125 Z M 6.75 2.421875 "/></g></g></g><g fill="#000000" fill-opacity="1"><g transform="translate(260.152175, 118.896375)"><g><path d="M 1.96875 -0.515625 L 12.875 -3.484375 C 13.25 -3.585938 13.601562 -3.59375 13.9375 -3.5 C 14.28125 -3.40625 14.578125 -3.203125 14.828125 -2.890625 L 14.9375 -2.765625 C 15.1875 -2.453125 15.320312 -2.125 15.34375 -1.78125 C 15.363281 -1.445312 15.28125 -1.101562 15.09375 -0.75 L 9.96875 9.3125 C 9.8125 9.570312 9.695312 9.734375 9.625 9.796875 C 9.3125 10.046875 8.96875 10.148438 8.59375 10.109375 C 8.226562 10.066406 7.925781 9.894531 7.6875 9.59375 C 7.476562 9.34375 7.367188 9.070312 7.359375 8.78125 C 7.359375 8.488281 7.425781 8.195312 7.5625 7.90625 L 8.609375 5.921875 L 4.96875 1.4375 L 2.71875 2.09375 C 2.414062 2.175781 2.128906 2.175781 1.859375 2.09375 C 1.597656 2.007812 1.375 1.847656 1.1875 1.609375 C 0.945312 1.316406 0.84375 0.988281 0.875 0.625 C 0.914062 0.269531 1.082031 -0.0234375 1.375 -0.265625 C 1.457031 -0.328125 1.550781 -0.378906 1.65625 -0.421875 C 1.757812 -0.460938 1.863281 -0.492188 1.96875 -0.515625 Z M 7.625 0.65625 L 9.921875 3.484375 L 12.125 -0.671875 Z M 7.625 0.65625 "/></g></g></g><g fill="#000000" fill-opacity="1"><g transform="translate(270.719954, 132.212203)"><g><path d="M 1.90625 0.734375 L 11.03125 -4.359375 C 11.382812 -4.554688 11.753906 -4.597656 12.140625 -4.484375 C 12.523438 -4.378906 12.8125 -4.15625 13 -3.8125 L 13.140625 -3.546875 C 13.316406 -3.234375 13.390625 -2.941406 13.359375 -2.671875 C 13.335938 -2.398438 13.265625 -2.117188 13.140625 -1.828125 L 9.46875 6.609375 L 15.375 3.3125 C 15.71875 3.125 16.078125 3.082031 16.453125 3.1875 C 16.828125 3.289062 17.113281 3.515625 17.3125 3.859375 C 17.5 4.203125 17.539062 4.5625 17.4375 4.9375 C 17.332031 5.3125 17.109375 5.59375 16.765625 5.78125 L 7.65625 10.875 C 7.300781 11.070312 6.929688 11.113281 6.546875 11 C 6.171875 10.894531 5.882812 10.671875 5.6875 10.328125 L 5.640625 10.25 C 5.472656 9.9375 5.398438 9.644531 5.421875 9.375 C 5.453125 9.113281 5.523438 8.832031 5.640625 8.53125 L 9.4375 -0.203125 L 3.296875 3.21875 C 2.953125 3.414062 2.59375 3.457031 2.21875 3.34375 C 1.84375 3.238281 1.5625 3.015625 1.375 2.671875 C 1.175781 2.316406 1.128906 1.953125 1.234375 1.578125 C 1.335938 1.210938 1.5625 0.929688 1.90625 0.734375 Z M 1.90625 0.734375 "/></g></g></g><g fill="#000000" fill-opacity="1"><g transform="translate(123.303429, 278.298381)"><g><path d="M 5.6875 -8.5625 C 5.863281 -8.851562 6.117188 -9.035156 6.453125 -9.109375 C 6.796875 -9.179688 7.125 -9.128906 7.4375 -8.953125 C 7.6875 -8.804688 7.859375 -8.601562 7.953125 -8.34375 C 8.054688 -8.09375 8.082031 -7.832031 8.03125 -7.5625 L 6.421875 -0.40625 L 11.890625 -5.203125 C 12.128906 -5.398438 12.382812 -5.519531 12.65625 -5.5625 C 12.9375 -5.613281 13.210938 -5.554688 13.484375 -5.390625 L 13.65625 -5.296875 C 13.925781 -5.140625 14.109375 -4.925781 14.203125 -4.65625 C 14.304688 -4.394531 14.320312 -4.113281 14.25 -3.8125 L 12.703125 3.3125 L 18.1875 -1.5625 C 18.382812 -1.71875 18.613281 -1.820312 18.875 -1.875 C 19.132812 -1.925781 19.40625 -1.867188 19.6875 -1.703125 C 19.976562 -1.535156 20.171875 -1.289062 20.265625 -0.96875 C 20.359375 -0.644531 20.316406 -0.332031 20.140625 -0.03125 C 20.097656 0.03125 20.046875 0.0859375 19.984375 0.140625 C 19.921875 0.203125 19.859375 0.257812 19.796875 0.3125 L 12.484375 6.40625 C 12.234375 6.613281 11.960938 6.738281 11.671875 6.78125 C 11.390625 6.820312 11.117188 6.765625 10.859375 6.609375 L 10.625 6.484375 C 10.363281 6.328125 10.1875 6.117188 10.09375 5.859375 C 10.007812 5.597656 9.992188 5.300781 10.046875 4.96875 L 11.4375 -1.796875 L 6.171875 2.6875 C 5.910156 2.894531 5.640625 3.019531 5.359375 3.0625 C 5.085938 3.101562 4.820312 3.046875 4.5625 2.890625 L 4.328125 2.75 C 4.066406 2.601562 3.882812 2.394531 3.78125 2.125 C 3.6875 1.851562 3.671875 1.554688 3.734375 1.234375 L 5.546875 -8.109375 C 5.566406 -8.179688 5.585938 -8.257812 5.609375 -8.34375 C 5.628906 -8.425781 5.65625 -8.5 5.6875 -8.5625 Z M 5.6875 -8.5625 "/></g></g></g><g fill="#000000" fill-opacity="1"><g transform="translate(141.612315, 288.518474)"><g><path d="M 1.71875 -0.65625 L 5 -8.921875 C 5.125 -9.242188 5.34375 -9.472656 5.65625 -9.609375 C 5.976562 -9.753906 6.300781 -9.757812 6.625 -9.625 L 12.5 -7.296875 C 12.789062 -7.179688 12.992188 -6.984375 13.109375 -6.703125 C 13.234375 -6.421875 13.238281 -6.132812 13.125 -5.84375 C 13.007812 -5.550781 12.8125 -5.34375 12.53125 -5.21875 C 12.257812 -5.101562 11.976562 -5.101562 11.6875 -5.21875 L 6.96875 -7.09375 L 6.109375 -4.9375 L 10.140625 -3.34375 C 10.429688 -3.226562 10.632812 -3.03125 10.75 -2.75 C 10.875 -2.476562 10.878906 -2.191406 10.765625 -1.890625 C 10.648438 -1.597656 10.453125 -1.394531 10.171875 -1.28125 C 9.898438 -1.164062 9.617188 -1.164062 9.328125 -1.28125 L 5.296875 -2.875 L 4.421875 -0.65625 L 9.203125 1.234375 C 9.492188 1.359375 9.695312 1.5625 9.8125 1.84375 C 9.9375 2.125 9.941406 2.410156 9.828125 2.703125 C 9.710938 2.992188 9.515625 3.195312 9.234375 3.3125 C 8.953125 3.4375 8.664062 3.4375 8.375 3.3125 L 2.4375 0.96875 C 2.113281 0.832031 1.878906 0.601562 1.734375 0.28125 C 1.597656 -0.03125 1.59375 -0.34375 1.71875 -0.65625 Z M 1.71875 -0.65625 "/></g></g></g><g fill="#000000" fill-opacity="1"><g transform="translate(154.591329, 293.483482)"><g><path d="M 1.625 -0.890625 L 3.8125 -9.5 C 3.894531 -9.832031 4.085938 -10.085938 4.390625 -10.265625 C 4.691406 -10.441406 5.015625 -10.488281 5.359375 -10.40625 L 9.265625 -9.40625 C 9.710938 -9.289062 10.140625 -9.125 10.546875 -8.90625 C 10.953125 -8.6875 11.296875 -8.421875 11.578125 -8.109375 C 11.867188 -7.796875 12.070312 -7.429688 12.1875 -7.015625 C 12.300781 -6.597656 12.289062 -6.128906 12.15625 -5.609375 L 12.15625 -5.578125 C 11.988281 -4.960938 11.71875 -4.503906 11.34375 -4.203125 C 10.96875 -3.898438 10.550781 -3.691406 10.09375 -3.578125 C 10.675781 -3.171875 11.097656 -2.710938 11.359375 -2.203125 C 11.628906 -1.703125 11.671875 -1.082031 11.484375 -0.34375 L 11.46875 -0.3125 C 11.34375 0.195312 11.128906 0.613281 10.828125 0.9375 C 10.535156 1.269531 10.175781 1.515625 9.75 1.671875 C 9.332031 1.835938 8.851562 1.914062 8.3125 1.90625 C 7.78125 1.90625 7.203125 1.828125 6.578125 1.671875 L 2.546875 0.640625 C 2.203125 0.554688 1.941406 0.363281 1.765625 0.0625 C 1.585938 -0.238281 1.539062 -0.554688 1.625 -0.890625 Z M 4.84375 -3.625 L 4.234375 -1.203125 L 7.125 -0.46875 C 7.65625 -0.332031 8.097656 -0.316406 8.453125 -0.421875 C 8.804688 -0.535156 9.035156 -0.800781 9.140625 -1.21875 L 9.15625 -1.25 C 9.25 -1.613281 9.175781 -1.941406 8.9375 -2.234375 C 8.707031 -2.523438 8.28125 -2.75 7.65625 -2.90625 Z M 5.359375 -5.640625 L 7.59375 -5.078125 C 8.132812 -4.929688 8.582031 -4.910156 8.9375 -5.015625 C 9.300781 -5.117188 9.535156 -5.375 9.640625 -5.78125 L 9.640625 -5.8125 C 9.734375 -6.1875 9.671875 -6.503906 9.453125 -6.765625 C 9.234375 -7.023438 8.867188 -7.222656 8.359375 -7.359375 L 5.953125 -7.96875 Z M 5.359375 -5.640625 "/></g></g></g><g fill="#000000" fill-opacity="1"><g transform="translate(168.822615, 296.77517)"><g/></g></g><g fill="#000000" fill-opacity="1"><g transform="translate(176.511623, 297.980767)"><g><path d="M 1.8125 -10.0625 C 1.820312 -10.40625 1.953125 -10.691406 2.203125 -10.921875 C 2.460938 -11.160156 2.769531 -11.273438 3.125 -11.265625 L 6.3125 -11.125 C 7.207031 -11.082031 8.015625 -10.898438 8.734375 -10.578125 C 9.460938 -10.265625 10.082031 -9.835938 10.59375 -9.296875 C 11.101562 -8.765625 11.488281 -8.148438 11.75 -7.453125 C 12.007812 -6.753906 12.125 -6.003906 12.09375 -5.203125 L 12.09375 -5.171875 C 12.0625 -4.367188 11.882812 -3.625 11.5625 -2.9375 C 11.238281 -2.257812 10.796875 -1.675781 10.234375 -1.1875 C 9.671875 -0.707031 9.015625 -0.335938 8.265625 -0.078125 C 7.523438 0.179688 6.707031 0.289062 5.8125 0.25 L 2.625 0.109375 C 2.269531 0.0976562 1.972656 -0.03125 1.734375 -0.28125 C 1.503906 -0.539062 1.398438 -0.84375 1.421875 -1.1875 Z M 5.90625 -2.015625 C 6.414062 -1.984375 6.882812 -2.039062 7.3125 -2.1875 C 7.75 -2.332031 8.117188 -2.546875 8.421875 -2.828125 C 8.722656 -3.117188 8.96875 -3.46875 9.15625 -3.875 C 9.34375 -4.289062 9.445312 -4.75 9.46875 -5.25 L 9.46875 -5.28125 C 9.488281 -5.789062 9.425781 -6.253906 9.28125 -6.671875 C 9.132812 -7.097656 8.921875 -7.46875 8.640625 -7.78125 C 8.359375 -8.101562 8.007812 -8.351562 7.59375 -8.53125 C 7.1875 -8.71875 6.726562 -8.828125 6.21875 -8.859375 L 4.28125 -8.9375 L 3.96875 -2.09375 Z M 5.90625 -2.015625 "/></g></g></g><g fill="#000000" fill-opacity="1"><g transform="translate(192.238748, 298.411999)"><g><path d="M 1.25 -1.375 L 0.453125 -10.21875 C 0.429688 -10.5625 0.523438 -10.863281 0.734375 -11.125 C 0.953125 -11.394531 1.238281 -11.546875 1.59375 -11.578125 L 7.890625 -12.140625 C 8.203125 -12.160156 8.472656 -12.070312 8.703125 -11.875 C 8.929688 -11.675781 9.0625 -11.421875 9.09375 -11.109375 C 9.113281 -10.804688 9.03125 -10.535156 8.84375 -10.296875 C 8.65625 -10.066406 8.40625 -9.941406 8.09375 -9.921875 L 3.03125 -9.46875 L 3.234375 -7.15625 L 7.5625 -7.546875 C 7.875 -7.566406 8.144531 -7.476562 8.375 -7.28125 C 8.613281 -7.09375 8.75 -6.84375 8.78125 -6.53125 C 8.800781 -6.21875 8.710938 -5.945312 8.515625 -5.71875 C 8.328125 -5.488281 8.078125 -5.363281 7.765625 -5.34375 L 3.4375 -4.953125 L 3.640625 -2.5625 L 8.78125 -3.015625 C 9.09375 -3.046875 9.363281 -2.960938 9.59375 -2.765625 C 9.832031 -2.578125 9.96875 -2.328125 10 -2.015625 C 10.019531 -1.703125 9.929688 -1.425781 9.734375 -1.1875 C 9.546875 -0.957031 9.296875 -0.828125 8.984375 -0.796875 L 2.609375 -0.234375 C 2.253906 -0.203125 1.945312 -0.296875 1.6875 -0.515625 C 1.425781 -0.742188 1.28125 -1.03125 1.25 -1.375 Z M 1.25 -1.375 "/></g></g></g><g fill="#000000" fill-opacity="1"><g transform="translate(206.03068, 296.986231)"><g><path d="M 1.109375 -3.609375 C 1.265625 -3.640625 1.40625 -3.644531 1.53125 -3.625 C 1.65625 -3.601562 1.757812 -3.578125 1.84375 -3.546875 C 2.332031 -3.328125 2.832031 -3.175781 3.34375 -3.09375 C 3.851562 -3.007812 4.378906 -3.023438 4.921875 -3.140625 C 5.429688 -3.253906 5.804688 -3.429688 6.046875 -3.671875 C 6.285156 -3.921875 6.367188 -4.210938 6.296875 -4.546875 L 6.296875 -4.578125 C 6.253906 -4.734375 6.1875 -4.867188 6.09375 -4.984375 C 6.007812 -5.097656 5.875 -5.1875 5.6875 -5.25 C 5.507812 -5.320312 5.265625 -5.378906 4.953125 -5.421875 C 4.640625 -5.460938 4.234375 -5.488281 3.734375 -5.5 C 3.148438 -5.519531 2.609375 -5.5625 2.109375 -5.625 C 1.617188 -5.6875 1.1875 -5.8125 0.8125 -6 C 0.445312 -6.1875 0.140625 -6.445312 -0.109375 -6.78125 C -0.359375 -7.125 -0.539062 -7.570312 -0.65625 -8.125 L -0.671875 -8.15625 C -0.773438 -8.65625 -0.773438 -9.132812 -0.671875 -9.59375 C -0.578125 -10.050781 -0.390625 -10.460938 -0.109375 -10.828125 C 0.171875 -11.191406 0.53125 -11.503906 0.96875 -11.765625 C 1.40625 -12.023438 1.914062 -12.21875 2.5 -12.34375 C 3.84375 -12.632812 5.09375 -12.5625 6.25 -12.125 C 6.394531 -12.050781 6.539062 -11.945312 6.6875 -11.8125 C 6.832031 -11.6875 6.929688 -11.5 6.984375 -11.25 C 7.054688 -10.9375 7.003906 -10.644531 6.828125 -10.375 C 6.648438 -10.113281 6.40625 -9.945312 6.09375 -9.875 C 5.863281 -9.832031 5.644531 -9.851562 5.4375 -9.9375 C 4.507812 -10.257812 3.675781 -10.34375 2.9375 -10.1875 C 2.457031 -10.082031 2.117188 -9.910156 1.921875 -9.671875 C 1.722656 -9.429688 1.648438 -9.171875 1.703125 -8.890625 L 1.71875 -8.859375 C 1.757812 -8.671875 1.828125 -8.519531 1.921875 -8.40625 C 2.015625 -8.289062 2.160156 -8.203125 2.359375 -8.140625 C 2.566406 -8.085938 2.835938 -8.039062 3.171875 -8 C 3.503906 -7.96875 3.925781 -7.9375 4.4375 -7.90625 C 5.019531 -7.894531 5.550781 -7.835938 6.03125 -7.734375 C 6.507812 -7.640625 6.925781 -7.492188 7.28125 -7.296875 C 7.644531 -7.109375 7.941406 -6.851562 8.171875 -6.53125 C 8.398438 -6.207031 8.5625 -5.804688 8.65625 -5.328125 L 8.671875 -5.28125 C 8.785156 -4.726562 8.789062 -4.21875 8.6875 -3.75 C 8.582031 -3.28125 8.378906 -2.863281 8.078125 -2.5 C 7.785156 -2.132812 7.40625 -1.820312 6.9375 -1.5625 C 6.46875 -1.300781 5.929688 -1.109375 5.328125 -0.984375 C 4.597656 -0.828125 3.851562 -0.78125 3.09375 -0.84375 C 2.332031 -0.90625 1.585938 -1.09375 0.859375 -1.40625 C 0.703125 -1.46875 0.5625 -1.570312 0.4375 -1.71875 C 0.320312 -1.875 0.242188 -2.046875 0.203125 -2.234375 C 0.140625 -2.554688 0.191406 -2.847656 0.359375 -3.109375 C 0.535156 -3.367188 0.785156 -3.535156 1.109375 -3.609375 Z M 1.109375 -3.609375 "/></g></g></g><g fill="#000000" fill-opacity="1"><g transform="translate(218.941065, 293.960003)"><g><path d="M -1.671875 -10.203125 C -1.773438 -10.535156 -1.75 -10.851562 -1.59375 -11.15625 C -1.4375 -11.46875 -1.191406 -11.675781 -0.859375 -11.78125 C -0.535156 -11.882812 -0.222656 -11.851562 0.078125 -11.6875 C 0.390625 -11.53125 0.597656 -11.285156 0.703125 -10.953125 L 3.453125 -2.3125 C 3.554688 -1.976562 3.523438 -1.65625 3.359375 -1.34375 C 3.203125 -1.039062 2.960938 -0.835938 2.640625 -0.734375 C 2.304688 -0.628906 1.988281 -0.65625 1.6875 -0.8125 C 1.382812 -0.976562 1.179688 -1.226562 1.078125 -1.5625 Z M -1.671875 -10.203125 "/></g></g></g><g fill="#000000" fill-opacity="1"><g transform="translate(226.940523, 291.460807)"><g><path d="M 1.578125 -13.34375 C 2.378906 -13.695312 3.09375 -13.914062 3.71875 -14 C 4.34375 -14.082031 4.96875 -14.050781 5.59375 -13.90625 C 5.726562 -13.875 5.878906 -13.800781 6.046875 -13.6875 C 6.222656 -13.582031 6.363281 -13.421875 6.46875 -13.203125 C 6.601562 -12.878906 6.609375 -12.5625 6.484375 -12.25 C 6.367188 -11.9375 6.148438 -11.707031 5.828125 -11.5625 C 5.660156 -11.488281 5.507812 -11.453125 5.375 -11.453125 C 5.25 -11.453125 5.132812 -11.460938 5.03125 -11.484375 C 4.613281 -11.578125 4.203125 -11.609375 3.796875 -11.578125 C 3.398438 -11.554688 2.945312 -11.429688 2.4375 -11.203125 C 2.019531 -11.023438 1.664062 -10.769531 1.375 -10.4375 C 1.082031 -10.101562 0.863281 -9.726562 0.71875 -9.3125 C 0.582031 -8.90625 0.523438 -8.46875 0.546875 -8 C 0.566406 -7.539062 0.675781 -7.085938 0.875 -6.640625 L 0.890625 -6.609375 C 1.097656 -6.128906 1.363281 -5.722656 1.6875 -5.390625 C 2.019531 -5.054688 2.390625 -4.804688 2.796875 -4.640625 C 3.210938 -4.472656 3.648438 -4.390625 4.109375 -4.390625 C 4.578125 -4.398438 5.035156 -4.503906 5.484375 -4.703125 C 6.359375 -5.078125 6.992188 -5.601562 7.390625 -6.28125 L 6.734375 -7.765625 L 5.1875 -7.078125 C 4.90625 -6.953125 4.625 -6.941406 4.34375 -7.046875 C 4.070312 -7.160156 3.875 -7.351562 3.75 -7.625 C 3.625 -7.90625 3.613281 -8.179688 3.71875 -8.453125 C 3.832031 -8.734375 4.03125 -8.9375 4.3125 -9.0625 L 6.921875 -10.21875 C 7.242188 -10.363281 7.566406 -10.375 7.890625 -10.25 C 8.210938 -10.125 8.441406 -9.898438 8.578125 -9.578125 L 9.703125 -7.046875 C 9.984375 -6.410156 9.925781 -5.804688 9.53125 -5.234375 C 9.226562 -4.785156 8.816406 -4.316406 8.296875 -3.828125 C 7.785156 -3.347656 7.132812 -2.9375 6.34375 -2.59375 C 5.53125 -2.226562 4.726562 -2.03125 3.9375 -2 C 3.144531 -1.976562 2.40625 -2.097656 1.71875 -2.359375 C 1.03125 -2.628906 0.410156 -3.03125 -0.140625 -3.5625 C -0.703125 -4.09375 -1.15625 -4.742188 -1.5 -5.515625 L -1.515625 -5.546875 C -1.835938 -6.285156 -2.007812 -7.039062 -2.03125 -7.8125 C -2.050781 -8.59375 -1.921875 -9.332031 -1.640625 -10.03125 C -1.367188 -10.738281 -0.957031 -11.378906 -0.40625 -11.953125 C 0.132812 -12.535156 0.796875 -13 1.578125 -13.34375 Z M 1.578125 -13.34375 "/></g></g></g><g fill="#000000" fill-opacity="1"><g transform="translate(241.321747, 284.889128)"><g><path d="M 0.546875 -1.6875 L -4.234375 -9.375 C -4.421875 -9.664062 -4.472656 -9.976562 -4.390625 -10.3125 C -4.316406 -10.65625 -4.128906 -10.921875 -3.828125 -11.109375 L -3.625 -11.234375 C -3.363281 -11.398438 -3.113281 -11.476562 -2.875 -11.46875 C -2.632812 -11.457031 -2.382812 -11.40625 -2.125 -11.3125 L 5.34375 -8.484375 L 2.234375 -13.46875 C 2.054688 -13.757812 2.003906 -14.066406 2.078125 -14.390625 C 2.148438 -14.722656 2.332031 -14.984375 2.625 -15.171875 C 2.914062 -15.347656 3.226562 -15.398438 3.5625 -15.328125 C 3.894531 -15.253906 4.148438 -15.070312 4.328125 -14.78125 L 9.125 -7.09375 C 9.300781 -6.789062 9.347656 -6.472656 9.265625 -6.140625 C 9.191406 -5.804688 9.007812 -5.546875 8.71875 -5.359375 L 8.65625 -5.328125 C 8.382812 -5.160156 8.128906 -5.082031 7.890625 -5.09375 C 7.660156 -5.101562 7.410156 -5.148438 7.140625 -5.234375 L -0.5625 -8.171875 L 2.65625 -3 C 2.84375 -2.707031 2.894531 -2.394531 2.8125 -2.0625 C 2.738281 -1.738281 2.554688 -1.484375 2.265625 -1.296875 C 1.960938 -1.109375 1.644531 -1.050781 1.3125 -1.125 C 0.988281 -1.207031 0.734375 -1.394531 0.546875 -1.6875 Z M 0.546875 -1.6875 "/></g></g></g></svg>